<svg data-name="aoaLogo" xmlns="http://www.w3.org/2000/svg" viewBox="0 0 194.08 92.08"><title>aoaLogo</title><path d="M109.29 80.78c3.18-1.43 6.54-2.8 9.78-5.35 6.88-5.43 11.84-14.32 13.7-21.43a37.09 37.09 0 0 0 .69-13.51A42.17 42.17 0 0 0 128.72 26a39.62 39.62 0 0 0-10-11.46c-5.24-3.78-10.66-5.23-11.45-5.9-1.39-1.19 4.73-2.86 15.87 5.09a40.19 40.19 0 0 1 11.89 14 44.7 44.7 0 0 1 4.06 12.12l12.94-30.3 2.37 6.79-17.12 42a52.73 52.73 0 0 1-6.79 11.33c-3.67 4.61-8.47 9-12.87 11-9.88 4.46-10.62 1.13-8.33.11zM49.83 40.73c-4.76-11.51-6.61-14.82-10.2-24.38l2.52-6.27L55 41s1.6-11.57 8.87-19.81a67.82 67.82 0 0 1 8.6-8.05c3.85-2.88 12.31-6.63 12.9-4.85.42 1.26-3.66 2.1-8.46 5.13a34.65 34.65 0 0 0-5.35 4.43 39.92 39.92 0 0 0-8.1 11.35c-1.57 3.38-2.35 7.59-3.06 11.48-1.27 6.93.72 14.07 1.88 17.61C65 66.52 74 75 74.85 75.59c5.77 4.41 11.94 5.21 10.34 7.09-1.3 1.52-19.81-5.95-26.71-21.5-4.09-9.18-7.36-17.32-8.65-20.45z" fill="#fff"/><path fill="#1c446c" d="M102.94 85.78zM104.73 85.82a9.18 9.18 0 0 0 1.35-.21 48.42 48.42 0 0 0 6.07-1.46c1.14-.36 2.26-.75 3.32-1.18a41.54 41.54 0 0 0 9.65-5.42 40.91 40.91 0 0 0 6.07-5.65 42.06 42.06 0 0 0 3.51-4.63 42.57 42.57 0 0 0 3.38-6.3h32.64l.52 1.32c2.3 5.81 5.72 14.49 6.78 20l-11.42 1.8-.43.07v2.21h27.91v-2.16l-.4-.09-8.34-1.85a106.59 106.59 0 0 1-6.46-13.49L153.7 4.7h-5.34L138 29.55c-6.79-15.62-22.19-25.29-40.53-25.29h-.86c-18.35 0-33.75 9.67-40.54 25.29L45.72 4.7h-5.34L15.19 68.79a106.57 106.57 0 0 1-6.45 13.49L.4 84.13l-.4.09v2.18h27.91v-2.22l-.43-.07-11.42-1.8c1.06-5.54 4.48-14.22 6.78-20l.52-1.31H56a42.35 42.35 0 0 0 3.38 6.3 41.58 41.58 0 0 0 3.51 4.63A40.8 40.8 0 0 0 69 77.55 41.57 41.57 0 0 0 78.61 83c1.06.42 2.17.82 3.32 1.18A48.4 48.4 0 0 0 88 85.61c1 .18 2.1.33 3.24.46l.49.05a33.37 33.37 0 0 0 6.51.2l-3-4.45-.62-.05A30 30 0 0 1 70.49 65.3a35.8 35.8 0 0 1-1.82-4.19 46.74 46.74 0 0 1-2.57-15.87c0-10.84 3.13-20.08 9-26.72a28.86 28.86 0 0 1 21.3-9.74h1.27a28.86 28.86 0 0 1 21.26 9.74c5.92 6.64 9 15.88 9 26.72a46.64 46.64 0 0 1-2.57 15.87 35.16 35.16 0 0 1-1.82 4.19 30 30 0 0 1-23.5 16.46 7.66 7.66 0 0 1 4.69 4.06zM39.84 56.74a125.45 125.45 0 0 1-14.55-.68l1.23-3.14c3.09-8 8.74-22.52 12.86-30.82l14.42 34a129.7 129.7 0 0 1-13.96.64zM83.73 9.31a36.76 36.76 0 0 0-13.13 8.43 38.49 38.49 0 0 0-10.88 22.69 42.38 42.38 0 0 0-.37 5.36 38.51 38.51 0 0 0 16.53 31.35 37.33 37.33 0 0 0 8.47 4.34c.23.14.43.33.37.56s-.55.21-1 .1l-.72-.25a40 40 0 0 1-5.41-2.26 40.85 40.85 0 0 1-19.1-20.52l-4.92-11.8L40.46 16l1.6-4.09 11.57 27.77L55.41 44l.32-.06a36.59 36.59 0 0 1 1.72-9.6 40.46 40.46 0 0 1 14-19.57 39.93 39.93 0 0 1 12.36-6.41c.42-.1.85-.13.91.12.12.52-.99.83-.99.83zm51.92 49.81a40.88 40.88 0 0 1-19.1 20.52 39.86 39.86 0 0 1-6.25 2.53c-.43.1-.87.14-.93-.11s.15-.43.39-.57a37.37 37.37 0 0 0 8.44-4.33 38.51 38.51 0 0 0 16.53-31.35 42.82 42.82 0 0 0-.37-5.36 38.51 38.51 0 0 0-10.88-22.69 36.73 36.73 0 0 0-13.17-8.46h.05s-1.12-.32-1-.83c.06-.24.46-.22.87-.13a39.9 39.9 0 0 1 12.37 6.39 40.45 40.45 0 0 1 14 19.57 36.57 36.57 0 0 1 1.72 9.6l.32.06 1.78-4.28L152 11.91l1.6 4.09-13 31.31zm18.59-2.37a129.66 129.66 0 0 1-14-.63l14.42-34c4.12 8.3 9.77 22.85 12.86 30.82l1.23 3.15a125.44 125.44 0 0 1-14.52.65z"/><path d="M79.83 27.34c3.12 0 5.61 1.91 5.61 5.09 0 4.62-3.42 5.7-6.42 5.7H73.4v-.59c.75 0 1.26-.16 1.33-.38a2.14 2.14 0 0 0 .06-.67V29a2.21 2.21 0 0 0-.06-.68c-.06-.21-.58-.35-1.33-.38v-.58zM78 35.9c0 1.34 0 1.25.71 1.25 1.8 0 3.44-.85 3.44-4.73 0-2.93-1.31-4.13-3.87-4.13H78zM110.06 32.36a5.74 5.74 0 0 1 6-5.46 5.33 5.33 0 0 1 5.44 5.39 5.8 5.8 0 0 1-6 5.76 5.33 5.33 0 0 1-5.44-5.69zm8.08.27c0-3.48-1.37-4.71-2.65-4.71-1 0-2.08.64-2.08 4s1.09 5.13 2.45 5.13c.95 0 2.28-.28 2.28-4.43z" fill="#1c446c"/><path d="M102.21 91.88a6.46 6.46 0 0 0 .52-2.62 6 6 0 0 0-.38-2.15 7 7 0 0 0-4.15-3.89l-1.14-.41a4.83 4.83 0 0 1-1.14-.5 4.27 4.27 0 0 1-2.2-3.4v-.79a20.64 20.64 0 0 1 .77-5.22.53.53 0 0 0-.41-.23c-.35 0-1.31.16-2.69 2.45-.78 1.29-2.48 4.62-1.34 7.69.73 2 2.5 3.42 5.27 4.33l1.34.45 1.64.71c2.77 1.4 3.07 3.43 3.07 3.43s.3.68.84.15z" fill="#1c446c" style="isolation:isolate"/><path d="M104.45 69.21c-.62-1.83-2.48-3.22-5.5-4.12l-1.74-.45a11.11 11.11 0 0 1-2.34-.73 3.51 3.51 0 0 1-2.26-3.18v-.46a24.18 24.18 0 0 1 .91-5.64c-.06-.22-.15-.26-.19-.27-.57-.12-2 1-3.07 2.58-1.35 2-2.42 5.08-1.37 7.65.87 2.15 3.05 3.61 6.5 4.34h.24c.18 2.65.74 10.86.75 11.08l.09.06.48.27.38.17.29.08.5.17c0-.55.46-8.52.58-10.78l.31.16c1.38.76 2.08 1.69 2.08 2.75a2.46 2.46 0 0 1 0 .36c-.23 1.59-.94 5-1.19 5.9 0 .11.05.19.06.2.42 0 1.76-1.92 2.41-2.83 1.58-2.2 2.37-4.17 2.37-5.85a4.57 4.57 0 0 0-.29-1.46z" fill="#1c446c" style="isolation:isolate"/><path d="M105.53 50.24c-.75-1.93-2.73-3.31-5.89-4.1a19 19 0 0 0-2.41-.44 20.5 20.5 0 0 1-3.42-.93c-1.54-.64-2.31-1.56-2.37-2.79v-.46a23.61 23.61 0 0 1 .92-5.63c-.06-.24-.16-.27-.2-.28-.56-.11-2 1-3.07 2.59a10.25 10.25 0 0 0-1.9 5.34 5.41 5.41 0 0 0 .35 1.95c.83 2.15 3.15 3.72 6.89 4.67h.08c.17 2.48.7 10.27.71 10.53a11 11 0 0 0 1.12.44l.69.19h.19l.61.12.91.21c0-.5.39-8.16.5-10.45l.39.15a3.18 3.18 0 0 1 2.22 2.93v.29a18.61 18.61 0 0 1-1.24 5.81c.06.22.14.26.17.27.44.08 1.73-.79 2.92-2.59a11.92 11.92 0 0 0 2.15-6 5.26 5.26 0 0 0-.32-1.82z" fill="#1c446c" style="isolation:isolate"/><path d="M114.22 22.69a18.14 18.14 0 0 0-2.44-5 8.91 8.91 0 0 0-3-2.81 13.43 13.43 0 0 0-5.26-1.14h-.22l-.08-.07c-2.61-2.42-7.2-3.5-11.16-2.63-4.81 1.05-7.55 4.57-7.55 9.66v.16c.08 6.63 4.51 8.6 8.82 9.64h.08c.17 2.56.73 10.74.75 11a15.61 15.61 0 0 0 1.61.6l1 .25.68.12a20.43 20.43 0 0 1 2.1.4c0-.54.25-8.52.31-10.87l.49.2a3.11 3.11 0 0 1 2.23 2.72v.33a19.27 19.27 0 0 1-1.25 5.75c.06.19.14.24.19.25.56.11 2-1 3.07-2.58s2.54-4.46 1.59-7.16c-.71-2-2.69-3.52-5.87-4.5a24.7 24.7 0 0 0-3.41-.79 12.22 12.22 0 0 1-4.26-1.44A4.84 4.84 0 0 1 90 20.52a4.58 4.58 0 0 1 2.14-4 4.93 4.93 0 0 1 .48-.26c.12 1.4.42 5.1.44 5.33a11 11 0 0 0 2.06.93l1.33.35.36.08a30.27 30.27 0 0 1 3.38.72c0-.56.26-4.77.27-4.88a1.68 1.68 0 0 0-.13-.75l-.15-.28.11.08.74.85a13.88 13.88 0 0 1 1.13 1.73 6.35 6.35 0 0 0 .7 1.06c2.57 2.43 6.51 2.24 11 1.75a.88.88 0 0 0 .33-.52.23.23 0 0 0 .03-.02zM96.27 8.66a20.05 20.05 0 0 1 4.47.3l.26-6.08C101 .64 98.27.12 96.64 0c-1.92-.12-3.26.27-4 1.16A3.16 3.16 0 0 0 92 3.24s.24 5.3.27 5.89a34.13 34.13 0 0 1 4-.47z" fill="#1c446c" style="isolation:isolate"/><path d="M174.1 22.41a8.77 8.77 0 1 1 8.78-8.78 8.78 8.78 0 0 1-8.78 8.78zm0-15.91a7.14 7.14 0 1 0 7 7.13 7.09 7.09 0 0 0-7-7.12zm4.44 11.76h-2.08l-1.75-3.37h-2.35v3.35h-1.82V8.59h4.63a3 3 0 0 1 3.32 3.15 3 3 0 0 1-2 2.93zm-3.35-5a1.38 1.38 0 0 0 1.5-1.48c0-1.09-.58-1.48-1.5-1.48h-2.84v3z" fill="#1c446c"/></svg>