<svg data-name="microscope" xmlns="http://www.w3.org/2000/svg" viewBox="0 0 42 54"><title>iconMicroscope</title><path d="M34 45h-1v-4a6 6 0 0 0-.33-1.94A18.53 18.53 0 0 0 35 30c0-7.57-4.37-14-10.53-16.2A5 5 0 0 0 21 11.1V8a1 1 0 0 0-1-1h-1V2a1 1 0 0 0-1-1h-6a1 1 0 0 0-1 1v5h-1a1 1 0 0 0-1 1v20a1 1 0 0 0 1 1h1v5a1 1 0 0 0 1 1h6a1 1 0 0 0 1-1v-5h1a1 1 0 0 0 1-1v-7.1a5 5 0 0 0 2.27-1.14C26.55 21.33 29 25.29 29 30a12.79 12.79 0 0 1-1 5.08A5.94 5.94 0 0 0 21.35 39H9a1 1 0 0 0 0 2h12v4H6a5 5 0 0 0-5 5v2a1 1 0 0 0 1 1h38a1 1 0 0 0 1-1 7 7 0 0 0-7-7zM13 3h4v4h-4zm4 30h-4v-4h4zm2-6h-8V9h8v2.1a5 5 0 0 0 0 9.8zm1-8a3 3 0 1 1 3-3 3 3 0 0 1-3 3zm4.5-.85a5 5 0 0 0 .49-2c4.65 2.23 8 7.54 8 13.83a16.67 16.67 0 0 1-1.53 7 6 6 0 0 0-1.62-1.29A14.83 14.83 0 0 0 31 30c0-5.22-2.61-9.78-6.5-11.85zM3 51v-1a3 3 0 0 1 3-3h16a1 1 0 0 0 1-1v-5a4 4 0 0 1 8 0v5a1 1 0 0 0 1 1h2a5 5 0 0 1 4.9 4zm24-12a2 2 0 1 0 2 2 2 2 0 0 0-2-2z"/></svg>