<svg data-name="bubble" xmlns="http://www.w3.org/2000/svg" viewBox="0 0 54 46"><title>iconBubble</title><path d="M49 13h-6V5a4 4 0 0 0-4-4H5a4 4 0 0 0-4 4v22a4 4 0 0 0 4 4h2v9a1 1 0 0 0 1.71.71l9.7-9.71H21v2a4 4 0 0 0 4 4h12.58l7.71 7.71A1 1 0 0 0 47 44v-7h2a4 4 0 0 0 4-4V17a4 4 0 0 0-4-4zM18 29a1 1 0 0 0-.71.29L9 37.58V30a1 1 0 0 0-1-1H5a2 2 0 0 1-2-2V5a2 2 0 0 1 2-2h34a2 2 0 0 1 2 2v22a2 2 0 0 1-2 2zm33 4a2 2 0 0 1-2 2h-3a1 1 0 0 0-1 1v5.59l-6.29-6.29A1 1 0 0 0 38 35H25a2 2 0 0 1-2-2v-2h16a4 4 0 0 0 4-4V15h6a2 2 0 0 1 2 2zM30 13h-5V8a1 1 0 0 0-1-1h-4a1 1 0 0 0-1 1v5h-5a1 1 0 0 0-1 1v4a1 1 0 0 0 1 1h5v5a1 1 0 0 0 1 1h4a1 1 0 0 0 1-1v-5h5a1 1 0 0 0 1-1v-4a1 1 0 0 0-1-1zm-1 4h-5a1 1 0 0 0-1 1v5h-2v-5a1 1 0 0 0-1-1h-5v-2h5a1 1 0 0 0 1-1V9h2v5a1 1 0 0 0 1 1h5z"/></svg>