<svg data-name="bulb" xmlns="http://www.w3.org/2000/svg" viewBox="0 0 88 92.25"><title>iconBulb</title><path d="M44.25 15.12a2 2 0 0 0 2-2V4a2 2 0 0 0-4 0v9.08a2 2 0 0 0 2 2zM28.38 19.36a2 2 0 0 0 1.73-3l-4.53-7.85a2 2 0 0 0-3.46 2l4.53 7.86a2 2 0 0 0 1.73.99zM17.77 27.25l-7.86-4.54a2 2 0 0 0-2 3.46l7.86 4.54a2 2 0 0 0 2-3.46zM79.59 67.24a2 2 0 0 0 1-3.73L72.73 59a2 2 0 0 0-2 3.46L78.59 67a2 2 0 0 0 1 .24zM3.45 46.85h9.07a2 2 0 0 0 0-4H3.45a2 2 0 0 0 0 4zM85.05 42.85H76a2 2 0 0 0 0 4h9.07a2 2 0 0 0 0-4zM7.18 66.24A2 2 0 0 0 9.9 67l7.86-4.53a2 2 0 0 0-2-3.46l-7.86 4.5a2 2 0 0 0-.72 2.73zM81.32 23.44a2 2 0 0 0-2.73-.73l-7.86 4.54a2 2 0 0 0 1.85 3.54l.15-.08 7.86-4.54a2 2 0 0 0 .73-2.73zM60.12 19.36a2 2 0 0 0 1.73-1l4.53-7.86a2 2 0 0 0-3.46-2l-4.53 7.86a2 2 0 0 0 1.73 3zM29.49 66.35A3.29 3.29 0 0 1 30.86 69v3.4a7.49 7.49 0 0 0 1.44 4.41A4.35 4.35 0 0 0 30.86 80v3.82a7.11 7.11 0 0 0 7 7.18h12.67a7.11 7.11 0 0 0 7.1-7.11V80a4.35 4.35 0 0 0-1.44-3.22 7.49 7.49 0 0 0 1.44-4.41v-3a4 4 0 0 1 1.69-3.22 25.5 25.5 0 1 0-29.83.27zm24.14 17.5A3.11 3.11 0 0 1 50.56 87H38a3.11 3.11 0 0 1-3.11-3.11V80a.38.38 0 0 1 .38-.37h18a.38.38 0 0 1 .37.38zm-14.89-34.3h-1.83a1.71 1.71 0 1 1 1.83-1.74zm3 26.1v-23.1h5v23.1zm-19-31.43a21.48 21.48 0 0 1 20-20.13h1.42A21.55 21.55 0 0 1 57 62.89a8.05 8.05 0 0 0-3.32 6.44v3.07a3.54 3.54 0 0 1-2.16 3.25h-1.78v-23.1h1.83a4.71 4.71 0 1 0-4.8-5 1.53 1.53 0 0 0 0 .31v1.7h-5v-1.71a4.82 4.82 0 1 0-4.94 4.7h1.93v23.1H37a3.54 3.54 0 0 1-2.16-3.25V69a7.29 7.29 0 0 0-3-5.94 21.43 21.43 0 0 1-9-18.83zm27 5.33v-1.69a1.83 1.83 0 1 1 2 1.7h-2z"/></svg>