<svg xmlns="http://www.w3.org/2000/svg" viewBox="0 0 243.13 81.11"><path fill="#414042" d="M1.13 71.29v-.03c0-3.2 2.4-6 5.94-6 3.53 0 5.9 2.77 5.9 5.97v.03c0 3.2-2.41 6-5.94 6-3.53 0-5.9-2.77-5.9-5.97zm10.48 0v-.03c0-2.64-1.92-4.79-4.58-4.79s-4.54 2.12-4.54 4.76v.03c0 2.64 1.92 4.79 4.58 4.79s4.54-2.12 4.54-4.76zM15.5 71.29v-.03c0-3.28 2.45-6 5.87-6 2.11 0 3.37.75 4.53 1.84l-.9.95c-.98-.93-2.07-1.59-3.65-1.59-2.57 0-4.5 2.09-4.5 4.76v.03c0 2.69 1.94 4.79 4.5 4.79 1.59 0 2.64-.61 3.75-1.67l.86.85c-1.21 1.23-2.54 2.04-4.64 2.04-3.35 0-5.82-2.64-5.82-5.97zM31.59 66.66h-3.9v-1.21h9.12v1.21h-3.9v10.4h-1.33v-10.4zM38.23 71.29v-.03c0-3.2 2.4-6 5.94-6 3.53 0 5.9 2.77 5.9 5.97v.03c0 3.2-2.41 6-5.94 6-3.53 0-5.9-2.77-5.9-5.97zm10.48 0v-.03c0-2.64-1.92-4.79-4.58-4.79s-4.54 2.12-4.54 4.76v.03c0 2.64 1.92 4.79 4.58 4.79s4.54-2.12 4.54-4.76zM53.11 65.45h4.94c1.33 0 2.37.38 3.04 1.03.48.5.75 1.11.75 1.86v.03c0 1.51-.93 2.29-1.84 2.69 1.38.41 2.49 1.21 2.49 2.8v.03c0 1.99-1.68 3.17-4.21 3.17h-5.16V65.45zm7.4 3.07c0-1.14-.91-1.89-2.57-1.89h-3.53v4h3.43c1.58 0 2.67-.71 2.67-2.07v-.04zm-2.44 3.27H54.4v4.1h3.9c1.76 0 2.85-.78 2.85-2.07v-.03c.01-1.27-1.05-2-3.08-2zM65.36 65.45h8.39v1.19h-7.08v3.96H73v1.19h-6.34v4.06h7.17v1.19h-8.48V65.45zM76.74 65.45h4.99c1.43 0 2.57.43 3.3 1.16.56.56.9 1.38.9 2.29v.03c0 1.92-1.33 3.05-3.15 3.38l3.57 4.74h-1.61l-3.37-4.51h-3.32v4.51h-1.31v-11.6zm4.88 5.92c1.74 0 2.99-.9 2.99-2.39v-.03c0-1.43-1.09-2.29-2.97-2.29h-3.58v4.71h3.56zM93.48 75.42l.86-.95c1.01.98 2.12 1.59 3.3 1.59 1.66 0 2.8-1.11 2.8-2.57v-.03c0-1.44-1.19-2.44-2.89-2.44-.98 0-1.76.3-2.44.66l-.88-.58.33-5.66h6.68v1.21H95.7l-.25 3.71c.68-.3 1.33-.51 2.29-.51 2.26 0 4.01 1.33 4.01 3.55v.03c0 2.27-1.73 3.82-4.15 3.82-1.63.01-3.07-.79-4.12-1.83zM104.1 71.44h6.6v1.28h-6.6v-1.28zM120.43 71.22v-.23c-.73 1.13-1.79 1.84-3.28 1.84-2.39 0-4.05-1.51-4.05-3.6v-.03c0-2.21 1.71-3.95 4.18-3.95 1.33 0 2.31.45 3.05 1.19.88.88 1.44 2.17 1.44 4.5v.03c0 3.68-1.96 6.29-4.83 6.29-1.51 0-2.6-.61-3.58-1.43l.76-1.01c.95.83 1.82 1.24 2.85 1.24 2.25.01 3.46-2.33 3.46-4.84zm-.25-2.14v-.03c0-1.48-1.21-2.64-2.95-2.64-1.74 0-2.79 1.28-2.79 2.72v.03c0 1.48 1.16 2.54 2.85 2.54 1.78 0 2.89-1.29 2.89-2.62z"/><path fill="#BCBEC0" d="M132.59 63.82h1.08v15.36h-1.08V63.82z"/><path fill="#414042" d="M144.02 75.37l.81-.96c1.21 1.09 2.37 1.64 3.98 1.64 1.56 0 2.59-.83 2.59-1.97v-.03c0-1.08-.58-1.69-3.02-2.21-2.67-.58-3.9-1.44-3.9-3.35v-.03c0-1.82 1.61-3.17 3.81-3.17 1.69 0 2.9.48 4.08 1.43l-.76 1.01c-1.08-.88-2.16-1.26-3.35-1.26-1.51 0-2.47.83-2.47 1.87v.03c0 1.09.6 1.71 3.15 2.26 2.59.56 3.78 1.51 3.78 3.28v.03c0 1.99-1.66 3.28-3.96 3.28-1.83.01-3.34-.61-4.74-1.85zM159.72 65.37h1.23l5.29 11.69h-1.41l-1.36-3.07h-6.32l-1.38 3.07h-1.34l5.29-11.69zm3.23 7.43l-2.64-5.9-2.65 5.9h5.29zM168.8 65.45h1.23l7.31 9.3v-9.3h1.28v11.61h-1.04l-7.5-9.52v9.52h-1.28V65.45zM187.41 65.45h4.03c3.65 0 6.17 2.5 6.17 5.77v.03c0 3.27-2.52 5.81-6.17 5.81h-4.03V65.45zm1.31 1.21v9.19h2.72c2.94 0 4.81-1.99 4.81-4.56v-.03c0-2.57-1.87-4.59-4.81-4.59h-2.72zM200.77 65.45h1.31v11.61h-1.31V65.45zM205.75 65.45h8.39v1.19h-7.08v3.96h6.34v1.19h-6.34v4.06h7.17v1.19h-8.48V65.45zM216.62 71.29v-.03c0-3.18 2.34-6 5.82-6 1.96 0 3.17.56 4.33 1.54l-.85 1c-.9-.78-1.89-1.33-3.53-1.33-2.57 0-4.41 2.17-4.41 4.76v.03c0 2.77 1.77 4.83 4.59 4.83 1.33 0 2.55-.51 3.35-1.16v-2.89h-3.53v-1.18h4.79v4.63c-1.08.96-2.7 1.78-4.66 1.78-3.65-.01-5.9-2.66-5.9-5.98zM229.89 71.29v-.03c0-3.2 2.4-6 5.94-6 3.53 0 5.9 2.77 5.9 5.97v.03c0 3.2-2.41 6-5.94 6-3.53 0-5.9-2.77-5.9-5.97zm10.48 0v-.03c0-2.64-1.92-4.79-4.58-4.79s-4.54 2.12-4.54 4.76v.03c0 2.64 1.92 4.79 4.58 4.79s4.54-2.12 4.54-4.76z"/><g><path fill="#1E22AA" d="M.89 21.4c0 11.62 9.44 20.77 21.8 20.77S44.6 32.9 44.6 21.29v-.12C44.6 9.55 35.16.4 22.8.4 10.44.4.89 9.67.89 21.29v.11m30.21 0c0 4.69-3.2 8.93-8.3 8.93-5.15 0-8.41-4.29-8.41-9.04v-.12c0-4.69 3.2-8.92 8.3-8.92 5.15 0 8.41 4.29 8.41 9.04v.11M194.86 12.27l-6.69 1.59-2.1-8.51 11.62-3.29h7.99v39.97h-10.83V12.27zM46.7 1.77h13.96l8.58 14.08 8.58-14.08h13.96v40.06H78.46V21.97l-9.21 14.25h-.23l-9.21-14.25v19.86H46.7V1.77zm84.76 40.06h14.88c16.19 0 24.32-8.41 24.32-20.26v-.12c0-11.85-7.95-19.69-23.86-19.69h-15.34v40.07zm13.39-11.68V13.44h2.23c6.12 0 10.07 2.52 10.07 8.3v.12c0 5.78-3.95 8.3-10.07 8.3h-2.23zm-16.03-17.39V1.77H94.65v40.06h34.16V30.84h-23.17v-4.35h19.75v-9.67h-19.75v-4.06h23.18zM207.94 30.31v-.11c0-4.83 2.84-7.79 7.17-9.56-3.01-1.54-5.8-4.27-5.8-8.65v-.11c0-6.54 6.54-11.15 15.98-11.15 9.44 0 15.98 4.61 15.98 11.15V12c0 4.38-2.79 7.11-5.8 8.65 4.04 1.65 7.17 4.49 7.17 9.56v.11c0 6.94-7.05 11.72-17.35 11.72-10.3-.01-17.35-4.84-17.35-11.73zm21.95-1.48v-.11c0-2.16-1.82-3.87-4.61-3.87s-4.61 1.71-4.61 3.87v.11c0 1.99 1.54 3.98 4.61 3.98 3.08.01 4.61-2.04 4.61-3.98zm-.45-15.18v-.11c0-1.99-1.65-3.75-4.15-3.75-2.5 0-4.15 1.76-4.15 3.75v.11c0 2.22 1.71 3.87 4.15 3.87 2.44 0 4.15-1.65 4.15-3.87zM176.71.34c.54.23 1 .54 1.4.94.39.4.71.87.93 1.41.23.54.34 1.12.34 1.73 0 .63-.11 1.21-.34 1.74-.22.54-.54 1-.93 1.39-.4.4-.86.71-1.4.93-.54.22-1.12.34-1.75.34-.63 0-1.21-.11-1.74-.34-.54-.23-1.01-.54-1.4-.93-.4-.39-.71-.86-.93-1.39-.22-.53-.34-1.11-.34-1.74 0-.62.11-1.2.34-1.73.23-.54.54-1.01.93-1.41.39-.4.86-.71 1.4-.94a4.39 4.39 0 0 1 1.74-.34c.63 0 1.21.11 1.75.34m-3.23.59c-.46.2-.85.47-1.18.81-.33.34-.59.74-.78 1.2-.19.46-.28.95-.28 1.49 0 .53.09 1.03.28 1.48.19.46.44.86.78 1.2.33.34.73.61 1.18.81.45.2.95.3 1.49.3.53 0 1.02-.1 1.48-.3.45-.2.85-.46 1.18-.81.34-.34.6-.74.79-1.2.19-.46.28-.95.28-1.48s-.1-1.02-.28-1.49c-.19-.46-.45-.86-.79-1.2-.33-.34-.73-.61-1.18-.81-.45-.2-.95-.3-1.48-.3-.55 0-1.04.1-1.49.3m-.12 6.04v-5.1h1.95c.58 0 1 .12 1.26.36.27.24.4.59.4 1.05 0 .22-.03.41-.1.58-.07.17-.16.31-.28.42-.12.12-.25.21-.41.27-.16.07-.32.12-.49.15l1.52 2.27h-.74l-1.44-2.27h-1.05v2.27h-.62zm2.03-2.82c.19-.01.35-.05.49-.1a.77.77 0 0 0 .35-.26c.09-.12.13-.29.13-.51 0-.18-.03-.33-.1-.44a.87.87 0 0 0-.27-.27c-.11-.07-.24-.11-.39-.14-.14-.02-.29-.03-.45-.03H174v1.77h.83c.18 0 .37-.01.56-.02"/></g></svg>