<svg xmlns="http://www.w3.org/2000/svg" viewBox="0 0 331.3 152"><style>.st0{display:none}.st1{display:inline}.st2{fill:#e2231a}.st3{fill:#414042}.st4{fill:#bcbec0}.st5{fill:#1e22aa}</style><g id="old-version" class="st0"><g class="st1"><path class="st2" d="M91.7 40.5h14l8.6 14 8.5-14h14v40h-13.3V60.6l-9.2 14.3h-.3l-9.2-14.3v19.9H91.7zM176.4 40.5h15.3c15.9 0 23.8 7.8 23.8 19.7v.1c0 11.8-8.1 20.2-24.3 20.2h-14.9v-40zM192 68.8c6.1 0 10.1-2.5 10.1-8.3v-.1c0-5.8-3.9-8.3-10.1-8.3h-2.2v16.7h2.2zM46 60.1V60c0-11.6 9.5-20.9 21.9-20.9 12.3 0 21.8 9.1 21.8 20.7v.2c0 11.6-9.5 20.9-21.9 20.9S46 71.7 46 60.1m30.2 0V60c0-4.7-3.3-9-8.4-9-5.1 0-8.3 4.2-8.3 8.9v.1c0 4.7 3.3 9 8.4 9 5.1 0 8.3-4.2 8.3-8.9M173.7 51.4V40.5h-34.1v40h34.1v-11h-23.1v-4.3h19.7v-9.7h-19.7v-4.1zM221.7 38.6c.5.2 1 .5 1.4.9.4.4.7.9.9 1.4.2.5.3 1.1.3 1.7 0 .6-.1 1.2-.3 1.7-.2.5-.5 1-.9 1.4-.4.4-.9.7-1.4.9-.5.2-1.1.3-1.7.3-.6 0-1.2-.1-1.7-.3-.5-.2-1-.5-1.4-.9-.4-.4-.7-.9-.9-1.4-.2-.5-.3-1.1-.3-1.7 0-.6.1-1.2.3-1.7.2-.5.5-1 .9-1.4.4-.4.9-.7 1.4-.9.5-.2 1.1-.3 1.7-.3.6 0 1.1.1 1.7.3m-3.2.6c-.5.2-.9.5-1.2.8-.3.3-.6.7-.8 1.2-.2.5-.3 1-.3 1.5s.1 1 .3 1.5c.2.5.4.9.8 1.2.3.3.7.6 1.2.8.5.2.9.3 1.5.3.5 0 1-.1 1.5-.3.5-.2.9-.5 1.2-.8.3-.3.6-.7.8-1.2.2-.5.3-1 .3-1.5s-.1-1-.3-1.5c-.2-.5-.5-.9-.8-1.2-.3-.3-.7-.6-1.2-.8-.5-.2-.9-.3-1.5-.3s-1.1.1-1.5.3m-.2 6.1v-5.1h2c.6 0 1 .1 1.3.4.3.2.4.6.4 1 0 .2 0 .4-.1.6-.1.2-.2.3-.3.4-.1.1-.3.2-.4.3-.2.1-.3.1-.5.1l1.5 2.3h-.7L220 43h-1v2.3h-.7zm2.1-2.9c.2 0 .4 0 .5-.1.1-.1.3-.1.3-.3.1-.1.1-.3.1-.5s0-.3-.1-.4l-.3-.3c-.1-.1-.2-.1-.4-.1H219v1.8h.8c.2 0 .4 0 .6-.1M239.3 50.8l-6.6 1.5-2.1-8.4 11.5-3.3h8v39.7h-10.8z"/><g><path class="st2" d="M270.6 51.6h-18.1V40.7H285v10l-17.2 29.7h-14.4l17.2-28.8z"/></g></g><g class="st1"><path class="st3" d="M46 107.6c0-2.5 1.9-4.7 4.6-4.7 2.8 0 4.6 2.2 4.6 4.7s-1.9 4.7-4.6 4.7-4.6-2.2-4.6-4.7zm8.2 0c0-2.1-1.5-3.8-3.6-3.8s-3.5 1.7-3.5 3.7c0 2.1 1.5 3.7 3.6 3.7s3.5-1.5 3.5-3.6zM57.2 107.6c0-2.6 1.9-4.7 4.6-4.7 1.6 0 2.6.6 3.5 1.4l-.7.7c-.8-.7-1.6-1.2-2.8-1.2-2 0-3.5 1.6-3.5 3.7s1.5 3.7 3.5 3.7c1.2 0 2.1-.5 2.9-1.3l.7.7c-.9 1-2 1.6-3.6 1.6-2.6.1-4.6-2-4.6-4.6zM69.8 104h-3v-.9h7.1v.9h-3v8.1h-1V104zM75.1 107.6c0-2.5 1.9-4.7 4.6-4.7s4.6 2.2 4.6 4.7-1.9 4.7-4.6 4.7-4.6-2.2-4.6-4.7zm8.1 0c0-2.1-1.5-3.8-3.6-3.8s-3.5 1.7-3.5 3.7c0 2.1 1.5 3.7 3.6 3.7 2.1.2 3.5-1.5 3.5-3.6zM86.7 103.1h3.9c1 0 1.8.3 2.4.8.4.4.6.9.6 1.4 0 1.2-.7 1.8-1.4 2.1 1.1.3 1.9.9 1.9 2.2 0 1.6-1.3 2.5-3.3 2.5h-4v-9zm3.7 4c1.2 0 2.1-.6 2.1-1.6 0-.9-.7-1.5-2-1.5h-2.8v3.1h2.7zm.4 4.1c1.4 0 2.2-.6 2.2-1.6s-.8-1.6-2.4-1.6h-2.9v3.2h3.1zM96.3 103.1h6.5v.9h-5.5v3.1h4.9v.9h-4.9v3.2h5.6v.9h-6.6v-9zM105.2 103.1h3.9c1.1 0 2 .3 2.6.9.4.4.7 1.1.7 1.8 0 1.5-1 2.4-2.5 2.6l2.8 3.7h-1.3l-2.6-3.5h-2.6v3.5h-1v-9zm3.8 4.6c1.4 0 2.3-.7 2.3-1.9 0-1.1-.9-1.8-2.3-1.8h-2.8v3.7h2.8zM123.5 104h-5v-.9h6.1v.8l-4.1 8.3h-1.1l4.1-8.2zM126.1 107.8h5.1v1h-5.1v-1zM134.3 104.1l-1.7.5-.2-.8 2.2-.8h.8v9.1h-1v-8zM139.2 104.1l-1.7.5-.2-.8 2.2-.8h.8v9.1h-1v-8z"/><g><path class="st3" d="M158.5 103.1h3.4c2 0 3.4 1.1 3.4 2.9 0 2-1.6 3-3.6 3h-2.2v3.2h-1v-9.1zm3.3 4.9c1.5 0 2.5-.8 2.5-2 0-1.3-1-2-2.4-2h-2.3v4h2.2zM167.4 103.1h1v4h5.2v-4h1v9.1h-1v-4.1h-5.2v4.1h-1v-9.1zM177.6 103.1h1v9.1h-1v-9.1zM181.5 103.1h1v8.1h5.1v.9h-6.1v-9zM193.2 103h1l4.1 9.1h-1.1l-1.1-2.4h-4.9l-1.1 2.4h-1l4.1-9.1zm2.5 5.8l-2.1-4.6-2.1 4.6h4.2zM200.3 103.1h3.1c2.8 0 4.8 2 4.8 4.5s-2 4.5-4.8 4.5h-3.1v-9zm3.1 8.1c2.3 0 3.8-1.6 3.8-3.6s-1.5-3.6-3.8-3.6h-2.1v7.2h2.1zM210.7 103.1h6.5v.9h-5.5v3.1h4.9v.9h-4.9v3.2h5.6v.9h-6.6v-9zM219.6 103.1h1v8.1h5.1v.9h-6.1v-9zM227.8 103.1h3.4c2 0 3.4 1.1 3.4 2.9 0 2-1.6 3-3.6 3h-2.2v3.2h-1v-9.1zm3.3 4.9c1.5 0 2.5-.8 2.5-2 0-1.3-1-2-2.4-2h-2.3v4h2.2zM236.7 103.1h1v4h5.2v-4h1v9.1h-1v-4.1h-5.2v4.1h-1v-9.1zM246.9 103.1h1v9.1h-1v-9.1zM254.2 103h1l4.1 9.1h-1.1l-1.1-2.4h-4.9l-1.1 2.4h-1l4.1-9.1zm2.5 5.8l-2.1-4.6-2.1 4.6h4.2zM260.6 113.3c.6-.2.9-.6.9-1.1h-.5v-1.4h1.2v1.2c0 1-.5 1.6-1.4 1.8l-.2-.5zM268.9 103.1h3.4c2 0 3.4 1.1 3.4 2.9 0 2-1.6 3-3.6 3h-2.2v3.2h-1v-9.1zm3.2 4.9c1.5 0 2.5-.8 2.5-2 0-1.3-1-2-2.4-2h-2.3v4h2.2zM280.2 103h1l4.1 9.1h-1.1l-1.1-2.4h-4.9l-1.1 2.4h-1l4.1-9.1zm2.5 5.8l-2.1-4.6-2.1 4.6h4.2z"/></g><path class="st4" d="M148.9 101.6h.8v12h-.8z"/></g></g><g id="sub"><path class="st3" d="M45.9 109.6c0-3.2 2.4-6 5.9-6 3.5 0 5.9 2.8 5.9 6s-2.4 6-5.9 6c-3.6 0-5.9-2.8-5.9-6zm10.4 0c0-2.7-1.9-4.8-4.6-4.8s-4.5 2.1-4.5 4.8c0 2.6 1.9 4.8 4.6 4.8s4.5-2.2 4.5-4.8zM60.2 109.6c0-3.3 2.5-6 5.9-6 2.1 0 3.4.7 4.5 1.8l-.9 1c-1-.9-2.1-1.6-3.6-1.6-2.6 0-4.5 2.1-4.5 4.8 0 2.7 1.9 4.8 4.5 4.8 1.6 0 2.6-.6 3.7-1.7l.9.8c-1.2 1.2-2.5 2-4.6 2-3.4.1-5.9-2.6-5.9-5.9zM76.3 105h-3.9v-1.2h9.1v1.2h-3.9v10.4h-1.3V105zM83 109.6c0-3.2 2.4-6 5.9-6 3.5 0 5.9 2.8 5.9 6s-2.4 6-5.9 6c-3.6 0-5.9-2.8-5.9-6zm10.4 0c0-2.7-1.9-4.8-4.6-4.8s-4.5 2.1-4.5 4.8c0 2.6 1.9 4.8 4.6 4.8s4.5-2.2 4.5-4.8zM97.8 103.7h4.9c1.3 0 2.4.4 3 1 .5.5.7 1.1.7 1.9 0 1.5-.9 2.3-1.8 2.7 1.4.4 2.5 1.2 2.5 2.8 0 2-1.7 3.2-4.2 3.2h-5.2v-11.6zm7.4 3.1c0-1.1-.9-1.9-2.6-1.9h-3.5v4h3.4c1.6 0 2.7-.7 2.7-2.1zm-2.4 3.3h-3.7v4.1h3.9c1.8 0 2.9-.8 2.9-2.1s-1.1-2-3.1-2zM110.1 103.7h8.4v1.2h-7.1v4h6.3v1.2h-6.3v4.1h7.2v1.2h-8.5v-11.7zM121.5 103.7h5c1.4 0 2.6.4 3.3 1.2.6.6.9 1.4.9 2.3 0 1.9-1.3 3.1-3.2 3.4l3.6 4.7h-1.6l-3.4-4.5h-3.3v4.5h-1.3v-11.6zm4.8 6c1.7 0 3-.9 3-2.4 0-1.4-1.1-2.3-3-2.3h-3.6v4.7h3.6zM139.8 114.4c-.9-.9-1.5-2.1-1.5-4.5 0-3.5 1.8-6.3 4.8-6.3 1.4 0 2.4.5 3.4 1.3l-.8 1c-.9-.7-1.7-1.1-2.7-1.1-2.2 0-3.4 2.4-3.4 5v.2c.8-1.1 1.8-1.8 3.3-1.8 2.2 0 4 1.4 4 3.6s-1.8 3.9-4.2 3.9c-1.1-.1-2.2-.6-2.9-1.3zm5.9-2.7c0-1.5-1.2-2.5-2.8-2.5-1.7 0-2.9 1.2-2.9 2.5 0 1.5 1.2 2.6 2.9 2.6 1.7.1 2.8-1.1 2.8-2.6zM149.4 109.7h6.6v1.3h-6.6v-1.3zM165.7 109.5v-.2c-.7 1.1-1.8 1.8-3.3 1.8-2.4 0-4-1.5-4-3.6 0-2.2 1.7-3.9 4.2-3.9 1.3 0 2.3.4 3.1 1.2.9.9 1.4 2.2 1.4 4.5 0 3.7-2 6.3-4.8 6.3-1.5 0-2.6-.6-3.6-1.4l.8-1c.9.8 1.8 1.2 2.9 1.2 2.1 0 3.3-2.4 3.3-4.9zm-.2-2.1c0-1.5-1.2-2.7-3-2.7-1.7 0-2.8 1.3-2.8 2.7 0 1.5 1.2 2.5 2.9 2.5 1.8.1 2.9-1.2 2.9-2.5z"/><path class="st4" d="M177.9 102.1h1.1v15.4h-1.1v-15.4z"/><path class="st3" d="M189.3 113.7l.8-1c1.2 1.1 2.4 1.6 4 1.6s2.6-.8 2.6-2c0-1.1-.6-1.7-3-2.2-2.7-.6-3.9-1.4-3.9-3.4 0-1.8 1.6-3.2 3.8-3.2 1.7 0 2.9.5 4.1 1.4l-.8 1c-1.1-.9-2.2-1.3-3.4-1.3-1.5 0-2.5.8-2.5 1.9 0 1.1.6 1.7 3.2 2.3 2.6.6 3.8 1.5 3.8 3.3 0 2-1.7 3.3-4 3.3-1.8.1-3.3-.5-4.7-1.7zM205 103.7h1.2l5.3 11.7h-1.4l-1.4-3.1h-6.3l-1.4 3.1h-1.3l5.3-11.7zm3.3 7.4l-2.6-5.9-2.7 5.9h5.3zM214.1 103.7h1.2l7.3 9.3v-9.3h1.3v11.6h-1l-7.5-9.5v9.5h-1.3v-11.6zM232.7 103.7h4c3.6 0 6.2 2.5 6.2 5.8s-2.5 5.8-6.2 5.8h-4v-11.6zm1.3 1.3v9.2h2.7c2.9 0 4.8-2 4.8-4.6 0-2.6-1.9-4.6-4.8-4.6H234zM246.1 103.7h1.3v11.6h-1.3v-11.6zM251.1 103.7h8.4v1.2h-7.1v4h6.3v1.2h-6.3v4.1h7.2v1.2h-8.5v-11.7zM261.9 109.6c0-3.2 2.3-6 5.8-6 2 0 3.2.6 4.3 1.5l-.8 1c-.9-.8-1.9-1.3-3.5-1.3-2.6 0-4.4 2.2-4.4 4.8 0 2.8 1.8 4.8 4.6 4.8 1.3 0 2.6-.5 3.4-1.2v-2.9h-3.5v-1.2h4.8v4.6c-1.1 1-2.7 1.8-4.7 1.8-3.7.1-6-2.6-6-5.9zM275.2 109.6c0-3.2 2.4-6 5.9-6 3.5 0 5.9 2.8 5.9 6s-2.4 6-5.9 6c-3.5 0-5.9-2.8-5.9-6zm10.5 0c0-2.7-1.9-4.8-4.6-4.8s-4.5 2.1-4.5 4.8c0 2.6 1.9 4.8 4.6 4.8s4.5-2.2 4.5-4.8z"/></g><g id="logo"><path class="st5" d="M45.9 59.7c0 11.6 9.4 20.8 21.8 20.8s21.9-9.3 21.9-20.9v-.1c0-11.6-9.4-20.8-21.8-20.8S45.9 48 45.9 59.6v.1m30.2 0c0 4.7-3.2 8.9-8.3 8.9-5.2 0-8.4-4.3-8.4-9v-.1c0-4.7 3.2-8.9 8.3-8.9 5.1 0 8.4 4.3 8.4 9v.1M239.8 50.6l-6.7 1.6-2.1-8.5 11.6-3.3h8v40h-10.8V50.6zM91.7 40.1h14l8.6 14.1 8.6-14.1h14v40.1h-13.3V60.3l-9.2 14.3h-.4l-9.2-14.3v19.9H91.7V40.1zm84.7 40h14.9c16.2 0 24.3-8.4 24.3-20.3v-.1c0-11.8-8-19.7-23.9-19.7h-15.3v40.1zm13.4-11.7V51.7h2.2c6.1 0 10.1 2.5 10.1 8.3v.1c0 5.8-3.9 8.3-10.1 8.3h-2.2zm-16-17.3v-11h-34.2v40.1h34.2v-11h-23.2v-4.3h19.8v-9.7h-19.8v-4.1h23.2zM252.9 68.6v-.1c0-4.8 2.8-7.8 7.2-9.6-3-1.5-5.8-4.3-5.8-8.6v-.1c0-6.5 6.5-11.1 16-11.1 9.4 0 16 4.6 16 11.1v.1c0 4.4-2.8 7.1-5.8 8.6 4 1.6 7.2 4.5 7.2 9.6v.1c0 6.9-7.1 11.7-17.3 11.7-10.4 0-17.5-4.8-17.5-11.7zm22-1.5V67c0-2.2-1.8-3.9-4.6-3.9s-4.6 1.7-4.6 3.9v.1c0 2 1.5 4 4.6 4 3 0 4.6-2 4.6-4zm-.5-15.2v-.1c0-2-1.6-3.8-4.2-3.8-2.5 0-4.2 1.8-4.2 3.8v.1c0 2.2 1.7 3.9 4.2 3.9s4.2-1.6 4.2-3.9zM221.7 38.6c.5.2 1 .5 1.4.9.4.4.7.9.9 1.4.2.5.3 1.1.3 1.7 0 .6-.1 1.2-.3 1.7-.2.5-.5 1-.9 1.4-.4.4-.9.7-1.4.9-.5.2-1.1.3-1.7.3-.6 0-1.2-.1-1.7-.3-.5-.2-1-.5-1.4-.9-.4-.4-.7-.9-.9-1.4-.2-.5-.3-1.1-.3-1.7 0-.6.1-1.2.3-1.7.2-.5.5-1 .9-1.4.4-.4.9-.7 1.4-.9.5-.2 1.1-.3 1.7-.3.6 0 1.1.1 1.7.3m-3.2.6c-.5.2-.9.5-1.2.8-.3.3-.6.7-.8 1.2-.2.5-.3 1-.3 1.5s.1 1 .3 1.5c.2.5.4.9.8 1.2.3.3.7.6 1.2.8.5.2.9.3 1.5.3.5 0 1-.1 1.5-.3.5-.2.9-.5 1.2-.8.3-.3.6-.7.8-1.2.2-.5.3-1 .3-1.5s-.1-1-.3-1.5c-.2-.5-.5-.9-.8-1.2-.3-.3-.7-.6-1.2-.8-.5-.2-.9-.3-1.5-.3s-1.1.1-1.5.3m-.2 6.1v-5.1h2c.6 0 1 .1 1.3.4.3.2.4.6.4 1 0 .2 0 .4-.1.6-.1.2-.2.3-.3.4-.1.1-.3.2-.4.3-.2.1-.3.1-.5.1l1.5 2.3h-.7L220 43h-1v2.3h-.7zm2.1-2.9c.2 0 .4 0 .5-.1.1-.1.3-.1.3-.3.1-.1.1-.3.1-.5s0-.3-.1-.4l-.3-.3c-.1-.1-.2-.1-.4-.1H219v1.8h.8c.2 0 .4 0 .6-.1"/></g></svg>