<svg data-name="omedLogoFull" xmlns="http://www.w3.org/2000/svg" viewBox="0 0 516.74 212.31"><defs><radialGradient id="a" cx="508.2" cy=".73" r="95.89" gradientUnits="userSpaceOnUse"><stop offset="0" stop-color="#f1f2f2"/><stop offset="1" stop-color="#a7a9ac"/></radialGradient><radialGradient id="b" cx="409.74" cy="112.43" r="64.46" gradientUnits="userSpaceOnUse"><stop offset="0" stop-color="#e6e7e8"/><stop offset="1" stop-color="#8a8c8e"/></radialGradient><linearGradient id="c" x1="383.21" y1="191.17" x2="408.86" y2="153.36" gradientUnits="userSpaceOnUse"><stop offset="0" stop-color="#d53847"/><stop offset="1" stop-color="#831924"/></linearGradient></defs><title>omedLogoFull</title><g data-name="marker"><path d="M497.24 64v-.07-.12c0-32.33-24.66-59-56.62-63.18l-.5-.07h-.31q-1.19-.14-2.39-.24l-.51-.05h-.66L434.4.06h-5l-1.8.09h-.68l-.53.05q-1.18.1-2.34.23H423.45c-29.32 3.72-52.53 26.38-56.3 55h25.35v23.48l-14.18 24.43c1.39 3.05 2.84 6.13 4 8.49 15.83 31.13 39 64.72 46.83 75.89a3.35 3.35 0 0 0 5.48 0c7.88-11.17 31-44.76 46.85-75.89 3.61-7.09 9.4-20.6 9.4-20.6s5.3-13.7 6-21.24a37.24 37.24 0 0 0 .32-4.65v-1.07-.32zM431.9 87a23.29 23.29 0 1 1 23.29-23.29A23.29 23.29 0 0 1 431.9 87z" fill="url(#a)"/><path d="M431.9 33.22a30.54 30.54 0 1 0 30.53 30.54 30.57 30.57 0 0 0-30.53-30.54zm0 53.83a23.29 23.29 0 1 1 23.29-23.29A23.29 23.29 0 0 1 431.9 87z" fill="url(#b)"/><path d="M451.12 173.67a1087.7 1087.7 0 0 1-6 8.87c18.2.93 31.42 3.73 31.42 7 0 4.07-20 7.36-44.63 7.36s-44.63-3.3-44.63-7.36c0-3.7 16.54-6.76 38.08-7.28-1.76-2.55-3.81-5.55-6.08-8.92-40.87 1.41-72.21 9.54-72.21 19.36 0 10.81 38 19.58 84.84 19.58s84.84-8.76 84.84-19.58c-.01-9.25-28.04-17.02-65.63-19.03z" fill="#d53847"/><path d="M387.27 189.58c0-3.7 16.54-6.76 38.08-7.28-1.76-2.55-3.81-5.55-6.08-8.92-40.87 1.41-72.21 9.54-72.21 19.36 0 6 11.89 11.45 30.57 15L397 194.16c-6.08-1.26-9.73-2.85-9.73-4.58z" fill="url(#c)"/></g><g data-name="tagline" fill="#8a8c8e"><path d="M19.23 158.09l-11-15.53h2.37l9.62 13.8 9.66-13.8h2.28l-11 15.49v10.21h-1.93zM31.06 159v-.07a9.67 9.67 0 0 1 9.66-9.8 9.57 9.57 0 0 1 9.58 9.73v.07a9.67 9.67 0 0 1-9.66 9.8 9.57 9.57 0 0 1-9.58-9.73zm17.29 0v-.07a7.85 7.85 0 0 0-7.71-8.11 7.72 7.72 0 0 0-7.64 8v.07a7.85 7.85 0 0 0 7.71 8.11 7.72 7.72 0 0 0 7.64-8zM55.47 161v-11.46h1.8v11.12c0 3.85 2.17 6.39 5.95 6.39a6.42 6.42 0 0 0 6.5-6.68v-10.83h1.8v18.72h-1.8v-3.49A7.33 7.33 0 0 1 63 168.7c-4.77 0-7.53-3.23-7.53-7.7zM91.16 164.22v4h-1.8v-26.8h1.8v12.26c1.62-2.46 4-4.63 7.71-4.63 4.52 0 9.1 3.63 9.1 9.73v.07c0 6.09-4.59 9.8-9.1 9.8a9 9 0 0 1-7.71-4.43zM106 159v-.07c0-4.92-3.41-8.08-7.34-8.08a7.84 7.84 0 0 0-7.64 8v.07a7.82 7.82 0 0 0 7.64 8c4.1.08 7.34-2.92 7.34-7.92zM112.31 158.94v-.07c0-5.43 3.82-9.77 8.88-9.77 5.25 0 8.59 4.26 8.59 9.8a4.62 4.62 0 0 1 0 .73h-15.56c.33 4.66 3.67 7.38 7.34 7.38a8.41 8.41 0 0 0 6.42-2.94l1.25 1.1a9.84 9.84 0 0 1-7.75 3.52c-4.91.01-9.17-3.92-9.17-9.75zm15.53-.92c-.26-3.78-2.42-7.27-6.72-7.27-3.71 0-6.57 3.12-6.9 7.27zM135.41 141.46h1.8v26.8h-1.8zM142.86 159v-.07a9.67 9.67 0 0 1 9.66-9.8 9.57 9.57 0 0 1 9.58 9.73v.07a9.67 9.67 0 0 1-9.66 9.8 9.57 9.57 0 0 1-9.58-9.73zm17.29 0v-.07a7.85 7.85 0 0 0-7.71-8.11 7.73 7.73 0 0 0-7.64 8v.07a7.85 7.85 0 0 0 7.71 8.11 7.73 7.73 0 0 0 7.64-8zM167.54 149.54h1.8V153a7.33 7.33 0 0 1 6.76-3.93c4.74 0 7.49 3.23 7.49 7.71v11.45h-1.8v-11.09c0-3.85-2.17-6.39-5.95-6.39a6.42 6.42 0 0 0-6.5 6.68v10.83h-1.8zM189.68 171.35l1.07-1.47a12.23 12.23 0 0 0 7.56 2.64c4.29 0 7.34-2.46 7.34-7.27v-2.72a9.31 9.31 0 0 1-7.82 4.33 8.87 8.87 0 0 1-9-8.81V158a8.91 8.91 0 0 1 9-8.88 9.31 9.31 0 0 1 7.82 4.19v-3.75h1.8v15.82a8.67 8.67 0 0 1-2.39 6.35 9.48 9.48 0 0 1-6.79 2.5 14.14 14.14 0 0 1-8.59-2.88zM205.76 158v-.07c0-4.33-3.85-7.12-7.75-7.12a6.92 6.92 0 0 0-7.23 7.09v.1a7.11 7.11 0 0 0 7.23 7.16c3.89-.02 7.75-2.88 7.75-7.16zM213.51 165.14h2.42v3.12h-2.42zM230.1 142.56h1.9v11.9h16.45v-11.9h1.91v25.7h-1.91v-12H232v12h-1.9zM256.32 158.94v-.07c0-5.43 3.82-9.77 8.89-9.77 5.25 0 8.59 4.26 8.59 9.8a4.62 4.62 0 0 1 0 .73h-15.57c.33 4.66 3.67 7.38 7.34 7.38a8.41 8.41 0 0 0 6.42-2.94l1.25 1.1a9.84 9.84 0 0 1-7.75 3.52c-4.91.01-9.17-3.92-9.17-9.75zm15.53-.92c-.26-3.78-2.42-7.27-6.72-7.27-3.71 0-6.57 3.12-6.9 7.27zM279.05 149.54h1.8v5.32a8.85 8.85 0 0 1 8.3-5.62v2H289c-4.33 0-8.11 3.27-8.11 9.36v7.67h-1.8zM291.64 158.94v-.07c0-5.43 3.82-9.77 8.88-9.77 5.25 0 8.59 4.26 8.59 9.8a4.62 4.62 0 0 1 0 .73h-15.56c.33 4.66 3.67 7.38 7.34 7.38a8.41 8.41 0 0 0 6.42-2.94l1.25 1.1a9.84 9.84 0 0 1-7.75 3.52c-4.91.01-9.17-3.92-9.17-9.75zm15.53-.92c-.26-3.78-2.42-7.27-6.72-7.27-3.71 0-6.57 3.12-6.9 7.27zM313.49 165.14h2.42v3.12h-2.42z"/></g><g data-name="logo"><path d="M306.51 79.6L296 81.9 292.14 66l19.24-5.25h16.3v64.93h-21.17zM363.35 79H334V61.18h52.86v16.21l-28 48.26h-23.41zM74 61.35h22.5l13.86 22.72 13.85-22.72h22.54V126h-21.53V94l-14.87 23H110L95.11 94v32H74zM210.77 126h24c26.14 0 39.26-13.58 39.26-32.7v-.19c0-19.12-12.84-31.78-38.52-31.78h-24.74zm21.61-18.84v-27H236c9.88 0 16.26 4.07 16.26 13.4v.19c0 9.33-6.37 13.39-16.26 13.39zm-25.87-28.07V61.35h-55.15V126h55.15v-17.72H169.1v-7H201V85.65h-31.9v-6.56zm74-17.27a6 6 0 0 0-4.46 0 5.42 5.42 0 0 0-1.79 1.2 5.6 5.6 0 0 0-1.19 1.8 5.93 5.93 0 0 0 0 4.44 5.5 5.5 0 0 0 3 3 6 6 0 0 0 4.46 0 5.54 5.54 0 0 0 1.79-1.26 5.46 5.46 0 0 0 1.19-1.78 5.76 5.76 0 0 0-1.19-6.22 5.47 5.47 0 0 0-1.79-1.2m-4.13.75a4.78 4.78 0 0 1 5.3 1 4.75 4.75 0 0 1 1 1.53 5.13 5.13 0 0 1 0 3.8 4.77 4.77 0 0 1-1 1.53 4.73 4.73 0 0 1-3.4 1.41 4.69 4.69 0 0 1-1.9-.38 4.63 4.63 0 0 1-2.51-2.56 5.19 5.19 0 0 1 0-3.8 4.66 4.66 0 0 1 2.51-2.56m.66 7.73v-2.9h1.35l1.84 2.9h.94l-1.94-2.9a2.86 2.86 0 0 0 .63-.19 1.67 1.67 0 0 0 .52-.35 1.54 1.54 0 0 0 .36-.54 2 2 0 0 0 .13-.74 1.71 1.71 0 0 0-.51-1.34 2.33 2.33 0 0 0-1.61-.47h-2.5v6.53zm1.78-3.6h-1.78v-2.2h1.47a3.79 3.79 0 0 1 .58 0 1.47 1.47 0 0 1 .49.18 1 1 0 0 1 .35.34 1.07 1.07 0 0 1 .13.56 1.11 1.11 0 0 1-.17.65.94.94 0 0 1-.44.34 2 2 0 0 1-.63.13" fill="#6d6e71"/><path d="M0 93c0 18.75 15.24 33.53 35.19 33.53s35.38-15 35.38-33.71v-.19c0-18.75-15.24-33.52-35.19-33.52S0 74.1 0 92.85V93m48.77 0c0 7.57-5.17 14.41-13.39 14.41S21.8 100.52 21.8 92.85v-.19c0-7.57 5.17-14.4 13.39-14.4s13.58 6.92 13.58 14.59V93" fill="#d53847"/></g></svg>