<svg id="omed2018LogoTagline" xmlns="http://www.w3.org/2000/svg" viewBox="0 0 241.8 78.7"><style>.st0{fill:#414042}.st1{fill:#bcbec0}.st2{fill:#1e22aa}</style><g id="tagline"><path class="st0" d="M0 71c-.1-3.1 2.4-5.8 5.6-5.8h.2c3.1 0 5.7 2.5 5.7 5.6v.2c.1 3.1-2.5 5.7-5.6 5.8h-.2c-3.1 0-5.7-2.4-5.7-5.6V71zm10.1 0c.1-2.5-1.8-4.5-4.3-4.6h-.1c-2.4 0-4.4 2-4.4 4.4v.2c-.1 2.5 1.8 4.5 4.3 4.6h.1c2.4 0 4.4-2 4.4-4.4.1-.1.1-.1 0-.2zM13.9 71c-.1-3.1 2.4-5.7 5.5-5.8h.2c1.7 0 3.3.6 4.4 1.8l-.9.9c-.9-1-2.2-1.5-3.5-1.5-2.4 0-4.4 2-4.4 4.5v.2c-.1 2.4 1.8 4.5 4.2 4.6h.1c1.4 0 2.7-.6 3.6-1.6l.8.8c-1.1 1.3-2.8 2-4.5 2-3.1 0-5.6-2.5-5.7-5.6.2-.1.2-.2.2-.3zM29.5 66.5h-3.8v-1.2h8.8v1.2h-3.8v10.1h-1.3V66.5zM35.9 71c-.1-3.2 2.3-5.8 5.5-6 3.2-.1 5.8 2.3 6 5.5v.5c.1 3.2-2.3 5.8-5.5 6-3.2.1-5.8-2.3-6-5.5V71zm10.2 0c.1-2.5-1.8-4.5-4.3-4.6h-.1c-2.4 0-4.4 2-4.4 4.4v.2c-.1 2.5 1.8 4.5 4.3 4.6h.1c2.4 0 4.4-2 4.4-4.4V71zM50.3 65.4h4.8c1.1-.1 2.1.3 2.9 1 .5.5.7 1.1.7 1.8 0 1.2-.7 2.2-1.8 2.6 1.3.4 2.4 1.2 2.4 2.7 0 1.9-1.6 3.1-4.1 3.1h-5V65.4zm7.2 3c0-1.1-.9-1.8-2.5-1.8h-3.4v3.9h3.3c1.5-.1 2.6-.8 2.6-2.1zm-2.4 3.1h-3.5v4h3.8c1.7 0 2.8-.8 2.8-2-.1-1.3-1.1-2-3.1-2zM62.2 65.4h8.1v1.2h-6.9v3.8h6.1v1.2h-6.1v3.9h6.9v1.2h-8.2V65.4zM73.2 65.4H78c1.2-.1 2.3.3 3.2 1.1.6.6.9 1.4.9 2.2 0 1.7-1.3 3.2-3.1 3.3l3.4 4.6h-1.6l-3.3-4.4h-3.2v4.4H73V65.4zm4.7 5.7c1.7 0 2.9-.9 2.9-2.3s-1.1-2.2-2.9-2.2h-3.4v4.5h3.4zM91 75.7c-.9-.9-1.4-2.1-1.4-4.3 0-3.4 1.7-6.1 4.7-6.1 1.2 0 2.4.5 3.3 1.3l-.7 1c-.7-.7-1.7-1.1-2.7-1.1-2.2 0-3.3 2.3-3.3 4.8v.2c.7-1.1 1.9-1.8 3.2-1.7 2-.1 3.7 1.4 3.8 3.3 0 2.1-1.8 3.8-3.9 3.7h-.1c-1.1 0-2.1-.4-2.9-1.1zm5.7-2.6c0-1.4-1.2-2.5-2.5-2.5H94c-1.5-.1-2.7 1-2.8 2.5 0 1.4 1.2 2.6 2.7 2.6h.1c1.4.1 2.6-.9 2.7-2.4-.1 0 0-.1 0-.2zM100.3 71.2h6.4v1.2h-6.4v-1.2zM110.4 66.6l-2.1.7-.3-1 2.8-.9h.9v11.3h-1.2V66.6zM114.5 71c0-3.2 1.9-5.8 4.8-5.8s4.7 2.6 4.7 5.8c0 3.2-1.9 5.8-4.8 5.8s-4.7-2.6-4.7-5.8zm8.2 0c0-2.5-1.3-4.7-3.4-4.7s-3.4 2.2-3.4 4.6c0 2.5 1.3 4.7 3.4 4.7s3.4-2.1 3.4-4.6z"/><path class="st1" d="M134.5 63.8h1v14.9h-1V63.8z"/><path class="st0" d="M145.5 75l.8-.9c1 1 2.4 1.6 3.9 1.6s2.5-.8 2.5-1.9c0-1-.6-1.6-2.9-2.1-2.6-.6-3.8-1.4-3.8-3.2 0-1.8 1.6-3.1 3.7-3.1 1.5-.1 2.9.4 4 1.4l-.7 1c-.9-.8-2.1-1.2-3.2-1.2-1.5 0-2.4.8-2.4 1.8 0 1.1.6 1.7 3.1 2.2s3.7 1.5 3.7 3.2c0 1.9-1.6 3.2-3.8 3.2-1.9-.2-3.6-.8-4.9-2zM160.7 65.3h1.2l5.1 11.3h-1.4l-1.3-3h-6.1l-1.3 3h-1.3l5.1-11.3zm3.2 7.2l-2.6-5.7-2.6 5.7h5.2zM169.5 65.4h1.2l7.1 9v-9h1.2v11.2h-1l-7.3-9.2v9.2h-1.2V65.4zM187.6 65.4h3.9c3.5 0 6 2.4 6 5.6 0 3.1-2.5 5.6-5.6 5.6h-4.3V65.4zm1.2 1.1v8.9h2.6c2.4.2 4.5-1.6 4.6-4V71c0-2.4-1.9-4.4-4.3-4.5h-2.9zM200.5 65.4h1.3v11.2h-1.3V65.4zM205.3 65.4h8.1v1.2h-6.9v3.8h6.1v1.2h-6.1v3.9h6.9v1.2h-8.2V65.4zM215.8 71c-.1-3.1 2.3-5.7 5.5-5.8h.2c1.5-.1 3 .5 4.2 1.5l-.8 1c-.9-.9-2.2-1.3-3.4-1.3-2.4.1-4.3 2.1-4.3 4.5v.1c-.2 2.4 1.6 4.5 4 4.7h.4c1.2 0 2.3-.4 3.2-1.1v-2.8h-3.4v-1.2h4.6v4.5c-1.2 1.1-2.9 1.7-4.5 1.7-3 .1-5.6-2.3-5.7-5.3V71zM228.7 71c-.1-3.2 2.3-5.8 5.5-6 3.2-.1 5.8 2.3 6 5.5v.5c.1 3.2-2.3 5.8-5.5 6-3.2.1-5.8-2.3-6-5.5V71zm10.1 0c.1-2.5-1.8-4.5-4.3-4.6h-.1c-2.4 0-4.4 2-4.4 4.4v.2c-.1 2.5 1.8 4.5 4.3 4.6h.1c2.4 0 4.4-2 4.4-4.4V71z"/></g><g id="logo"><path class="st2" d="M0 21.4C0 33 9.5 42.2 21.8 42.2s21.9-9.3 21.9-20.9v-.1C43.8 9.6 34.3.4 22 .4S0 9.7 0 21.3v.1m30.3 0c0 4.7-3.2 8.9-8.3 8.9s-8.4-4.3-8.4-9v-.1c0-4.7 3.2-8.9 8.3-8.9s8.4 4.3 8.4 9v.1M194 12.3l-6.7 1.6-2.1-8.5 11.6-3.3h8V42H194V12.3zM45.9 1.8h14l8.5 14.1L77 1.8h13.9v40.1H77.6V22l-9.2 14.2h-.2L59 22v19.8H45.9v-40zm84.8 40h14.9c16.2 0 24.3-8.4 24.3-20.3v-.1c0-11.9-8-19.7-23.9-19.7h-15.4l.1 40.1zM144 30.1V13.4h2.2c6.1 0 10.1 2.5 10.1 8.3v.1c0 5.8-3.9 8.3-10.1 8.3H144zm-16-17.3v-11H93.8v40.1H128v-11h-23.2v-4.3h19.8v-9.7h-19.8v-4.1H128zM207.1 30.3v-.1c0-4.8 2.8-7.8 7.2-9.6-3-1.5-5.8-4.3-5.8-8.6v-.1c0-6.5 6.5-11.1 16-11.1s16 4.6 16 11.1v.1c0 4.4-2.8 7.1-5.8 8.6 4 1.6 7.2 4.5 7.2 9.6v.1c0 6.9-7.1 11.7-17.4 11.7s-17.4-4.8-17.4-11.7zm22-1.5v-.1c0-2.2-1.8-3.9-4.6-3.9s-4.6 1.7-4.6 3.9v.1c0 2 1.5 4 4.6 4s4.6-2 4.6-4zm-.4-15.2v-.1c-.2-2.3-2.3-4-4.6-3.7-2 .2-3.5 1.8-3.7 3.7v.1c.2 2.3 2.1 4 4.4 3.9 2.1-.1 3.7-1.8 3.9-3.9zM175.9.3c.5.2 1 .5 1.4.9.8.8 1.3 2 1.3 3.1 0 .6-.1 1.2-.3 1.7-.2.5-.5 1-.9 1.4-.4.4-.9.7-1.4.9-1.1.4-2.4.4-3.5 0S170.6 7 170.2 6c-.2-.6-.3-1.1-.3-1.7 0-.6.1-1.2.3-1.7.2-.5.5-1 .9-1.4.4-.4.9-.7 1.4-.9 1-.4 2.3-.4 3.4 0m-3.2.6c-.9.4-1.6 1.1-2 2-.2.5-.3 1-.3 1.5s.1 1 .3 1.5c.8 1.9 3 2.8 4.9 2 .5-.2.9-.5 1.2-.8.3-.3.6-.8.8-1.2.2-.5.3-1 .3-1.5s-.1-1-.3-1.5c-.2-.4-.5-.9-.8-1.2-1.1-1.1-2.7-1.4-4.1-.8m-.2 6v-5h2c.5 0 .9.1 1.3.4.3.3.4.6.4 1 0 .2 0 .4-.1.6-.1.2-.2.3-.3.4-.1.1-.3.2-.4.3-.2.1-.3.1-.5.2l1.5 2.4h-.7l-1.4-2.3h-1.1V7l-.7-.1zm2-2.8c.2 0 .3 0 .5-.1.1 0 .3-.1.4-.3.1-.2.1-.3.1-.5s0-.3-.1-.4l-.3-.3c-.1-.1-.3-.1-.4-.1h-1.5v1.8h.8l.5-.1"/></g></svg>