<svg xmlns="http://www.w3.org/2000/svg"><defs><radialGradient id="omedLogoFull-a" cx="508.2" cy=".73" r="95.89" gradientUnits="userSpaceOnUse"><stop offset="0" stop-color="#f1f2f2"/><stop offset="1" stop-color="#a7a9ac"/></radialGradient><radialGradient id="omedLogoFull-b" cx="409.74" cy="112.43" r="64.46" gradientUnits="userSpaceOnUse"><stop offset="0" stop-color="#e6e7e8"/><stop offset="1" stop-color="#8a8c8e"/></radialGradient><linearGradient id="omedLogoFull-c" x1="383.21" y1="191.17" x2="408.86" y2="153.36" gradientUnits="userSpaceOnUse"><stop offset="0" stop-color="#d53847"/><stop offset="1" stop-color="#831924"/></linearGradient></defs><symbol viewBox="0 0 194.08 92.08" id="aoaLogo"><title>aoaLogo</title><path d="M109.29 80.78c3.18-1.43 6.54-2.8 9.78-5.35 6.88-5.43 11.84-14.32 13.7-21.43a37.09 37.09 0 0 0 .69-13.51A42.17 42.17 0 0 0 128.72 26a39.62 39.62 0 0 0-10-11.46c-5.24-3.78-10.66-5.23-11.45-5.9-1.39-1.19 4.73-2.86 15.87 5.09a40.19 40.19 0 0 1 11.89 14 44.7 44.7 0 0 1 4.06 12.12l12.94-30.3 2.37 6.79-17.12 42a52.73 52.73 0 0 1-6.79 11.33c-3.67 4.61-8.47 9-12.87 11-9.88 4.46-10.62 1.13-8.33.11zM49.83 40.73c-4.76-11.51-6.61-14.82-10.2-24.38l2.52-6.27L55 41s1.6-11.57 8.87-19.81a67.82 67.82 0 0 1 8.6-8.05c3.85-2.88 12.31-6.63 12.9-4.85.42 1.26-3.66 2.1-8.46 5.13a34.65 34.65 0 0 0-5.35 4.43 39.92 39.92 0 0 0-8.1 11.35c-1.57 3.38-2.35 7.59-3.06 11.48-1.27 6.93.72 14.07 1.88 17.61C65 66.52 74 75 74.85 75.59c5.77 4.41 11.94 5.21 10.34 7.09-1.3 1.52-19.81-5.95-26.71-21.5-4.09-9.18-7.36-17.32-8.65-20.45z" fill="#fff"/><path fill="#1c446c" d="M102.94 85.78zM104.73 85.82a9.18 9.18 0 0 0 1.35-.21 48.42 48.42 0 0 0 6.07-1.46c1.14-.36 2.26-.75 3.32-1.18a41.54 41.54 0 0 0 9.65-5.42 40.91 40.91 0 0 0 6.07-5.65 42.06 42.06 0 0 0 3.51-4.63 42.57 42.57 0 0 0 3.38-6.3h32.64l.52 1.32c2.3 5.81 5.72 14.49 6.78 20l-11.42 1.8-.43.07v2.21h27.91v-2.16l-.4-.09-8.34-1.85a106.59 106.59 0 0 1-6.46-13.49L153.7 4.7h-5.34L138 29.55c-6.79-15.62-22.19-25.29-40.53-25.29h-.86c-18.35 0-33.75 9.67-40.54 25.29L45.72 4.7h-5.34L15.19 68.79a106.57 106.57 0 0 1-6.45 13.49L.4 84.13l-.4.09v2.18h27.91v-2.22l-.43-.07-11.42-1.8c1.06-5.54 4.48-14.22 6.78-20l.52-1.31H56a42.35 42.35 0 0 0 3.38 6.3 41.58 41.58 0 0 0 3.51 4.63A40.8 40.8 0 0 0 69 77.55 41.57 41.57 0 0 0 78.61 83c1.06.42 2.17.82 3.32 1.18A48.4 48.4 0 0 0 88 85.61c1 .18 2.1.33 3.24.46l.49.05a33.37 33.37 0 0 0 6.51.2l-3-4.45-.62-.05A30 30 0 0 1 70.49 65.3a35.8 35.8 0 0 1-1.82-4.19 46.74 46.74 0 0 1-2.57-15.87c0-10.84 3.13-20.08 9-26.72a28.86 28.86 0 0 1 21.3-9.74h1.27a28.86 28.86 0 0 1 21.26 9.74c5.92 6.64 9 15.88 9 26.72a46.64 46.64 0 0 1-2.57 15.87 35.16 35.16 0 0 1-1.82 4.19 30 30 0 0 1-23.5 16.46 7.66 7.66 0 0 1 4.69 4.06zM39.84 56.74a125.45 125.45 0 0 1-14.55-.68l1.23-3.14c3.09-8 8.74-22.52 12.86-30.82l14.42 34a129.7 129.7 0 0 1-13.96.64zM83.73 9.31a36.76 36.76 0 0 0-13.13 8.43 38.49 38.49 0 0 0-10.88 22.69 42.38 42.38 0 0 0-.37 5.36 38.51 38.51 0 0 0 16.53 31.35 37.33 37.33 0 0 0 8.47 4.34c.23.14.43.33.37.56s-.55.21-1 .1l-.72-.25a40 40 0 0 1-5.41-2.26 40.85 40.85 0 0 1-19.1-20.52l-4.92-11.8L40.46 16l1.6-4.09 11.57 27.77L55.41 44l.32-.06a36.59 36.59 0 0 1 1.72-9.6 40.46 40.46 0 0 1 14-19.57 39.93 39.93 0 0 1 12.36-6.41c.42-.1.85-.13.91.12.12.52-.99.83-.99.83zm51.92 49.81a40.88 40.88 0 0 1-19.1 20.52 39.86 39.86 0 0 1-6.25 2.53c-.43.1-.87.14-.93-.11s.15-.43.39-.57a37.37 37.37 0 0 0 8.44-4.33 38.51 38.51 0 0 0 16.53-31.35 42.82 42.82 0 0 0-.37-5.36 38.51 38.51 0 0 0-10.88-22.69 36.73 36.73 0 0 0-13.17-8.46h.05s-1.12-.32-1-.83c.06-.24.46-.22.87-.13a39.9 39.9 0 0 1 12.37 6.39 40.45 40.45 0 0 1 14 19.57 36.57 36.57 0 0 1 1.72 9.6l.32.06 1.78-4.28L152 11.91l1.6 4.09-13 31.31zm18.59-2.37a129.66 129.66 0 0 1-14-.63l14.42-34c4.12 8.3 9.77 22.85 12.86 30.82l1.23 3.15a125.44 125.44 0 0 1-14.52.65z"/><path d="M79.83 27.34c3.12 0 5.61 1.91 5.61 5.09 0 4.62-3.42 5.7-6.42 5.7H73.4v-.59c.75 0 1.26-.16 1.33-.38a2.14 2.14 0 0 0 .06-.67V29a2.21 2.21 0 0 0-.06-.68c-.06-.21-.58-.35-1.33-.38v-.58zM78 35.9c0 1.34 0 1.25.71 1.25 1.8 0 3.44-.85 3.44-4.73 0-2.93-1.31-4.13-3.87-4.13H78zM110.06 32.36a5.74 5.74 0 0 1 6-5.46 5.33 5.33 0 0 1 5.44 5.39 5.8 5.8 0 0 1-6 5.76 5.33 5.33 0 0 1-5.44-5.69zm8.08.27c0-3.48-1.37-4.71-2.65-4.71-1 0-2.08.64-2.08 4s1.09 5.13 2.45 5.13c.95 0 2.28-.28 2.28-4.43z" fill="#1c446c"/><path d="M102.21 91.88a6.46 6.46 0 0 0 .52-2.62 6 6 0 0 0-.38-2.15 7 7 0 0 0-4.15-3.89l-1.14-.41a4.83 4.83 0 0 1-1.14-.5 4.27 4.27 0 0 1-2.2-3.4v-.79a20.64 20.64 0 0 1 .77-5.22.53.53 0 0 0-.41-.23c-.35 0-1.31.16-2.69 2.45-.78 1.29-2.48 4.62-1.34 7.69.73 2 2.5 3.42 5.27 4.33l1.34.45 1.64.71c2.77 1.4 3.07 3.43 3.07 3.43s.3.68.84.15z" fill="#1c446c" style="isolation:isolate"/><path d="M104.45 69.21c-.62-1.83-2.48-3.22-5.5-4.12l-1.74-.45a11.11 11.11 0 0 1-2.34-.73 3.51 3.51 0 0 1-2.26-3.18v-.46a24.18 24.18 0 0 1 .91-5.64c-.06-.22-.15-.26-.19-.27-.57-.12-2 1-3.07 2.58-1.35 2-2.42 5.08-1.37 7.65.87 2.15 3.05 3.61 6.5 4.34h.24c.18 2.65.74 10.86.75 11.08l.09.06.48.27.38.17.29.08.5.17c0-.55.46-8.52.58-10.78l.31.16c1.38.76 2.08 1.69 2.08 2.75a2.46 2.46 0 0 1 0 .36c-.23 1.59-.94 5-1.19 5.9 0 .11.05.19.06.2.42 0 1.76-1.92 2.41-2.83 1.58-2.2 2.37-4.17 2.37-5.85a4.57 4.57 0 0 0-.29-1.46z" fill="#1c446c" style="isolation:isolate"/><path d="M105.53 50.24c-.75-1.93-2.73-3.31-5.89-4.1a19 19 0 0 0-2.41-.44 20.5 20.5 0 0 1-3.42-.93c-1.54-.64-2.31-1.56-2.37-2.79v-.46a23.61 23.61 0 0 1 .92-5.63c-.06-.24-.16-.27-.2-.28-.56-.11-2 1-3.07 2.59a10.25 10.25 0 0 0-1.9 5.34 5.41 5.41 0 0 0 .35 1.95c.83 2.15 3.15 3.72 6.89 4.67h.08c.17 2.48.7 10.27.71 10.53a11 11 0 0 0 1.12.44l.69.19h.19l.61.12.91.21c0-.5.39-8.16.5-10.45l.39.15a3.18 3.18 0 0 1 2.22 2.93v.29a18.61 18.61 0 0 1-1.24 5.81c.06.22.14.26.17.27.44.08 1.73-.79 2.92-2.59a11.92 11.92 0 0 0 2.15-6 5.26 5.26 0 0 0-.32-1.82z" fill="#1c446c" style="isolation:isolate"/><path d="M114.22 22.69a18.14 18.14 0 0 0-2.44-5 8.91 8.91 0 0 0-3-2.81 13.43 13.43 0 0 0-5.26-1.14h-.22l-.08-.07c-2.61-2.42-7.2-3.5-11.16-2.63-4.81 1.05-7.55 4.57-7.55 9.66v.16c.08 6.63 4.51 8.6 8.82 9.64h.08c.17 2.56.73 10.74.75 11a15.61 15.61 0 0 0 1.61.6l1 .25.68.12a20.43 20.43 0 0 1 2.1.4c0-.54.25-8.52.31-10.87l.49.2a3.11 3.11 0 0 1 2.23 2.72v.33a19.27 19.27 0 0 1-1.25 5.75c.06.19.14.24.19.25.56.11 2-1 3.07-2.58s2.54-4.46 1.59-7.16c-.71-2-2.69-3.52-5.87-4.5a24.7 24.7 0 0 0-3.41-.79 12.22 12.22 0 0 1-4.26-1.44A4.84 4.84 0 0 1 90 20.52a4.58 4.58 0 0 1 2.14-4 4.93 4.93 0 0 1 .48-.26c.12 1.4.42 5.1.44 5.33a11 11 0 0 0 2.06.93l1.33.35.36.08a30.27 30.27 0 0 1 3.38.72c0-.56.26-4.77.27-4.88a1.68 1.68 0 0 0-.13-.75l-.15-.28.11.08.74.85a13.88 13.88 0 0 1 1.13 1.73 6.35 6.35 0 0 0 .7 1.06c2.57 2.43 6.51 2.24 11 1.75a.88.88 0 0 0 .33-.52.23.23 0 0 0 .03-.02zM96.27 8.66a20.05 20.05 0 0 1 4.47.3l.26-6.08C101 .64 98.27.12 96.64 0c-1.92-.12-3.26.27-4 1.16A3.16 3.16 0 0 0 92 3.24s.24 5.3.27 5.89a34.13 34.13 0 0 1 4-.47z" fill="#1c446c" style="isolation:isolate"/><path d="M174.1 22.41a8.77 8.77 0 1 1 8.78-8.78 8.78 8.78 0 0 1-8.78 8.78zm0-15.91a7.14 7.14 0 1 0 7 7.13 7.09 7.09 0 0 0-7-7.12zm4.44 11.76h-2.08l-1.75-3.37h-2.35v3.35h-1.82V8.59h4.63a3 3 0 0 1 3.32 3.15 3 3 0 0 1-2 2.93zm-3.35-5a1.38 1.38 0 0 0 1.5-1.48c0-1.09-.58-1.48-1.5-1.48h-2.84v3z" fill="#1c446c"/></symbol><symbol viewBox="0 0 516.74 212.31" id="omedLogoFull"><title>omedLogoFull</title><g data-name="marker"><path d="M497.24 64v-.07-.12c0-32.33-24.66-59-56.62-63.18l-.5-.07h-.31q-1.19-.14-2.39-.24l-.51-.05h-.66L434.4.06h-5l-1.8.09h-.68l-.53.05q-1.18.1-2.34.23H423.45c-29.32 3.72-52.53 26.38-56.3 55h25.35v23.48l-14.18 24.43c1.39 3.05 2.84 6.13 4 8.49 15.83 31.13 39 64.72 46.83 75.89a3.35 3.35 0 0 0 5.48 0c7.88-11.17 31-44.76 46.85-75.89 3.61-7.09 9.4-20.6 9.4-20.6s5.3-13.7 6-21.24a37.24 37.24 0 0 0 .32-4.65v-1.07-.32zM431.9 87a23.29 23.29 0 1 1 23.29-23.29A23.29 23.29 0 0 1 431.9 87z" fill="url(#omedLogoFull-a)"/><path d="M431.9 33.22a30.54 30.54 0 1 0 30.53 30.54 30.57 30.57 0 0 0-30.53-30.54zm0 53.83a23.29 23.29 0 1 1 23.29-23.29A23.29 23.29 0 0 1 431.9 87z" fill="url(#omedLogoFull-b)"/><path d="M451.12 173.67a1087.7 1087.7 0 0 1-6 8.87c18.2.93 31.42 3.73 31.42 7 0 4.07-20 7.36-44.63 7.36s-44.63-3.3-44.63-7.36c0-3.7 16.54-6.76 38.08-7.28-1.76-2.55-3.81-5.55-6.08-8.92-40.87 1.41-72.21 9.54-72.21 19.36 0 10.81 38 19.58 84.84 19.58s84.84-8.76 84.84-19.58c-.01-9.25-28.04-17.02-65.63-19.03z" fill="#d53847"/><path d="M387.27 189.58c0-3.7 16.54-6.76 38.08-7.28-1.76-2.55-3.81-5.55-6.08-8.92-40.87 1.41-72.21 9.54-72.21 19.36 0 6 11.89 11.45 30.57 15L397 194.16c-6.08-1.26-9.73-2.85-9.73-4.58z" fill="url(#omedLogoFull-c)"/></g><g data-name="tagline" fill="#8a8c8e"><path d="M19.23 158.09l-11-15.53h2.37l9.62 13.8 9.66-13.8h2.28l-11 15.49v10.21h-1.93zM31.06 159v-.07a9.67 9.67 0 0 1 9.66-9.8 9.57 9.57 0 0 1 9.58 9.73v.07a9.67 9.67 0 0 1-9.66 9.8 9.57 9.57 0 0 1-9.58-9.73zm17.29 0v-.07a7.85 7.85 0 0 0-7.71-8.11 7.72 7.72 0 0 0-7.64 8v.07a7.85 7.85 0 0 0 7.71 8.11 7.72 7.72 0 0 0 7.64-8zM55.47 161v-11.46h1.8v11.12c0 3.85 2.17 6.39 5.95 6.39a6.42 6.42 0 0 0 6.5-6.68v-10.83h1.8v18.72h-1.8v-3.49A7.33 7.33 0 0 1 63 168.7c-4.77 0-7.53-3.23-7.53-7.7zM91.16 164.22v4h-1.8v-26.8h1.8v12.26c1.62-2.46 4-4.63 7.71-4.63 4.52 0 9.1 3.63 9.1 9.73v.07c0 6.09-4.59 9.8-9.1 9.8a9 9 0 0 1-7.71-4.43zM106 159v-.07c0-4.92-3.41-8.08-7.34-8.08a7.84 7.84 0 0 0-7.64 8v.07a7.82 7.82 0 0 0 7.64 8c4.1.08 7.34-2.92 7.34-7.92zM112.31 158.94v-.07c0-5.43 3.82-9.77 8.88-9.77 5.25 0 8.59 4.26 8.59 9.8a4.62 4.62 0 0 1 0 .73h-15.56c.33 4.66 3.67 7.38 7.34 7.38a8.41 8.41 0 0 0 6.42-2.94l1.25 1.1a9.84 9.84 0 0 1-7.75 3.52c-4.91.01-9.17-3.92-9.17-9.75zm15.53-.92c-.26-3.78-2.42-7.27-6.72-7.27-3.71 0-6.57 3.12-6.9 7.27zM135.41 141.46h1.8v26.8h-1.8zM142.86 159v-.07a9.67 9.67 0 0 1 9.66-9.8 9.57 9.57 0 0 1 9.58 9.73v.07a9.67 9.67 0 0 1-9.66 9.8 9.57 9.57 0 0 1-9.58-9.73zm17.29 0v-.07a7.85 7.85 0 0 0-7.71-8.11 7.73 7.73 0 0 0-7.64 8v.07a7.85 7.85 0 0 0 7.71 8.11 7.73 7.73 0 0 0 7.64-8zM167.54 149.54h1.8V153a7.33 7.33 0 0 1 6.76-3.93c4.74 0 7.49 3.23 7.49 7.71v11.45h-1.8v-11.09c0-3.85-2.17-6.39-5.95-6.39a6.42 6.42 0 0 0-6.5 6.68v10.83h-1.8zM189.68 171.35l1.07-1.47a12.23 12.23 0 0 0 7.56 2.64c4.29 0 7.34-2.46 7.34-7.27v-2.72a9.31 9.31 0 0 1-7.82 4.33 8.87 8.87 0 0 1-9-8.81V158a8.91 8.91 0 0 1 9-8.88 9.31 9.31 0 0 1 7.82 4.19v-3.75h1.8v15.82a8.67 8.67 0 0 1-2.39 6.35 9.48 9.48 0 0 1-6.79 2.5 14.14 14.14 0 0 1-8.59-2.88zM205.76 158v-.07c0-4.33-3.85-7.12-7.75-7.12a6.92 6.92 0 0 0-7.23 7.09v.1a7.11 7.11 0 0 0 7.23 7.16c3.89-.02 7.75-2.88 7.75-7.16zM213.51 165.14h2.42v3.12h-2.42zM230.1 142.56h1.9v11.9h16.45v-11.9h1.91v25.7h-1.91v-12H232v12h-1.9zM256.32 158.94v-.07c0-5.43 3.82-9.77 8.89-9.77 5.25 0 8.59 4.26 8.59 9.8a4.62 4.62 0 0 1 0 .73h-15.57c.33 4.66 3.67 7.38 7.34 7.38a8.41 8.41 0 0 0 6.42-2.94l1.25 1.1a9.84 9.84 0 0 1-7.75 3.52c-4.91.01-9.17-3.92-9.17-9.75zm15.53-.92c-.26-3.78-2.42-7.27-6.72-7.27-3.71 0-6.57 3.12-6.9 7.27zM279.05 149.54h1.8v5.32a8.85 8.85 0 0 1 8.3-5.62v2H289c-4.33 0-8.11 3.27-8.11 9.36v7.67h-1.8zM291.64 158.94v-.07c0-5.43 3.82-9.77 8.88-9.77 5.25 0 8.59 4.26 8.59 9.8a4.62 4.62 0 0 1 0 .73h-15.56c.33 4.66 3.67 7.38 7.34 7.38a8.41 8.41 0 0 0 6.42-2.94l1.25 1.1a9.84 9.84 0 0 1-7.75 3.52c-4.91.01-9.17-3.92-9.17-9.75zm15.53-.92c-.26-3.78-2.42-7.27-6.72-7.27-3.71 0-6.57 3.12-6.9 7.27zM313.49 165.14h2.42v3.12h-2.42z"/></g><g data-name="logo"><path d="M306.51 79.6L296 81.9 292.14 66l19.24-5.25h16.3v64.93h-21.17zM363.35 79H334V61.18h52.86v16.21l-28 48.26h-23.41zM74 61.35h22.5l13.86 22.72 13.85-22.72h22.54V126h-21.53V94l-14.87 23H110L95.11 94v32H74zM210.77 126h24c26.14 0 39.26-13.58 39.26-32.7v-.19c0-19.12-12.84-31.78-38.52-31.78h-24.74zm21.61-18.84v-27H236c9.88 0 16.26 4.07 16.26 13.4v.19c0 9.33-6.37 13.39-16.26 13.39zm-25.87-28.07V61.35h-55.15V126h55.15v-17.72H169.1v-7H201V85.65h-31.9v-6.56zm74-17.27a6 6 0 0 0-4.46 0 5.42 5.42 0 0 0-1.79 1.2 5.6 5.6 0 0 0-1.19 1.8 5.93 5.93 0 0 0 0 4.44 5.5 5.5 0 0 0 3 3 6 6 0 0 0 4.46 0 5.54 5.54 0 0 0 1.79-1.26 5.46 5.46 0 0 0 1.19-1.78 5.76 5.76 0 0 0-1.19-6.22 5.47 5.47 0 0 0-1.79-1.2m-4.13.75a4.78 4.78 0 0 1 5.3 1 4.75 4.75 0 0 1 1 1.53 5.13 5.13 0 0 1 0 3.8 4.77 4.77 0 0 1-1 1.53 4.73 4.73 0 0 1-3.4 1.41 4.69 4.69 0 0 1-1.9-.38 4.63 4.63 0 0 1-2.51-2.56 5.19 5.19 0 0 1 0-3.8 4.66 4.66 0 0 1 2.51-2.56m.66 7.73v-2.9h1.35l1.84 2.9h.94l-1.94-2.9a2.86 2.86 0 0 0 .63-.19 1.67 1.67 0 0 0 .52-.35 1.54 1.54 0 0 0 .36-.54 2 2 0 0 0 .13-.74 1.71 1.71 0 0 0-.51-1.34 2.33 2.33 0 0 0-1.61-.47h-2.5v6.53zm1.78-3.6h-1.78v-2.2h1.47a3.79 3.79 0 0 1 .58 0 1.47 1.47 0 0 1 .49.18 1 1 0 0 1 .35.34 1.07 1.07 0 0 1 .13.56 1.11 1.11 0 0 1-.17.65.94.94 0 0 1-.44.34 2 2 0 0 1-.63.13" fill="#6d6e71"/><path d="M0 93c0 18.75 15.24 33.53 35.19 33.53s35.38-15 35.38-33.71v-.19c0-18.75-15.24-33.52-35.19-33.52S0 74.1 0 92.85V93m48.77 0c0 7.57-5.17 14.41-13.39 14.41S21.8 100.52 21.8 92.85v-.19c0-7.57 5.17-14.4 13.39-14.4s13.58 6.92 13.58 14.59V93" fill="#d53847"/></g></symbol><symbol viewBox="0 0 386.8 67.4" id="omedLogoPlain"><title>omedLogoPlain</title><path d="M306.5 20.5L296 22.8l-3.9-15.9 19.2-5.3h16.3v64.9h-21.2v-46zM363.3 19.8H334V2h52.9v16.2l-28 48.3h-23.4zM74 2.2h22.5l13.9 22.7 13.9-22.7h22.5v64.7h-21.5V34.8l-14.9 23h-.4l-14.9-23v32.1H74zm136.8 64.7h24c26.1 0 39.3-13.6 39.3-32.7V34c0-19.1-12.8-31.8-38.5-31.8h-24.8zM232.4 48V21h3.6c9.9 0 16.3 4.1 16.3 13.4v.2c0 9.3-6.4 13.4-16.3 13.4zm-25.9-28V2.2h-55.1v64.7h55.1V49.1h-37.4v-7H201V26.5h-31.9V20zm74-17.3a6.25 6.25 0 0 0-4.4 0 5.52 5.52 0 0 0-3 3 5.38 5.38 0 0 0-.4 2.2 5.38 5.38 0 0 0 .4 2.2 5.52 5.52 0 0 0 3 3 6.25 6.25 0 0 0 4.4 0 5.52 5.52 0 0 0 3-3 5.38 5.38 0 0 0 .4-2.2 5.38 5.38 0 0 0-.4-2.2 5.52 5.52 0 0 0-3-3m-4.1.7a4.71 4.71 0 0 1 3.8 0 5.6 5.6 0 0 1 1.5 1 4 4 0 0 1 1 1.5 5.85 5.85 0 0 1 .4 1.9 4.06 4.06 0 0 1-.4 1.9 4 4 0 0 1-1 1.5 4 4 0 0 1-1.5 1 4.71 4.71 0 0 1-3.8 0 5.6 5.6 0 0 1-1.5-1 4 4 0 0 1-1-1.5 5.85 5.85 0 0 1-.4-1.9 4.06 4.06 0 0 1 .4-1.9 4 4 0 0 1 1-1.5 5.6 5.6 0 0 1 1.5-1m.7 7.8V8.3h1.3l1.8 2.9h.9l-1.9-2.9a1.42 1.42 0 0 0 .6-.2 2.19 2.19 0 0 0 .5-.3 1 1 0 0 0 .4-.5 1.7 1.7 0 0 0 .1-.7 1.73 1.73 0 0 0-.5-1.3 2.35 2.35 0 0 0-1.6-.5h-2.5v6.5h.9v-.1zm1.7-3.6H277V5.3h2.1c.2 0 .3.1.5.2s.3.2.3.3.1.3.1.6a.85.85 0 0 1-.2.6.54.54 0 0 1-.4.3c-.1.2-.3.2-.6.3" fill="#6d6e71"/><path d="M0 33.9c0 18.8 15.2 33.5 35.2 33.5s35.4-15 35.4-33.7v-.2C70.6 14.8 55.3 0 35.4 0S0 15 0 33.7v.2m48.8 0c0 7.6-5.2 14.4-13.4 14.4s-13.6-6.9-13.6-14.6v-.2c0-7.6 5.2-14.4 13.4-14.4S48.8 26 48.8 33.7v.2" fill="#d53847"/></symbol></svg>