<svg xmlns="http://www.w3.org/2000/svg" width="0" height="0"><defs><style>.cls-1{fill:#fff}</style><radialGradient id="omedLogoFull-a" cx="508.2" cy=".73" r="95.89" gradientUnits="userSpaceOnUse"><stop offset="0" stop-color="#f1f2f2"/><stop offset="1" stop-color="#a7a9ac"/></radialGradient><radialGradient id="omedLogoFull-b" cx="409.74" cy="112.43" r="64.46" gradientUnits="userSpaceOnUse"><stop offset="0" stop-color="#e6e7e8"/><stop offset="1" stop-color="#8a8c8e"/></radialGradient><linearGradient id="omedLogoFull-c" x1="383.21" y1="191.17" x2="408.86" y2="153.36" gradientUnits="userSpaceOnUse"><stop offset="0" stop-color="#d53847"/><stop offset="1" stop-color="#831924"/></linearGradient></defs><symbol viewBox="0 0 114 32" id="aoa-with-tagline"><title>aoa-with-tagline</title><g class="aoa-logo"><path d="M81.793 20.747c-.211-.07-1.829-.422-2.11-.422-.563-.985-1.196-2.11-1.618-3.235l-6.33-15.754h-1.336s-2.321 5.556-2.532 6.048c-1.688-3.868-5.486-6.259-9.987-6.259h-.141c-4.501 0-8.299 2.462-9.987 6.33-.211-.492-2.532-6.048-2.532-6.048h-1.336l-6.189 15.754c-.492 1.125-1.055 2.321-1.618 3.305-.281.07-1.688.422-1.899.422h.07v.211h6.33v-.211c-.07 0-2.251-.352-2.743-.422.281-1.336 1.125-3.376 1.688-4.782 0 0 .07-.141.141-.141h8.088c.211 0 .492.914.844 1.407.281.422.563.703.844 1.055.422.492.985.914 1.477 1.336.703.563 1.547.985 2.391 1.336.281.07.563.211.844.281.492.141.985.281 1.477.352.281.07.492.07.774.141h.141s.563.07 1.618.07l-.703-1.125h-.141c-2.532-.211-4.782-1.758-5.978-4.079-.141-.352-.352-.703-.422-1.055-.422-1.196-.633-2.462-.633-3.938 0-2.673.774-4.923 2.251-6.611 1.336-1.547 3.235-2.391 5.275-2.391h.281c2.04.07 3.868.914 5.275 2.391 1.477 1.618 2.251 3.938 2.251 6.611 0 1.407-.211 2.743-.633 3.938l-.422 1.055c-1.196 2.321-3.306 3.798-5.767 4.079 0 0 .774.211 1.125.985.281 0 .07 0 .352-.07.492-.07.985-.211 1.477-.352.281-.07.563-.211.844-.281.844-.352 1.688-.774 2.391-1.336a9.355 9.355 0 0 0 1.477-1.407c.281-.352.633-.563.844-.985.352-.492.633-1.407.844-1.407h8.088c.07 0 .141.141.141.141.563 1.407 1.407 3.516 1.688 4.853-.563.07-2.673.352-2.743.422v.211h7.033v-.211l-.563-.211zm-38.118-6.751c-1.125 0-2.391 0-3.587-.141.07-.211.281-.774.281-.774.774-1.969 2.18-5.556 3.165-7.596.141.352 3.446 8.088 3.587 8.369-1.266.141-2.462.141-3.446.141zm10.83-11.675l.07-.281h-.07c-1.196.703-2.321 1.266-3.306 2.251-1.477 1.477-2.391 3.516-2.673 5.697-.07.492-.07.985-.07 1.336 0 3.024 1.547 6.048 4.079 7.736.633.422 1.336.844 2.11 1.055.07 0 .07.07.07.141s-.07.07-.07.07h-.141c-.07 0-.141-.07-.211-.07h-.07c-.281-.141-.844-.352-1.266-.563-.914-.422-1.688-1.055-2.391-1.758-.985-.985-1.758-2.11-2.251-3.306l-1.196-2.884s-3.235-7.666-3.235-7.736c0 0 .352-.844.422-.985.07.211 2.884 6.822 2.884 6.822l.422 1.055h.07c0-.774.211-1.618.422-2.391a10.322 10.322 0 0 1 3.446-4.853c.914-.703 1.969-1.266 3.024-1.547h.141c.07 0 .07 0 .07.07s-.281.141-.281.141zm12.8 12.237c-.492 1.196-1.266 2.391-2.321 3.306-.703.703-1.547 1.266-2.391 1.758a5.996 5.996 0 0 1-1.547.633h-.211c0-.07.07-.141.07-.141.774-.281 1.407-.633 2.11-1.055 2.532-1.758 4.079-4.712 4.079-7.736 0-.422 0-.844-.07-1.336-.281-2.18-1.196-4.149-2.673-5.626-.914-.914-2.04-1.618-3.235-2.11 0 0-.281-.07-.211-.211 0-.07.141-.07.211 0 1.055.352 2.11.844 3.024 1.547 1.618 1.266 2.884 2.954 3.446 4.853.281.774.422 1.547.422 2.391h.07l.422-1.055s2.813-6.681 2.884-6.822c.07.141.352.985.422.985l-3.235 7.736-1.266 2.884zm4.572-.562c-1.055 0-2.251 0-3.446-.141.141-.281 3.376-8.018 3.587-8.369.985 2.04 2.391 5.626 3.165 7.596 0 0 .211.492.281.774-1.196.141-2.462.141-3.587.141z"/><path d="M47.473 10.831l-.422-1.196s-2.813-6.259-2.884-6.963c.07.703 2.884 6.963 2.884 6.963l.422 1.196zm6.751 9.354c.07 0 .141.07.211.07 0 0-.141 0-.211-.07zm-6.681-9.354c0-.774.211-1.618.422-2.391a10.322 10.322 0 0 1 3.446-4.853c.914-.703 1.969-1.266 3.024-1.547-1.055.352-2.11.844-3.024 1.547-1.618 1.266-2.884 2.954-3.446 4.853a14.194 14.194 0 0 0-.422 2.391z"/><path d="M48.246 14.558l-1.196-2.884s-3.235-7.666-3.235-7.736c0 0 .352-.844.422-.985-.07.141-.352.985-.422.985l3.235 7.736 1.196 2.884c.492 1.196 1.266 2.391 2.251 3.305a10.006 10.006 0 0 0 2.391 1.758c-.914-.422-1.618-1.055-2.391-1.758a8.93 8.93 0 0 1-2.251-3.306zm6.4-12.518c.07 0 .07 0 0 0 .07.211-.141.281-.141.281s.281-.07.141-.281c.07 0 .07 0 0 0z"/><path d="M48.527 9.987c-.07.492-.07.914-.07 1.336 0 3.024 1.547 6.048 4.079 7.736a9.838 9.838 0 0 0 2.11 1.055c.07 0 .07.07.07.141l-.07.07c.07 0 .07 0 .07-.07s-.07-.07-.07-.141c-.774-.281-1.407-.633-2.11-1.055-2.532-1.758-4.079-4.712-4.079-7.736 0-.422.07-.844.07-1.336.281-2.18 1.196-4.149 2.673-5.626.914-.914 2.04-1.618 3.235-2.11-1.196.492-2.321 1.196-3.235 2.11-1.477 1.477-2.391 3.446-2.673 5.626z"/><path d="M53.521 6.752c.774 0 1.407.492 1.407 1.266 0 1.125-.844 1.407-1.618 1.407h-1.407v-.141c.211 0 .281-.07.352-.07v-2.11c0-.07-.141-.07-.352-.07v-.281h1.618zm-.422 2.11c0 .352 0 .281.141.281.422 0 .844-.211.844-1.196 0-.703-.352-.985-.985-.985h-.07v1.899h.07zm7.877-.844c0-.703.633-1.336 1.477-1.336.703 0 1.336.563 1.336 1.336 0 .985-.844 1.407-1.477 1.407-.422 0-1.336-.281-1.336-1.407zm1.969 0c0-.844-.352-1.196-.633-1.196s-.492.141-.492.985.281 1.266.633 1.266c.211.07.492 0 .492-1.055zM59.077 22.646c.07-.07.141-.352.141-.633 0-.211 0-.352-.07-.563-.141-.422-.492-.774-1.055-.985l-.281-.07a.528.528 0 0 1-.281-.141c-.352-.211-.492-.492-.563-.844v-.211c0-.281.07-1.055.211-1.266l-.07-.07c-.07 0-.352.07-.633.633-.211.352-.633 1.125-.352 1.899.211.492.633.844 1.266 1.055l.352.141.422.141c.703.352.774.844.774.844s0 .211.141.07z"/><path d="M59.569 17.09c-.141-.422-.633-.774-1.336-.985l-.422-.141a4.877 4.877 0 0 1-.563-.211c-.352-.141-.563-.422-.563-.774v-.141c0-.492.141-1.196.211-1.407 0-.07-.07-.07-.07-.07-.141 0-.492.211-.774.633-.352.492-.563 1.266-.352 1.899.211.563.774.914 1.618 1.055h.07c.07.633.211 2.673.211 2.743.07 0 .07.07.141.07l.07.07h.07s.07 0 .141.07c0-.141.141-2.11.141-2.673 0 0 .07 0 .07.07.352.211.492.422.492.703v.07c-.07.422-.211 1.266-.281 1.477v.07c.07 0 .422-.492.563-.703.422-.563.563-1.055.563-1.477.07-.141.07-.211 0-.352z"/><path d="M59.851 12.378c-.211-.492-.703-.844-1.477-.985-.211-.07-.352-.07-.563-.141a7.281 7.281 0 0 1-.844-.211c-.352-.141-.563-.352-.563-.703v-.141c0-.352.141-1.125.211-1.407 0-.07-.07-.07-.07-.07-.141 0-.492.211-.774.633-.211.281-.492.774-.492 1.336 0 .141 0 .352.07.492.211.563.774.914 1.688 1.125.07.633.141 2.532.211 2.602s.141.07.281.141l.141.07h.211s.141 0 .211.07c0-.141.07-2.04.141-2.602 0 0 .07 0 .07.07.352.141.563.352.563.703v.07c0 .492-.211 1.196-.281 1.407 0 .07.07.07.07.07.141 0 .422-.211.703-.633.141-.211.563-.844.563-1.477 0-.07 0-.281-.07-.422z"/><path d="M62.031 5.626c-.141-.422-.352-.914-.633-1.266-.211-.352-.492-.563-.774-.703s-.774-.281-1.266-.281h-.07c-.633-.563-1.758-.844-2.743-.633-1.196.281-1.899 1.125-1.899 2.391v.07c0 1.618 1.125 2.11 2.18 2.391.07.633.211 2.673.211 2.743.141.07.281.141.422.141l.281.07h.141c.141 0 .352.07.492.07 0-.141.07-2.11.07-2.673.07 0 .07 0 .141.07.352.141.563.352.563.703v.07c0 .492-.211 1.196-.281 1.407 0 .07.07.07.07.07.141 0 .492-.211.774-.633.281-.352.633-1.125.422-1.758-.141-.492-.633-.844-1.477-1.125l-.844-.211a3.683 3.683 0 0 1-1.055-.352c-.422-.281-.633-.633-.633-1.055s.211-.774.563-.985c.07 0 .07-.07.141-.07 0 .352.07 1.266.141 1.336.141.07.352.141.492.211h.211c.211.07.563.07.844.211 0-.141.07-1.196.07-1.196v-.211s0-.07-.07-.07l.211.211c.141.141.211.281.281.422s.141.211.141.281c.633.633 1.618.563 2.743.422.07 0 .141-.07.141-.07zM57.6 2.11c.492 0 .633 0 1.125.07V.703C58.725.14 58.022 0 57.67 0c-.492 0-.774.07-.985.281-.07.141-.141.281-.141.492 0 0 .07 1.336.07 1.477.352-.07.985-.141.985-.141zM.141 24.826h114.286v.633H.141v-.633zm39.103 5.416c0 .985-.703 1.758-1.688 1.758s-1.688-.774-1.688-1.758.703-1.758 1.688-1.758 1.688.774 1.688 1.758zm-.633 0c0-.633-.422-1.125-.985-1.125s-.985.492-.985 1.125.422 1.125.985 1.125.985-.492.985-1.125zm4.501-.633h-.633c0-.281-.211-.492-.633-.492-.352 0-.633.141-.633.422 0 .211.211.352.774.422.774.141 1.336.352 1.336 1.055 0 .633-.563 1.055-1.407 1.055-.633 0-1.407-.352-1.407-1.196h.633c0 .422.422.563.774.563s.774-.141.774-.422c0-.211-.211-.352-.774-.492-.633-.141-1.266-.281-1.266-1.055 0-.563.492-.985 1.336-.985.703 0 1.125.563 1.125 1.125zm2.602-.422V32h-.633v-2.813h-.914v-.633h2.462v.633h-.914zm4.642 2.743h-2.532v-3.376h2.462v.633h-1.758v.703h1.547v.633h-1.547v.844h1.899l-.07.563zm4.36-1.688c0 .985-.703 1.758-1.688 1.758s-1.688-.774-1.688-1.758.703-1.758 1.688-1.758c1.055 0 1.688.774 1.688 1.758zm-.632 0c0-.633-.422-1.125-.985-1.125s-.985.492-.985 1.125.422 1.125.985 1.125.985-.492.985-1.125zm3.446.492h-.774v1.196h-.633v-3.376h1.407c.703 0 1.125.422 1.125 1.125-.07.633-.492 1.055-1.125 1.055zm-.844-1.547v.985h.774c.281 0 .492-.141.492-.492s-.211-.492-.492-.492h-.774zm3.446 2.11l-.211.703h-.703l1.196-3.376h.774L62.384 32h-.703l-.211-.703h-1.336zm.633-2.04l-.492 1.407h.914l-.422-1.407zm3.727-.07V32h-.633v-2.813h-.914v-.633h2.462v.633h-.914zm4.853 2.743h-.633v-1.407h-1.477v1.407h-.633v-3.376h.633v1.336h1.477v-1.336h.633v3.376zm2.11 0h-.633v-3.376h.633v3.376zm2.954.07c-.914 0-1.618-.774-1.618-1.758s.703-1.758 1.618-1.758c.774 0 1.336.422 1.547 1.125h-.703c-.141-.281-.422-.563-.844-.563-.563 0-.985.563-.985 1.196s.422 1.196.985 1.196a.914.914 0 0 0 .844-.563h.703c-.211.703-.774 1.125-1.547 1.125zM5.134 28.554h-.633v3.376h.422v-2.813l.985 2.813h.422l.985-2.813v2.813h.422v-3.376h-.633l-.985 2.884-.985-2.884zm6.892.422v-.352H9.635V32h2.391v-.352h-2.04v-1.196h1.829V30.1H9.986v-1.055c0-.07 2.04-.07 2.04-.07zm4.15 2.11c0-.352-.141-.563-.352-.703.281-.141.492-.492.492-.844 0-.633-.422-.985-1.055-.985h-1.477v3.376h.422v-1.336h1.125c.352 0 .563.141.563.492v.492c0 .141 0 .281.07.352h.422c-.141-.07-.211-.281-.211-.422v-.422zm-.985-.844h-1.125v-1.266h1.055c.422 0 .703.211.703.633.07.352-.211.633-.633.633zM1.758 28.554h-.422S.07 31.859.07 31.93h.422l.352-.985h1.407l.352.985h.422c-.07 0-1.266-3.376-1.266-3.376zm-.844 2.039l.563-1.547.563 1.547H.915zm17.512-2.039h-.422v3.376h.422v-3.376zm3.376 3.094c-.703 0-1.266-.633-1.266-1.407s.563-1.407 1.266-1.407c.492 0 .914.281 1.125.703h.422c-.211-.703-.844-1.125-1.547-1.125-.914 0-1.688.774-1.688 1.758s.774 1.758 1.688 1.758c.703 0 1.336-.422 1.547-1.125h-.422c-.211.563-.633.844-1.125.844zm4.572-3.094h-.422s-1.266 3.305-1.266 3.376h.422l.352-.985h1.407l.352.985h.422c-.07 0-1.266-3.376-1.266-3.376zm-.844 2.039l.563-1.547.563 1.547h-1.125zm3.586-2.039v3.376h.422v-2.813s1.829 2.743 1.829 2.813h.422v-3.376h-.422v2.813s-1.829-2.743-1.829-2.813h-.422zm51.904 0h-.422s-1.266 3.305-1.266 3.376h.422l.352-.985h1.407l.352.985h.422l-1.266-3.376zm-.774 2.039l.563-1.547.563 1.547h-1.125zm4.009-.633c-.633-.141-.844-.281-.844-.563 0-.352.281-.563.774-.563s.774.281.774.633h.422c0-.633-.492-1.055-1.196-1.055s-1.196.352-1.196.914c0 .492.352.774 1.196.914.703.141.914.352.914.633 0 .422-.281.633-.844.633-.492 0-.844-.281-.844-.703h-.422c0 .633.492 1.125 1.266 1.125s1.266-.352 1.266-.985c-.07-.633-.563-.774-1.266-.985zm3.305 0c-.633-.141-.844-.281-.844-.563 0-.352.281-.563.774-.563s.774.281.774.633h.422c0-.633-.492-1.055-1.196-1.055s-1.196.352-1.196.914c0 .492.352.774 1.196.914.774.141.914.352.914.633 0 .422-.281.633-.844.633-.492 0-.844-.281-.844-.703h-.422c0 .633.492 1.125 1.266 1.125s1.266-.352 1.266-.985c-.07-.633-.563-.774-1.266-.985zm3.658-1.476c-.914 0-1.688.774-1.688 1.758S90.233 32 91.218 32c.914 0 1.688-.774 1.688-1.758-.07-.985-.774-1.758-1.688-1.758zm0 3.164c-.703 0-1.266-.633-1.266-1.407s.563-1.407 1.266-1.407 1.266.563 1.266 1.407c0 .774-.563 1.407-1.266 1.407zm4.079 0c-.703 0-1.266-.633-1.266-1.407s.563-1.407 1.266-1.407c.492 0 .914.281 1.125.703h.422c-.211-.703-.844-1.125-1.547-1.125-.914 0-1.688.774-1.688 1.758s.774 1.758 1.688 1.758c.703 0 1.266-.422 1.547-1.125h-.422c-.211.563-.633.844-1.125.844zm2.883-3.094h-.422v3.376h.422v-3.376zm2.602 0h-.422s-1.266 3.305-1.266 3.376h.422l.352-.985h1.407l.352.985h.422l-1.266-3.376zm-.773 2.039l.563-1.547.563 1.547h-1.125zm3.305 1.337h.422v-3.024h1.055v-.352h-2.532v.352h1.055v3.024zm2.813-3.376h-.422v3.376h.422v-3.376zm2.673-.07c-.914 0-1.688.774-1.688 1.758S107.815 32 108.8 32c.914 0 1.688-.774 1.688-1.758s-.703-1.758-1.688-1.758zm0 3.164c-.703 0-1.266-.633-1.266-1.407s.563-1.407 1.266-1.407 1.266.563 1.266 1.407c0 .774-.563 1.407-1.266 1.407zm2.673-3.094v3.376h.422v-2.813s1.829 2.743 1.829 2.813h.422v-3.376h-.422v2.813s-1.829-2.743-1.829-2.813h-.422zM76.8 5.556c-1.196 0-2.18-.985-2.18-2.18s.985-2.18 2.18-2.18 2.18.985 2.18 2.18-.985 2.18-2.18 2.18zm0-3.938c-.985 0-1.758.774-1.758 1.758s.774 1.758 1.758 1.758 1.758-.774 1.758-1.758-.844-1.758-1.758-1.758zm1.055 2.883h-.492l-.422-.844h-.563v.844h-.422V2.11h1.125c.492 0 .844.281.844.774 0 .352-.211.633-.492.703l.422.914zm-.774-1.266c.211 0 .352-.07.352-.352s-.141-.352-.352-.352h-.703v.703h.703z"/></g></symbol><symbol viewBox="0 0 194.08 92.08" id="aoaLogo"><title>aoaLogo</title><path d="M109.29 80.78c3.18-1.43 6.54-2.8 9.78-5.35 6.88-5.43 11.84-14.32 13.7-21.43a37.09 37.09 0 0 0 .69-13.51A42.17 42.17 0 0 0 128.72 26a39.62 39.62 0 0 0-10-11.46c-5.24-3.78-10.66-5.23-11.45-5.9-1.39-1.19 4.73-2.86 15.87 5.09a40.19 40.19 0 0 1 11.89 14 44.7 44.7 0 0 1 4.06 12.12l12.94-30.3 2.37 6.79-17.12 42a52.73 52.73 0 0 1-6.79 11.33c-3.67 4.61-8.47 9-12.87 11-9.88 4.46-10.62 1.13-8.33.11zM49.83 40.73c-4.76-11.51-6.61-14.82-10.2-24.38l2.52-6.27L55 41s1.6-11.57 8.87-19.81a67.82 67.82 0 0 1 8.6-8.05c3.85-2.88 12.31-6.63 12.9-4.85.42 1.26-3.66 2.1-8.46 5.13a34.65 34.65 0 0 0-5.35 4.43 39.92 39.92 0 0 0-8.1 11.35c-1.57 3.38-2.35 7.59-3.06 11.48-1.27 6.93.72 14.07 1.88 17.61C65 66.52 74 75 74.85 75.59c5.77 4.41 11.94 5.21 10.34 7.09-1.3 1.52-19.81-5.95-26.71-21.5-4.09-9.18-7.36-17.32-8.65-20.45z" fill="#fff"/><path d="M102.94 85.78zM104.73 85.82a9.18 9.18 0 0 0 1.35-.21 48.42 48.42 0 0 0 6.07-1.46c1.14-.36 2.26-.75 3.32-1.18a41.54 41.54 0 0 0 9.65-5.42 40.91 40.91 0 0 0 6.07-5.65 42.06 42.06 0 0 0 3.51-4.63 42.57 42.57 0 0 0 3.38-6.3h32.64l.52 1.32c2.3 5.81 5.72 14.49 6.78 20l-11.42 1.8-.43.07v2.21h27.91v-2.16l-.4-.09-8.34-1.85a106.59 106.59 0 0 1-6.46-13.49L153.7 4.7h-5.34L138 29.55c-6.79-15.62-22.19-25.29-40.53-25.29h-.86c-18.35 0-33.75 9.67-40.54 25.29L45.72 4.7h-5.34L15.19 68.79a106.57 106.57 0 0 1-6.45 13.49L.4 84.13l-.4.09v2.18h27.91v-2.22l-.43-.07-11.42-1.8c1.06-5.54 4.48-14.22 6.78-20l.52-1.31H56a42.35 42.35 0 0 0 3.38 6.3 41.58 41.58 0 0 0 3.51 4.63A40.8 40.8 0 0 0 69 77.55 41.57 41.57 0 0 0 78.61 83c1.06.42 2.17.82 3.32 1.18A48.4 48.4 0 0 0 88 85.61c1 .18 2.1.33 3.24.46l.49.05a33.37 33.37 0 0 0 6.51.2l-3-4.45-.62-.05A30 30 0 0 1 70.49 65.3a35.8 35.8 0 0 1-1.82-4.19 46.74 46.74 0 0 1-2.57-15.87c0-10.84 3.13-20.08 9-26.72a28.86 28.86 0 0 1 21.3-9.74h1.27a28.86 28.86 0 0 1 21.26 9.74c5.92 6.64 9 15.88 9 26.72a46.64 46.64 0 0 1-2.57 15.87 35.16 35.16 0 0 1-1.82 4.19 30 30 0 0 1-23.5 16.46 7.66 7.66 0 0 1 4.69 4.06zM39.84 56.74a125.45 125.45 0 0 1-14.55-.68l1.23-3.14c3.09-8 8.74-22.52 12.86-30.82l14.42 34a129.7 129.7 0 0 1-13.96.64zM83.73 9.31a36.76 36.76 0 0 0-13.13 8.43 38.49 38.49 0 0 0-10.88 22.69 42.38 42.38 0 0 0-.37 5.36 38.51 38.51 0 0 0 16.53 31.35 37.33 37.33 0 0 0 8.47 4.34c.23.14.43.33.37.56s-.55.21-1 .1l-.72-.25a40 40 0 0 1-5.41-2.26 40.85 40.85 0 0 1-19.1-20.52l-4.92-11.8L40.46 16l1.6-4.09 11.57 27.77L55.41 44l.32-.06a36.59 36.59 0 0 1 1.72-9.6 40.46 40.46 0 0 1 14-19.57 39.93 39.93 0 0 1 12.36-6.41c.42-.1.85-.13.91.12.12.52-.99.83-.99.83zm51.92 49.81a40.88 40.88 0 0 1-19.1 20.52 39.86 39.86 0 0 1-6.25 2.53c-.43.1-.87.14-.93-.11s.15-.43.39-.57a37.37 37.37 0 0 0 8.44-4.33 38.51 38.51 0 0 0 16.53-31.35 42.82 42.82 0 0 0-.37-5.36 38.51 38.51 0 0 0-10.88-22.69 36.73 36.73 0 0 0-13.17-8.46h.05s-1.12-.32-1-.83c.06-.24.46-.22.87-.13a39.9 39.9 0 0 1 12.37 6.39 40.45 40.45 0 0 1 14 19.57 36.57 36.57 0 0 1 1.72 9.6l.32.06 1.78-4.28L152 11.91l1.6 4.09-13 31.31zm18.59-2.37a129.66 129.66 0 0 1-14-.63l14.42-34c4.12 8.3 9.77 22.85 12.86 30.82l1.23 3.15a125.44 125.44 0 0 1-14.52.65z"/><path d="M79.83 27.34c3.12 0 5.61 1.91 5.61 5.09 0 4.62-3.42 5.7-6.42 5.7H73.4v-.59c.75 0 1.26-.16 1.33-.38a2.14 2.14 0 0 0 .06-.67V29a2.21 2.21 0 0 0-.06-.68c-.06-.21-.58-.35-1.33-.38v-.58zM78 35.9c0 1.34 0 1.25.71 1.25 1.8 0 3.44-.85 3.44-4.73 0-2.93-1.31-4.13-3.87-4.13H78zM110.06 32.36a5.74 5.74 0 0 1 6-5.46 5.33 5.33 0 0 1 5.44 5.39 5.8 5.8 0 0 1-6 5.76 5.33 5.33 0 0 1-5.44-5.69zm8.08.27c0-3.48-1.37-4.71-2.65-4.71-1 0-2.08.64-2.08 4s1.09 5.13 2.45 5.13c.95 0 2.28-.28 2.28-4.43zM102.21 91.88a6.46 6.46 0 0 0 .52-2.62 6 6 0 0 0-.38-2.15 7 7 0 0 0-4.15-3.89l-1.14-.41a4.83 4.83 0 0 1-1.14-.5 4.27 4.27 0 0 1-2.2-3.4v-.79a20.64 20.64 0 0 1 .77-5.22.53.53 0 0 0-.41-.23c-.35 0-1.31.16-2.69 2.45-.78 1.29-2.48 4.62-1.34 7.69.73 2 2.5 3.42 5.27 4.33l1.34.45 1.64.71c2.77 1.4 3.07 3.43 3.07 3.43s.3.68.84.15z"/><path d="M104.45 69.21c-.62-1.83-2.48-3.22-5.5-4.12l-1.74-.45a11.11 11.11 0 0 1-2.34-.73 3.51 3.51 0 0 1-2.26-3.18v-.46a24.18 24.18 0 0 1 .91-5.64c-.06-.22-.15-.26-.19-.27-.57-.12-2 1-3.07 2.58-1.35 2-2.42 5.08-1.37 7.65.87 2.15 3.05 3.61 6.5 4.34h.24c.18 2.65.74 10.86.75 11.08l.09.06.48.27.38.17.29.08.5.17c0-.55.46-8.52.58-10.78l.31.16c1.38.76 2.08 1.69 2.08 2.75a2.46 2.46 0 0 1 0 .36c-.23 1.59-.94 5-1.19 5.9 0 .11.05.19.06.2.42 0 1.76-1.92 2.41-2.83 1.58-2.2 2.37-4.17 2.37-5.85a4.57 4.57 0 0 0-.29-1.46z"/><path d="M105.53 50.24c-.75-1.93-2.73-3.31-5.89-4.1a19 19 0 0 0-2.41-.44 20.5 20.5 0 0 1-3.42-.93c-1.54-.64-2.31-1.56-2.37-2.79v-.46a23.61 23.61 0 0 1 .92-5.63c-.06-.24-.16-.27-.2-.28-.56-.11-2 1-3.07 2.59a10.25 10.25 0 0 0-1.9 5.34 5.41 5.41 0 0 0 .35 1.95c.83 2.15 3.15 3.72 6.89 4.67h.08c.17 2.48.7 10.27.71 10.53a11 11 0 0 0 1.12.44l.69.19h.19l.61.12.91.21c0-.5.39-8.16.5-10.45l.39.15a3.18 3.18 0 0 1 2.22 2.93v.29a18.61 18.61 0 0 1-1.24 5.81c.06.22.14.26.17.27.44.08 1.73-.79 2.92-2.59a11.92 11.92 0 0 0 2.15-6 5.26 5.26 0 0 0-.32-1.82z"/><path d="M114.22 22.69a18.14 18.14 0 0 0-2.44-5 8.91 8.91 0 0 0-3-2.81 13.43 13.43 0 0 0-5.26-1.14h-.22l-.08-.07c-2.61-2.42-7.2-3.5-11.16-2.63-4.81 1.05-7.55 4.57-7.55 9.66v.16c.08 6.63 4.51 8.6 8.82 9.64h.08c.17 2.56.73 10.74.75 11a15.61 15.61 0 0 0 1.61.6l1 .25.68.12a20.43 20.43 0 0 1 2.1.4c0-.54.25-8.52.31-10.87l.49.2a3.11 3.11 0 0 1 2.23 2.72v.33a19.27 19.27 0 0 1-1.25 5.75c.06.19.14.24.19.25.56.11 2-1 3.07-2.58s2.54-4.46 1.59-7.16c-.71-2-2.69-3.52-5.87-4.5a24.7 24.7 0 0 0-3.41-.79 12.22 12.22 0 0 1-4.26-1.44A4.84 4.84 0 0 1 90 20.52a4.58 4.58 0 0 1 2.14-4 4.93 4.93 0 0 1 .48-.26c.12 1.4.42 5.1.44 5.33a11 11 0 0 0 2.06.93l1.33.35.36.08a30.27 30.27 0 0 1 3.38.72c0-.56.26-4.77.27-4.88a1.68 1.68 0 0 0-.13-.75l-.15-.28.11.08.74.85a13.88 13.88 0 0 1 1.13 1.73 6.35 6.35 0 0 0 .7 1.06c2.57 2.43 6.51 2.24 11 1.75a.88.88 0 0 0 .33-.52.23.23 0 0 0 .03-.02zM96.27 8.66a20.05 20.05 0 0 1 4.47.3l.26-6.08C101 .64 98.27.12 96.64 0c-1.92-.12-3.26.27-4 1.16A3.16 3.16 0 0 0 92 3.24s.24 5.3.27 5.89a34.13 34.13 0 0 1 4-.47zM174.1 22.41a8.77 8.77 0 1 1 8.78-8.78 8.78 8.78 0 0 1-8.78 8.78zm0-15.91a7.14 7.14 0 1 0 7 7.13 7.09 7.09 0 0 0-7-7.12zm4.44 11.76h-2.08l-1.75-3.37h-2.35v3.35h-1.82V8.59h4.63a3 3 0 0 1 3.32 3.15 3 3 0 0 1-2 2.93zm-3.35-5a1.38 1.38 0 0 0 1.5-1.48c0-1.09-.58-1.48-1.5-1.48h-2.84v3z"/></symbol><symbol viewBox="0 0 199.33 96.67" id="aoaLogoNoFill"><title>aoaLogoNoFill</title><g data-name="logo"><g data-name="aoa"><path d="M28.72 54.9L27.49 58a126.48 126.48 0 0 0 14.51.72 131.48 131.48 0 0 0 14-.62c-.51-1.21-13.81-32.6-14.42-34-4.12 8.28-9.77 22.83-12.86 30.8zM86 10.32a40.74 40.74 0 0 0-26.36 26 36.63 36.63 0 0 0-1.72 9.6l-.32.06-1.78-4.28-11.56-27.81-1.6 4.11 13 31.31 4.92 11.8a40.53 40.53 0 0 0 24.56 22.76l.76.25c.45.11.94.17 1-.1s-.14-.42-.37-.56a37.65 37.65 0 0 1-8.47-4.34 38.48 38.48 0 0 1-16.51-31.34 42.64 42.64 0 0 1 .37-5.36A38.46 38.46 0 0 1 72.8 19.73 36.74 36.74 0 0 1 86 11.29s1.11-.32 1-.85c-.14-.25-.57-.22-1-.12zM156.89 24.07c-.6 1.43-13.91 32.81-14.42 34a129.25 129.25 0 0 0 14 .63A124.16 124.16 0 0 0 171 58l-1.23-3.15c-3.11-7.93-8.77-22.48-12.88-30.78z" fill="none"/><path d="M195.88 86.11l-8.34-1.85a106.33 106.33 0 0 1-6.46-13.49L155.9 6.69h-5.34L140.2 31.54C133.41 15.92 118 6.25 99.67 6.25h-.87c-18.35 0-33.8 9.67-40.54 25.29L47.9 6.69h-5.34L17.39 70.77a107.65 107.65 0 0 1-6.45 13.49L2.6 86.11l-.4.09v2.18h27.91v-2.21l-.43-.07-11.42-1.8c1.06-5.54 4.48-14.22 6.78-20l.52-1.32H58.2a42.36 42.36 0 0 0 3.38 6.3 41.72 41.72 0 0 0 3.51 4.63 40.81 40.81 0 0 0 15.72 11.04c1.06.42 2.17.82 3.32 1.18a49.68 49.68 0 0 0 6.07 1.46c1 .18 2.1.33 3.24.46h.49a33.7 33.7 0 0 0 6.51.2l-3-4.45h-.62A30 30 0 0 1 72.7 67.28a35.35 35.35 0 0 1-1.82-4.19 46.79 46.79 0 0 1-2.57-15.87c0-10.84 3.13-20.08 9-26.72a28.85 28.85 0 0 1 21.25-9.74h1.26a28.86 28.86 0 0 1 21.26 9.74c5.92 6.64 9 15.88 9 26.72a46.55 46.55 0 0 1-2.57 15.87 35.34 35.34 0 0 1-1.82 4.19 30 30 0 0 1-23.5 16.46 7.68 7.68 0 0 1 4.64 4.06 10.41 10.41 0 0 0 1.35-.21 49.24 49.24 0 0 0 6.07-1.46c1.14-.36 2.26-.75 3.32-1.18a41.83 41.83 0 0 0 9.65-5.42 41.14 41.14 0 0 0 6.07-5.65 41.72 41.72 0 0 0 3.51-4.63 42.86 42.86 0 0 0 3.38-6.3h32.64c.16.42.52 1.32.52 1.32 2.3 5.81 5.72 14.49 6.78 20L168.8 86.1l-.43.07v2.21h27.91V86.2zM42 58.72A126.48 126.48 0 0 1 27.49 58l1.23-3.14c3.09-8 8.74-22.52 12.86-30.82.61 1.42 13.91 32.81 14.42 34a131.48 131.48 0 0 1-14 .68zm43.93-47.43a36.74 36.74 0 0 0-13.13 8.44 38.46 38.46 0 0 0-10.88 22.69 42.64 42.64 0 0 0-.37 5.36 38.48 38.48 0 0 0 16.53 31.35 37.65 37.65 0 0 0 8.47 4.34c.23.14.43.33.37.56s-.55.21-1 .1l-.76-.25a40.69 40.69 0 0 1-24.53-22.79l-4.92-11.8L42.66 18l1.6-4.09 11.57 27.75 1.78 4.28.32-.06a36.63 36.63 0 0 1 1.72-9.6A40.74 40.74 0 0 1 86 10.32c.42-.1.85-.13.91.12.09.56-.98.85-.98.85zm53.61 49a52.73 52.73 0 0 1-6.79 11.33c-3.67 4.61-8.47 9-12.88 11-9.93 4.51-10.64 1.19-8.37.16a43.55 43.55 0 0 0 9.78-5.35C128.16 72 133.11 63.1 135 56a37.35 37.35 0 0 0 .69-13.51A42.32 42.32 0 0 0 130.94 28a39.72 39.72 0 0 0-10-11.46c-5.24-3.78-10.66-5.23-11.45-5.9-1.39-1.19 4.73-2.86 15.87 5.09a40.15 40.15 0 0 1 11.89 14 44.83 44.83 0 0 1 4.06 12.12l12.94-30.3 2.37 6.79zm16.89-1.57a129.25 129.25 0 0 1-14-.63c.51-1.21 13.82-32.59 14.42-34 4.12 8.3 9.77 22.85 12.86 30.82L171 58a124.16 124.16 0 0 1-14.57.72z"/><path d="M154.29 11.53l-12.94 30.3a44.83 44.83 0 0 0-4.06-12.12 40.15 40.15 0 0 0-11.89-14c-11.14-8-17.26-6.28-15.87-5.09.79.67 6.21 2.12 11.45 5.9a39.72 39.72 0 0 1 10 11.46 42.32 42.32 0 0 1 4.73 14.51A37.35 37.35 0 0 1 135 56c-1.87 7.11-6.82 16-13.7 21.42a43.55 43.55 0 0 1-9.78 5.35c-2.27 1-1.56 4.35 8.37-.16 4.41-2 9.21-6.37 12.88-11a52.73 52.73 0 0 0 6.79-11.33l17.12-42zM137.85 61.1a40.84 40.84 0 0 1-19.11 20.52 39.69 39.69 0 0 1-6.25 2.53c-.43.1-.87.14-.93-.11s.15-.43.39-.57a37.4 37.4 0 0 0 8.44-4.33 38.5 38.5 0 0 0 16.53-31.35 42.76 42.76 0 0 0-.37-5.36 38.49 38.49 0 0 0-10.88-22.69 36.56 36.56 0 0 0-13.17-8.44h.05s-1.12-.32-1-.83c.06-.24.46-.22.87-.13a40.68 40.68 0 0 1 26.39 26 36.63 36.63 0 0 1 1.72 9.6l.32.06 1.78-4.28 11.57-27.8c.25.63 1.55 4 1.6 4.09l-13 31.31z"/></g><g data-name="staff"><path d="M82 29.32c3.12 0 5.61 1.91 5.61 5.09 0 4.62-3.42 5.7-6.42 5.7H75.6v-.59c.75 0 1.26-.16 1.33-.38a2.29 2.29 0 0 0 .06-.67V31a2.32 2.32 0 0 0-.06-.68c-.06-.21-.58-.35-1.33-.38v-.59zm-1.8 8.57c0 1.34 0 1.25.71 1.25 1.8 0 3.44-.85 3.44-4.73 0-2.93-1.31-4.13-3.88-4.13h-.28v7.61zM112.26 34.34a5.73 5.73 0 0 1 6-5.46 5.32 5.32 0 0 1 5.44 5.39 5.8 5.8 0 0 1-6 5.76 5.31 5.31 0 0 1-5.44-5.69zm8.08.27c0-3.48-1.37-4.71-2.65-4.71-1 0-2.08.64-2.08 4s1.09 5.1 2.45 5.1c.94 0 2.28-.25 2.28-4.39zM104.41 93.86a6.54 6.54 0 0 0 .52-2.62 5.82 5.82 0 0 0-.38-2.15 6.94 6.94 0 0 0-4.15-3.89l-1.14-.41a5 5 0 0 1-1.14-.5 4.28 4.28 0 0 1-2.2-3.4v-.79a20.35 20.35 0 0 1 .77-5.22.51.51 0 0 0-.41-.23c-.35 0-1.31.16-2.69 2.45-.78 1.29-2.48 4.62-1.34 7.69.73 2 2.5 3.42 5.27 4.33l1.34.45 1.64.71c2.77 1.4 3.07 3.43 3.07 3.43a.49.49 0 0 0 .84.15z"/><path d="M106.65 71.2c-.63-1.83-2.48-3.22-5.51-4.12l-1.74-.45a11.63 11.63 0 0 1-2.34-.73 3.52 3.52 0 0 1-2.26-3.18v-.46a24.5 24.5 0 0 1 .91-5.64c-.06-.22-.15-.26-.19-.27-.57-.12-2 1-3.07 2.58-1.35 2-2.42 5.08-1.37 7.65.87 2.15 3.05 3.61 6.5 4.34h.24c.18 2.65.74 10.86.75 11.08l.09.06.48.27.38.17.29.08.5.17c0-.55.46-8.52.58-10.78l.31.16c1.38.76 2.08 1.69 2.08 2.75a2.19 2.19 0 0 1 0 .36c-.23 1.59-.94 5-1.19 5.9a1.32 1.32 0 0 0 .06.2c.42-.05 1.76-1.92 2.41-2.83a10.54 10.54 0 0 0 2.37-5.85 4.6 4.6 0 0 0-.28-1.46z"/><path d="M107.73 52.22c-.75-1.93-2.73-3.31-5.89-4.1a19.8 19.8 0 0 0-2.41-.44 20.2 20.2 0 0 1-3.43-.93c-1.54-.64-2.31-1.56-2.37-2.79v-.46a23.73 23.73 0 0 1 .92-5.63c-.06-.24-.16-.27-.2-.28-.56-.11-2 1-3.07 2.59a10.24 10.24 0 0 0-1.9 5.34 5.58 5.58 0 0 0 .35 2c.83 2.15 3.15 3.72 6.89 4.67h.08c.17 2.48.7 10.27.71 10.53a10.5 10.5 0 0 0 1.12.44l.69.19h.19l.61.12.91.21c0-.5.39-8.16.5-10.45l.39.15a3.17 3.17 0 0 1 2.18 2.95v.29a18.48 18.48 0 0 1-1.24 5.81c.06.22.14.26.17.27.44.08 1.73-.79 2.92-2.59a12 12 0 0 0 2.15-6 4.71 4.71 0 0 0-.27-1.89z"/><path d="M116.43 24.67a18 18 0 0 0-2.44-5 8.88 8.88 0 0 0-3-2.81 13.39 13.39 0 0 0-5.26-1.14h-.22l-.08-.07c-2.61-2.42-7.2-3.5-11.16-2.63-4.81 1.05-7.55 4.57-7.55 9.66v.16c.08 6.63 4.51 8.6 8.82 9.64h.08c.17 2.56.73 10.74.75 11a14.28 14.28 0 0 0 1.61.6l1 .25.68.12a19.05 19.05 0 0 1 2.1.4c0-.54.25-8.52.31-10.87l.49.2a3.12 3.12 0 0 1 2.23 2.72v.33a19.46 19.46 0 0 1-1.23 5.77c.06.19.14.24.19.25.56.11 2-1 3.07-2.58s2.54-4.46 1.59-7.16c-.71-2-2.69-3.52-5.87-4.5a24.6 24.6 0 0 0-3.41-.79 12.05 12.05 0 0 1-4.26-1.44 4.84 4.84 0 0 1-2.62-4.29 4.58 4.58 0 0 1 2.14-4l.48-.26c.12 1.4.42 5.1.44 5.33a10.58 10.58 0 0 0 2.06.93l1.33.35.36.08a29.92 29.92 0 0 1 3.38.72c0-.56.26-4.77.27-4.88a1.67 1.67 0 0 0-.13-.75l-.15-.28.11.08.74.85a14.78 14.78 0 0 1 1.13 1.73 6.48 6.48 0 0 0 .7 1.06c2.57 2.43 6.51 2.24 11 1.75a.91.91 0 0 0 .33-.52s-.01.01-.01-.01zM98.47 10.65a20.58 20.58 0 0 1 4.47.3l.25-6.09c0-2.24-2.72-2.76-4.34-2.86-1.92-.12-3.26.27-4 1.16a3.17 3.17 0 0 0-.63 2.06s.24 5.3.27 5.89a33.57 33.57 0 0 1 3.98-.46z"/></g><path data-name="copyright" d="M176.31 24.4a8.77 8.77 0 1 1 8.78-8.78 8.78 8.78 0 0 1-8.78 8.78zm0-15.91a7.14 7.14 0 1 0 7 7.13 7.09 7.09 0 0 0-7-7.13zm4.43 11.76h-2.08l-1.75-3.37h-2.35v3.35h-1.82v-9.65h4.63a3 3 0 0 1 3.32 3.15 3 3 0 0 1-2 2.93zm-3.34-5a1.38 1.38 0 0 0 1.5-1.48 1.31 1.31 0 0 0-1.5-1.48h-2.84v3z"/></g></symbol><symbol viewBox="0 0 199.33 96.67" id="aoaLogoWhite"><title>aoaLogoWhite</title><g data-name="logo"><g data-name="aoa"><path d="M28.72 54.9L27.49 58a126.48 126.48 0 0 0 14.51.72 131.48 131.48 0 0 0 14-.62c-.51-1.21-13.81-32.6-14.42-34-4.12 8.28-9.77 22.83-12.86 30.8zM86 10.32a40.74 40.74 0 0 0-26.36 26 36.63 36.63 0 0 0-1.72 9.6l-.32.06-1.78-4.28-11.56-27.81-1.6 4.11 13 31.31 4.92 11.8a40.53 40.53 0 0 0 24.56 22.76l.76.25c.45.11.94.17 1-.1s-.14-.42-.37-.56a37.65 37.65 0 0 1-8.47-4.34 38.48 38.48 0 0 1-16.51-31.34 42.64 42.64 0 0 1 .37-5.36A38.46 38.46 0 0 1 72.8 19.73 36.74 36.74 0 0 1 86 11.29s1.11-.32 1-.85c-.14-.25-.57-.22-1-.12zM156.89 24.07c-.6 1.43-13.91 32.81-14.42 34a129.25 129.25 0 0 0 14 .63A124.16 124.16 0 0 0 171 58l-1.23-3.15c-3.11-7.93-8.77-22.48-12.88-30.78z" fill="none"/><path d="M195.88 86.11l-8.34-1.85a106.33 106.33 0 0 1-6.46-13.49L155.9 6.69h-5.34L140.2 31.54C133.41 15.92 118 6.25 99.67 6.25h-.87c-18.35 0-33.8 9.67-40.54 25.29L47.9 6.69h-5.34L17.39 70.77a107.65 107.65 0 0 1-6.45 13.49L2.6 86.11l-.4.09v2.18h27.91v-2.21l-.43-.07-11.42-1.8c1.06-5.54 4.48-14.22 6.78-20l.52-1.32H58.2a42.36 42.36 0 0 0 3.38 6.3 41.72 41.72 0 0 0 3.51 4.63 40.81 40.81 0 0 0 15.72 11.04c1.06.42 2.17.82 3.32 1.18a49.68 49.68 0 0 0 6.07 1.46c1 .18 2.1.33 3.24.46h.49a33.7 33.7 0 0 0 6.51.2l-3-4.45h-.62A30 30 0 0 1 72.7 67.28a35.35 35.35 0 0 1-1.82-4.19 46.79 46.79 0 0 1-2.57-15.87c0-10.84 3.13-20.08 9-26.72a28.85 28.85 0 0 1 21.25-9.74h1.26a28.86 28.86 0 0 1 21.26 9.74c5.92 6.64 9 15.88 9 26.72a46.55 46.55 0 0 1-2.57 15.87 35.34 35.34 0 0 1-1.82 4.19 30 30 0 0 1-23.5 16.46 7.68 7.68 0 0 1 4.64 4.06 10.41 10.41 0 0 0 1.35-.21 49.24 49.24 0 0 0 6.07-1.46c1.14-.36 2.26-.75 3.32-1.18a41.83 41.83 0 0 0 9.65-5.42 41.14 41.14 0 0 0 6.07-5.65 41.72 41.72 0 0 0 3.51-4.63 42.86 42.86 0 0 0 3.38-6.3h32.64c.16.42.52 1.32.52 1.32 2.3 5.81 5.72 14.49 6.78 20L168.8 86.1l-.43.07v2.21h27.91V86.2zM42 58.72A126.48 126.48 0 0 1 27.49 58l1.23-3.14c3.09-8 8.74-22.52 12.86-30.82.61 1.42 13.91 32.81 14.42 34a131.48 131.48 0 0 1-14 .68zm43.93-47.43a36.74 36.74 0 0 0-13.13 8.44 38.46 38.46 0 0 0-10.88 22.69 42.64 42.64 0 0 0-.37 5.36 38.48 38.48 0 0 0 16.53 31.35 37.65 37.65 0 0 0 8.47 4.34c.23.14.43.33.37.56s-.55.21-1 .1l-.76-.25a40.69 40.69 0 0 1-24.53-22.79l-4.92-11.8L42.66 18l1.6-4.09 11.57 27.75 1.78 4.28.32-.06a36.63 36.63 0 0 1 1.72-9.6A40.74 40.74 0 0 1 86 10.32c.42-.1.85-.13.91.12.09.56-.98.85-.98.85zm53.61 49a52.73 52.73 0 0 1-6.79 11.33c-3.67 4.61-8.47 9-12.88 11-9.93 4.51-10.64 1.19-8.37.16a43.55 43.55 0 0 0 9.78-5.35C128.16 72 133.11 63.1 135 56a37.35 37.35 0 0 0 .69-13.51A42.32 42.32 0 0 0 130.94 28a39.72 39.72 0 0 0-10-11.46c-5.24-3.78-10.66-5.23-11.45-5.9-1.39-1.19 4.73-2.86 15.87 5.09a40.15 40.15 0 0 1 11.89 14 44.83 44.83 0 0 1 4.06 12.12l12.94-30.3 2.37 6.79zm16.89-1.57a129.25 129.25 0 0 1-14-.63c.51-1.21 13.82-32.59 14.42-34 4.12 8.3 9.77 22.85 12.86 30.82L171 58a124.16 124.16 0 0 1-14.57.72z" fill="#fff"/><path d="M154.29 11.53l-12.94 30.3a44.83 44.83 0 0 0-4.06-12.12 40.15 40.15 0 0 0-11.89-14c-11.14-8-17.26-6.28-15.87-5.09.79.67 6.21 2.12 11.45 5.9a39.72 39.72 0 0 1 10 11.46 42.32 42.32 0 0 1 4.73 14.51A37.35 37.35 0 0 1 135 56c-1.87 7.11-6.82 16-13.7 21.42a43.55 43.55 0 0 1-9.78 5.35c-2.27 1-1.56 4.35 8.37-.16 4.41-2 9.21-6.37 12.88-11a52.73 52.73 0 0 0 6.79-11.33l17.12-42zM137.85 61.1a40.84 40.84 0 0 1-19.11 20.52 39.69 39.69 0 0 1-6.25 2.53c-.43.1-.87.14-.93-.11s.15-.43.39-.57a37.4 37.4 0 0 0 8.44-4.33 38.5 38.5 0 0 0 16.53-31.35 42.76 42.76 0 0 0-.37-5.36 38.49 38.49 0 0 0-10.88-22.69 36.56 36.56 0 0 0-13.17-8.44h.05s-1.12-.32-1-.83c.06-.24.46-.22.87-.13a40.68 40.68 0 0 1 26.39 26 36.63 36.63 0 0 1 1.72 9.6l.32.06 1.78-4.28 11.57-27.8c.25.63 1.55 4 1.6 4.09l-13 31.31z" fill="#fff"/></g><g data-name="staff" fill="#fff"><path d="M82 29.32c3.12 0 5.61 1.91 5.61 5.09 0 4.62-3.42 5.7-6.42 5.7H75.6v-.59c.75 0 1.26-.16 1.33-.38a2.29 2.29 0 0 0 .06-.67V31a2.32 2.32 0 0 0-.06-.68c-.06-.21-.58-.35-1.33-.38v-.59zm-1.8 8.57c0 1.34 0 1.25.71 1.25 1.8 0 3.44-.85 3.44-4.73 0-2.93-1.31-4.13-3.88-4.13h-.28v7.61zM112.26 34.34a5.73 5.73 0 0 1 6-5.46 5.32 5.32 0 0 1 5.44 5.39 5.8 5.8 0 0 1-6 5.76 5.31 5.31 0 0 1-5.44-5.69zm8.08.27c0-3.48-1.37-4.71-2.65-4.71-1 0-2.08.64-2.08 4s1.09 5.1 2.45 5.1c.94 0 2.28-.25 2.28-4.39zM104.41 93.86a6.54 6.54 0 0 0 .52-2.62 5.82 5.82 0 0 0-.38-2.15 6.94 6.94 0 0 0-4.15-3.89l-1.14-.41a5 5 0 0 1-1.14-.5 4.28 4.28 0 0 1-2.2-3.4v-.79a20.35 20.35 0 0 1 .77-5.22.51.51 0 0 0-.41-.23c-.35 0-1.31.16-2.69 2.45-.78 1.29-2.48 4.62-1.34 7.69.73 2 2.5 3.42 5.27 4.33l1.34.45 1.64.71c2.77 1.4 3.07 3.43 3.07 3.43a.49.49 0 0 0 .84.15z"/><path d="M106.65 71.2c-.63-1.83-2.48-3.22-5.51-4.12l-1.74-.45a11.63 11.63 0 0 1-2.34-.73 3.52 3.52 0 0 1-2.26-3.18v-.46a24.5 24.5 0 0 1 .91-5.64c-.06-.22-.15-.26-.19-.27-.57-.12-2 1-3.07 2.58-1.35 2-2.42 5.08-1.37 7.65.87 2.15 3.05 3.61 6.5 4.34h.24c.18 2.65.74 10.86.75 11.08l.09.06.48.27.38.17.29.08.5.17c0-.55.46-8.52.58-10.78l.31.16c1.38.76 2.08 1.69 2.08 2.75a2.19 2.19 0 0 1 0 .36c-.23 1.59-.94 5-1.19 5.9a1.32 1.32 0 0 0 .06.2c.42-.05 1.76-1.92 2.41-2.83a10.54 10.54 0 0 0 2.37-5.85 4.6 4.6 0 0 0-.28-1.46z"/><path d="M107.73 52.22c-.75-1.93-2.73-3.31-5.89-4.1a19.8 19.8 0 0 0-2.41-.44 20.2 20.2 0 0 1-3.43-.93c-1.54-.64-2.31-1.56-2.37-2.79v-.46a23.73 23.73 0 0 1 .92-5.63c-.06-.24-.16-.27-.2-.28-.56-.11-2 1-3.07 2.59a10.24 10.24 0 0 0-1.9 5.34 5.58 5.58 0 0 0 .35 2c.83 2.15 3.15 3.72 6.89 4.67h.08c.17 2.48.7 10.27.71 10.53a10.5 10.5 0 0 0 1.12.44l.69.19h.19l.61.12.91.21c0-.5.39-8.16.5-10.45l.39.15a3.17 3.17 0 0 1 2.18 2.95v.29a18.48 18.48 0 0 1-1.24 5.81c.06.22.14.26.17.27.44.08 1.73-.79 2.92-2.59a12 12 0 0 0 2.15-6 4.71 4.71 0 0 0-.27-1.89z"/><path d="M116.43 24.67a18 18 0 0 0-2.44-5 8.88 8.88 0 0 0-3-2.81 13.39 13.39 0 0 0-5.26-1.14h-.22l-.08-.07c-2.61-2.42-7.2-3.5-11.16-2.63-4.81 1.05-7.55 4.57-7.55 9.66v.16c.08 6.63 4.51 8.6 8.82 9.64h.08c.17 2.56.73 10.74.75 11a14.28 14.28 0 0 0 1.61.6l1 .25.68.12a19.05 19.05 0 0 1 2.1.4c0-.54.25-8.52.31-10.87l.49.2a3.12 3.12 0 0 1 2.23 2.72v.33a19.46 19.46 0 0 1-1.23 5.77c.06.19.14.24.19.25.56.11 2-1 3.07-2.58s2.54-4.46 1.59-7.16c-.71-2-2.69-3.52-5.87-4.5a24.6 24.6 0 0 0-3.41-.79 12.05 12.05 0 0 1-4.26-1.44 4.84 4.84 0 0 1-2.62-4.29 4.58 4.58 0 0 1 2.14-4l.48-.26c.12 1.4.42 5.1.44 5.33a10.58 10.58 0 0 0 2.06.93l1.33.35.36.08a29.92 29.92 0 0 1 3.38.72c0-.56.26-4.77.27-4.88a1.67 1.67 0 0 0-.13-.75l-.15-.28.11.08.74.85a14.78 14.78 0 0 1 1.13 1.73 6.48 6.48 0 0 0 .7 1.06c2.57 2.43 6.51 2.24 11 1.75a.91.91 0 0 0 .33-.52s-.01.01-.01-.01zM98.47 10.65a20.58 20.58 0 0 1 4.47.3l.25-6.09c0-2.24-2.72-2.76-4.34-2.86-1.92-.12-3.26.27-4 1.16a3.17 3.17 0 0 0-.63 2.06s.24 5.3.27 5.89a33.57 33.57 0 0 1 3.98-.46z"/></g><path data-name="copyright" d="M176.31 24.4a8.77 8.77 0 1 1 8.78-8.78 8.78 8.78 0 0 1-8.78 8.78zm0-15.91a7.14 7.14 0 1 0 7 7.13 7.09 7.09 0 0 0-7-7.13zm4.43 11.76h-2.08l-1.75-3.37h-2.35v3.35h-1.82v-9.65h4.63a3 3 0 0 1 3.32 3.15 3 3 0 0 1-2 2.93zm-3.34-5a1.38 1.38 0 0 0 1.5-1.48 1.31 1.31 0 0 0-1.5-1.48h-2.84v3z" fill="#fff"/></g></symbol><symbol viewBox="0 0 10.7 10.4" id="arrow"><title>arrow</title><path fill="#fff" d="M5.7 0L4.5 1.2l3 3.1H0v1.8h7.5l-3 3.1 1.2 1.2 5-5.2z"/></symbol><symbol viewBox="0 0 100 100" id="arrow1"><title>arrow1</title><path d="M50 17.94L9.41.69 50 99.31 90.59.69 50 17.94z"/></symbol><symbol viewBox="0 0 54 90" id="chevron-left"><title>chevron-left</title><path opacity=".2" d="M2.6 38.6l36-36c3.5-3.5 9.2-3.5 12.7 0s3.5 9.2 0 12.7L21.7 45l29.6 29.6c3.5 3.5 3.5 9.2 0 12.7-1.7 1.8-4 2.7-6.3 2.7s-4.6-.9-6.4-2.6l-36-36c-3.5-3.5-3.5-9.3 0-12.8z"/></symbol><symbol viewBox="0 0 54 90" id="chevron-right"><title>chevron-right</title><path opacity=".2" d="M51.4 51.4l-36 36C13.6 89.1 11.3 90 9 90s-4.6-.9-6.4-2.6c-3.5-3.5-3.5-9.2 0-12.7L32.3 45 2.6 15.4c-3.5-3.5-3.5-9.2 0-12.7s9.2-3.5 12.7 0l36 36c3.6 3.4 3.6 9.2.1 12.7z"/></symbol><symbol viewBox="0 0 552.89 572.98" id="icon-search"><title>Asset 2</title><g id="icon-search-Layer_2" data-name="Layer 2"><path class="cls-1" d="M245 0c9.53 1.35 19.12 2.35 28.58 4.09C367.78 21.45 442.08 96.6 458 191.2c10.64 63.12-2.78 121.05-39.42 173.57-.86 1.23-1.7 2.46-2.51 3.72a6.74 6.74 0 0 0-.31 1.63L552.89 507.3 487.27 573a28 28 0 0 0-3.07-4.3q-67.13-67.21-134.28-134.4c-2.74-2.75-4.52-3.4-8.32-1.33-44.23 24.07-91.45 33.26-141.36 26.29C106.38 446.13 33 381.58 8 290.09c-3.62-13.24-4.8-27.15-7.12-40.75-.22-1.45-.57-2.89-.88-4.34v-28c1.29-9.17 2.3-18.4 3.9-27.51C20.33 96.1 94.74 21.13 187.94 4.11 197.56 2.36 207.31 1.35 217 0zm124.27 230.89A138.44 138.44 0 0 0 230.85 92.2c-76.2-.08-138.25 61.74-138.63 138.14S154 369 230.55 369.17a138.24 138.24 0 0 0 138.72-138.28z" id="icon-search-Layer_1-2" data-name="Layer 1"/></g></symbol><symbol viewBox="0 0 54 46" id="iconBubble"><title>iconBubble</title><path d="M49 13h-6V5a4 4 0 0 0-4-4H5a4 4 0 0 0-4 4v22a4 4 0 0 0 4 4h2v9a1 1 0 0 0 1.71.71l9.7-9.71H21v2a4 4 0 0 0 4 4h12.58l7.71 7.71A1 1 0 0 0 47 44v-7h2a4 4 0 0 0 4-4V17a4 4 0 0 0-4-4zM18 29a1 1 0 0 0-.71.29L9 37.58V30a1 1 0 0 0-1-1H5a2 2 0 0 1-2-2V5a2 2 0 0 1 2-2h34a2 2 0 0 1 2 2v22a2 2 0 0 1-2 2zm33 4a2 2 0 0 1-2 2h-3a1 1 0 0 0-1 1v5.59l-6.29-6.29A1 1 0 0 0 38 35H25a2 2 0 0 1-2-2v-2h16a4 4 0 0 0 4-4V15h6a2 2 0 0 1 2 2zM30 13h-5V8a1 1 0 0 0-1-1h-4a1 1 0 0 0-1 1v5h-5a1 1 0 0 0-1 1v4a1 1 0 0 0 1 1h5v5a1 1 0 0 0 1 1h4a1 1 0 0 0 1-1v-5h5a1 1 0 0 0 1-1v-4a1 1 0 0 0-1-1zm-1 4h-5a1 1 0 0 0-1 1v5h-2v-5a1 1 0 0 0-1-1h-5v-2h5a1 1 0 0 0 1-1V9h2v5a1 1 0 0 0 1 1h5z"/></symbol><symbol viewBox="0 0 88 92.25" id="iconBulb"><title>iconBulb</title><path d="M44.25 15.12a2 2 0 0 0 2-2V4a2 2 0 0 0-4 0v9.08a2 2 0 0 0 2 2zM28.38 19.36a2 2 0 0 0 1.73-3l-4.53-7.85a2 2 0 0 0-3.46 2l4.53 7.86a2 2 0 0 0 1.73.99zM17.77 27.25l-7.86-4.54a2 2 0 0 0-2 3.46l7.86 4.54a2 2 0 0 0 2-3.46zM79.59 67.24a2 2 0 0 0 1-3.73L72.73 59a2 2 0 0 0-2 3.46L78.59 67a2 2 0 0 0 1 .24zM3.45 46.85h9.07a2 2 0 0 0 0-4H3.45a2 2 0 0 0 0 4zM85.05 42.85H76a2 2 0 0 0 0 4h9.07a2 2 0 0 0 0-4zM7.18 66.24A2 2 0 0 0 9.9 67l7.86-4.53a2 2 0 0 0-2-3.46l-7.86 4.5a2 2 0 0 0-.72 2.73zM81.32 23.44a2 2 0 0 0-2.73-.73l-7.86 4.54a2 2 0 0 0 1.85 3.54l.15-.08 7.86-4.54a2 2 0 0 0 .73-2.73zM60.12 19.36a2 2 0 0 0 1.73-1l4.53-7.86a2 2 0 0 0-3.46-2l-4.53 7.86a2 2 0 0 0 1.73 3zM29.49 66.35A3.29 3.29 0 0 1 30.86 69v3.4a7.49 7.49 0 0 0 1.44 4.41A4.35 4.35 0 0 0 30.86 80v3.82a7.11 7.11 0 0 0 7 7.18h12.67a7.11 7.11 0 0 0 7.1-7.11V80a4.35 4.35 0 0 0-1.44-3.22 7.49 7.49 0 0 0 1.44-4.41v-3a4 4 0 0 1 1.69-3.22 25.5 25.5 0 1 0-29.83.27zm24.14 17.5A3.11 3.11 0 0 1 50.56 87H38a3.11 3.11 0 0 1-3.11-3.11V80a.38.38 0 0 1 .38-.37h18a.38.38 0 0 1 .37.38zm-14.89-34.3h-1.83a1.71 1.71 0 1 1 1.83-1.74zm3 26.1v-23.1h5v23.1zm-19-31.43a21.48 21.48 0 0 1 20-20.13h1.42A21.55 21.55 0 0 1 57 62.89a8.05 8.05 0 0 0-3.32 6.44v3.07a3.54 3.54 0 0 1-2.16 3.25h-1.78v-23.1h1.83a4.71 4.71 0 1 0-4.8-5 1.53 1.53 0 0 0 0 .31v1.7h-5v-1.71a4.82 4.82 0 1 0-4.94 4.7h1.93v23.1H37a3.54 3.54 0 0 1-2.16-3.25V69a7.29 7.29 0 0 0-3-5.94 21.43 21.43 0 0 1-9-18.83zm27 5.33v-1.69a1.83 1.83 0 1 1 2 1.7h-2z"/></symbol><symbol viewBox="0 0 42 54" id="iconMicroscope"><title>iconMicroscope</title><path d="M34 45h-1v-4a6 6 0 0 0-.33-1.94A18.53 18.53 0 0 0 35 30c0-7.57-4.37-14-10.53-16.2A5 5 0 0 0 21 11.1V8a1 1 0 0 0-1-1h-1V2a1 1 0 0 0-1-1h-6a1 1 0 0 0-1 1v5h-1a1 1 0 0 0-1 1v20a1 1 0 0 0 1 1h1v5a1 1 0 0 0 1 1h6a1 1 0 0 0 1-1v-5h1a1 1 0 0 0 1-1v-7.1a5 5 0 0 0 2.27-1.14C26.55 21.33 29 25.29 29 30a12.79 12.79 0 0 1-1 5.08A5.94 5.94 0 0 0 21.35 39H9a1 1 0 0 0 0 2h12v4H6a5 5 0 0 0-5 5v2a1 1 0 0 0 1 1h38a1 1 0 0 0 1-1 7 7 0 0 0-7-7zM13 3h4v4h-4zm4 30h-4v-4h4zm2-6h-8V9h8v2.1a5 5 0 0 0 0 9.8zm1-8a3 3 0 1 1 3-3 3 3 0 0 1-3 3zm4.5-.85a5 5 0 0 0 .49-2c4.65 2.23 8 7.54 8 13.83a16.67 16.67 0 0 1-1.53 7 6 6 0 0 0-1.62-1.29A14.83 14.83 0 0 0 31 30c0-5.22-2.61-9.78-6.5-11.85zM3 51v-1a3 3 0 0 1 3-3h16a1 1 0 0 0 1-1v-5a4 4 0 0 1 8 0v5a1 1 0 0 0 1 1h2a5 5 0 0 1 4.9 4zm24-12a2 2 0 1 0 2 2 2 2 0 0 0-2-2z"/></symbol><symbol viewBox="0 0 516.74 212.31" id="omedLogoFull"><title>omedLogoFull</title><g data-name="marker"><path d="M497.24 64v-.07-.12c0-32.33-24.66-59-56.62-63.18l-.5-.07h-.31q-1.19-.14-2.39-.24l-.51-.05h-.66L434.4.06h-5l-1.8.09h-.68l-.53.05q-1.18.1-2.34.23H423.45c-29.32 3.72-52.53 26.38-56.3 55h25.35v23.48l-14.18 24.43c1.39 3.05 2.84 6.13 4 8.49 15.83 31.13 39 64.72 46.83 75.89a3.35 3.35 0 0 0 5.48 0c7.88-11.17 31-44.76 46.85-75.89 3.61-7.09 9.4-20.6 9.4-20.6s5.3-13.7 6-21.24a37.24 37.24 0 0 0 .32-4.65v-1.07-.32zM431.9 87a23.29 23.29 0 1 1 23.29-23.29A23.29 23.29 0 0 1 431.9 87z" fill="url(#omedLogoFull-a)"/><path d="M431.9 33.22a30.54 30.54 0 1 0 30.53 30.54 30.57 30.57 0 0 0-30.53-30.54zm0 53.83a23.29 23.29 0 1 1 23.29-23.29A23.29 23.29 0 0 1 431.9 87z" fill="url(#omedLogoFull-b)"/><path d="M451.12 173.67a1087.7 1087.7 0 0 1-6 8.87c18.2.93 31.42 3.73 31.42 7 0 4.07-20 7.36-44.63 7.36s-44.63-3.3-44.63-7.36c0-3.7 16.54-6.76 38.08-7.28-1.76-2.55-3.81-5.55-6.08-8.92-40.87 1.41-72.21 9.54-72.21 19.36 0 10.81 38 19.58 84.84 19.58s84.84-8.76 84.84-19.58c-.01-9.25-28.04-17.02-65.63-19.03z" fill="#d53847"/><path d="M387.27 189.58c0-3.7 16.54-6.76 38.08-7.28-1.76-2.55-3.81-5.55-6.08-8.92-40.87 1.41-72.21 9.54-72.21 19.36 0 6 11.89 11.45 30.57 15L397 194.16c-6.08-1.26-9.73-2.85-9.73-4.58z" fill="url(#omedLogoFull-c)"/></g><g data-name="tagline" fill="#8a8c8e"><path d="M19.23 158.09l-11-15.53h2.37l9.62 13.8 9.66-13.8h2.28l-11 15.49v10.21h-1.93zM31.06 159v-.07a9.67 9.67 0 0 1 9.66-9.8 9.57 9.57 0 0 1 9.58 9.73v.07a9.67 9.67 0 0 1-9.66 9.8 9.57 9.57 0 0 1-9.58-9.73zm17.29 0v-.07a7.85 7.85 0 0 0-7.71-8.11 7.72 7.72 0 0 0-7.64 8v.07a7.85 7.85 0 0 0 7.71 8.11 7.72 7.72 0 0 0 7.64-8zM55.47 161v-11.46h1.8v11.12c0 3.85 2.17 6.39 5.95 6.39a6.42 6.42 0 0 0 6.5-6.68v-10.83h1.8v18.72h-1.8v-3.49A7.33 7.33 0 0 1 63 168.7c-4.77 0-7.53-3.23-7.53-7.7zM91.16 164.22v4h-1.8v-26.8h1.8v12.26c1.62-2.46 4-4.63 7.71-4.63 4.52 0 9.1 3.63 9.1 9.73v.07c0 6.09-4.59 9.8-9.1 9.8a9 9 0 0 1-7.71-4.43zM106 159v-.07c0-4.92-3.41-8.08-7.34-8.08a7.84 7.84 0 0 0-7.64 8v.07a7.82 7.82 0 0 0 7.64 8c4.1.08 7.34-2.92 7.34-7.92zM112.31 158.94v-.07c0-5.43 3.82-9.77 8.88-9.77 5.25 0 8.59 4.26 8.59 9.8a4.62 4.62 0 0 1 0 .73h-15.56c.33 4.66 3.67 7.38 7.34 7.38a8.41 8.41 0 0 0 6.42-2.94l1.25 1.1a9.84 9.84 0 0 1-7.75 3.52c-4.91.01-9.17-3.92-9.17-9.75zm15.53-.92c-.26-3.78-2.42-7.27-6.72-7.27-3.71 0-6.57 3.12-6.9 7.27zM135.41 141.46h1.8v26.8h-1.8zM142.86 159v-.07a9.67 9.67 0 0 1 9.66-9.8 9.57 9.57 0 0 1 9.58 9.73v.07a9.67 9.67 0 0 1-9.66 9.8 9.57 9.57 0 0 1-9.58-9.73zm17.29 0v-.07a7.85 7.85 0 0 0-7.71-8.11 7.73 7.73 0 0 0-7.64 8v.07a7.85 7.85 0 0 0 7.71 8.11 7.73 7.73 0 0 0 7.64-8zM167.54 149.54h1.8V153a7.33 7.33 0 0 1 6.76-3.93c4.74 0 7.49 3.23 7.49 7.71v11.45h-1.8v-11.09c0-3.85-2.17-6.39-5.95-6.39a6.42 6.42 0 0 0-6.5 6.68v10.83h-1.8zM189.68 171.35l1.07-1.47a12.23 12.23 0 0 0 7.56 2.64c4.29 0 7.34-2.46 7.34-7.27v-2.72a9.31 9.31 0 0 1-7.82 4.33 8.87 8.87 0 0 1-9-8.81V158a8.91 8.91 0 0 1 9-8.88 9.31 9.31 0 0 1 7.82 4.19v-3.75h1.8v15.82a8.67 8.67 0 0 1-2.39 6.35 9.48 9.48 0 0 1-6.79 2.5 14.14 14.14 0 0 1-8.59-2.88zM205.76 158v-.07c0-4.33-3.85-7.12-7.75-7.12a6.92 6.92 0 0 0-7.23 7.09v.1a7.11 7.11 0 0 0 7.23 7.16c3.89-.02 7.75-2.88 7.75-7.16zM213.51 165.14h2.42v3.12h-2.42zM230.1 142.56h1.9v11.9h16.45v-11.9h1.91v25.7h-1.91v-12H232v12h-1.9zM256.32 158.94v-.07c0-5.43 3.82-9.77 8.89-9.77 5.25 0 8.59 4.26 8.59 9.8a4.62 4.62 0 0 1 0 .73h-15.57c.33 4.66 3.67 7.38 7.34 7.38a8.41 8.41 0 0 0 6.42-2.94l1.25 1.1a9.84 9.84 0 0 1-7.75 3.52c-4.91.01-9.17-3.92-9.17-9.75zm15.53-.92c-.26-3.78-2.42-7.27-6.72-7.27-3.71 0-6.57 3.12-6.9 7.27zM279.05 149.54h1.8v5.32a8.85 8.85 0 0 1 8.3-5.62v2H289c-4.33 0-8.11 3.27-8.11 9.36v7.67h-1.8zM291.64 158.94v-.07c0-5.43 3.82-9.77 8.88-9.77 5.25 0 8.59 4.26 8.59 9.8a4.62 4.62 0 0 1 0 .73h-15.56c.33 4.66 3.67 7.38 7.34 7.38a8.41 8.41 0 0 0 6.42-2.94l1.25 1.1a9.84 9.84 0 0 1-7.75 3.52c-4.91.01-9.17-3.92-9.17-9.75zm15.53-.92c-.26-3.78-2.42-7.27-6.72-7.27-3.71 0-6.57 3.12-6.9 7.27zM313.49 165.14h2.42v3.12h-2.42z"/></g><g data-name="logo"><path d="M306.51 79.6L296 81.9 292.14 66l19.24-5.25h16.3v64.93h-21.17zM363.35 79H334V61.18h52.86v16.21l-28 48.26h-23.41zM74 61.35h22.5l13.86 22.72 13.85-22.72h22.54V126h-21.53V94l-14.87 23H110L95.11 94v32H74zM210.77 126h24c26.14 0 39.26-13.58 39.26-32.7v-.19c0-19.12-12.84-31.78-38.52-31.78h-24.74zm21.61-18.84v-27H236c9.88 0 16.26 4.07 16.26 13.4v.19c0 9.33-6.37 13.39-16.26 13.39zm-25.87-28.07V61.35h-55.15V126h55.15v-17.72H169.1v-7H201V85.65h-31.9v-6.56zm74-17.27a6 6 0 0 0-4.46 0 5.42 5.42 0 0 0-1.79 1.2 5.6 5.6 0 0 0-1.19 1.8 5.93 5.93 0 0 0 0 4.44 5.5 5.5 0 0 0 3 3 6 6 0 0 0 4.46 0 5.54 5.54 0 0 0 1.79-1.26 5.46 5.46 0 0 0 1.19-1.78 5.76 5.76 0 0 0-1.19-6.22 5.47 5.47 0 0 0-1.79-1.2m-4.13.75a4.78 4.78 0 0 1 5.3 1 4.75 4.75 0 0 1 1 1.53 5.13 5.13 0 0 1 0 3.8 4.77 4.77 0 0 1-1 1.53 4.73 4.73 0 0 1-3.4 1.41 4.69 4.69 0 0 1-1.9-.38 4.63 4.63 0 0 1-2.51-2.56 5.19 5.19 0 0 1 0-3.8 4.66 4.66 0 0 1 2.51-2.56m.66 7.73v-2.9h1.35l1.84 2.9h.94l-1.94-2.9a2.86 2.86 0 0 0 .63-.19 1.67 1.67 0 0 0 .52-.35 1.54 1.54 0 0 0 .36-.54 2 2 0 0 0 .13-.74 1.71 1.71 0 0 0-.51-1.34 2.33 2.33 0 0 0-1.61-.47h-2.5v6.53zm1.78-3.6h-1.78v-2.2h1.47a3.79 3.79 0 0 1 .58 0 1.47 1.47 0 0 1 .49.18 1 1 0 0 1 .35.34 1.07 1.07 0 0 1 .13.56 1.11 1.11 0 0 1-.17.65.94.94 0 0 1-.44.34 2 2 0 0 1-.63.13" fill="#6d6e71"/><path d="M0 93c0 18.75 15.24 33.53 35.19 33.53s35.38-15 35.38-33.71v-.19c0-18.75-15.24-33.52-35.19-33.52S0 74.1 0 92.85V93m48.77 0c0 7.57-5.17 14.41-13.39 14.41S21.8 100.52 21.8 92.85v-.19c0-7.57 5.17-14.4 13.39-14.4s13.58 6.92 13.58 14.59V93" fill="#d53847"/></g></symbol><symbol viewBox="0 0 386.8 67.4" id="omedLogoPlain"><title>omedLogoPlain</title><path d="M306.5 20.5L296 22.8l-3.9-15.9 19.2-5.3h16.3v64.9h-21.2v-46zM363.3 19.8H334V2h52.9v16.2l-28 48.3h-23.4zM74 2.2h22.5l13.9 22.7 13.9-22.7h22.5v64.7h-21.5V34.8l-14.9 23h-.4l-14.9-23v32.1H74zm136.8 64.7h24c26.1 0 39.3-13.6 39.3-32.7V34c0-19.1-12.8-31.8-38.5-31.8h-24.8zM232.4 48V21h3.6c9.9 0 16.3 4.1 16.3 13.4v.2c0 9.3-6.4 13.4-16.3 13.4zm-25.9-28V2.2h-55.1v64.7h55.1V49.1h-37.4v-7H201V26.5h-31.9V20zm74-17.3a6.25 6.25 0 0 0-4.4 0 5.52 5.52 0 0 0-3 3 5.38 5.38 0 0 0-.4 2.2 5.38 5.38 0 0 0 .4 2.2 5.52 5.52 0 0 0 3 3 6.25 6.25 0 0 0 4.4 0 5.52 5.52 0 0 0 3-3 5.38 5.38 0 0 0 .4-2.2 5.38 5.38 0 0 0-.4-2.2 5.52 5.52 0 0 0-3-3m-4.1.7a4.71 4.71 0 0 1 3.8 0 5.6 5.6 0 0 1 1.5 1 4 4 0 0 1 1 1.5 5.85 5.85 0 0 1 .4 1.9 4.06 4.06 0 0 1-.4 1.9 4 4 0 0 1-1 1.5 4 4 0 0 1-1.5 1 4.71 4.71 0 0 1-3.8 0 5.6 5.6 0 0 1-1.5-1 4 4 0 0 1-1-1.5 5.85 5.85 0 0 1-.4-1.9 4.06 4.06 0 0 1 .4-1.9 4 4 0 0 1 1-1.5 5.6 5.6 0 0 1 1.5-1m.7 7.8V8.3h1.3l1.8 2.9h.9l-1.9-2.9a1.42 1.42 0 0 0 .6-.2 2.19 2.19 0 0 0 .5-.3 1 1 0 0 0 .4-.5 1.7 1.7 0 0 0 .1-.7 1.73 1.73 0 0 0-.5-1.3 2.35 2.35 0 0 0-1.6-.5h-2.5v6.5h.9v-.1zm1.7-3.6H277V5.3h2.1c.2 0 .3.1.5.2s.3.2.3.3.1.3.1.6a.85.85 0 0 1-.2.6.54.54 0 0 1-.4.3c-.1.2-.3.2-.6.3" fill="#6d6e71"/><path d="M0 33.9c0 18.8 15.2 33.5 35.2 33.5s35.4-15 35.4-33.7v-.2C70.6 14.8 55.3 0 35.4 0S0 15 0 33.7v.2m48.8 0c0 7.6-5.2 14.4-13.4 14.4s-13.6-6.9-13.6-14.6v-.2c0-7.6 5.2-14.4 13.4-14.4S48.8 26 48.8 33.7v.2" fill="#d53847"/></symbol></svg>