<svg xmlns="http://www.w3.org/2000/svg"><symbol viewBox="0 0 386.8 67.4" id="omedLogoPlain"><title>omedLogoPlain</title><path d="M306.5 20.5L296 22.8l-3.9-15.9 19.2-5.3h16.3v64.9h-21.2v-46zM363.3 19.8H334V2h52.9v16.2l-28 48.3h-23.4zM74 2.2h22.5l13.9 22.7 13.9-22.7h22.5v64.7h-21.5V34.8l-14.9 23h-.4l-14.9-23v32.1H74zm136.8 64.7h24c26.1 0 39.3-13.6 39.3-32.7V34c0-19.1-12.8-31.8-38.5-31.8h-24.8zM232.4 48V21h3.6c9.9 0 16.3 4.1 16.3 13.4v.2c0 9.3-6.4 13.4-16.3 13.4zm-25.9-28V2.2h-55.1v64.7h55.1V49.1h-37.4v-7H201V26.5h-31.9V20zm74-17.3a6.25 6.25 0 0 0-4.4 0 5.52 5.52 0 0 0-3 3 5.38 5.38 0 0 0-.4 2.2 5.38 5.38 0 0 0 .4 2.2 5.52 5.52 0 0 0 3 3 6.25 6.25 0 0 0 4.4 0 5.52 5.52 0 0 0 3-3 5.38 5.38 0 0 0 .4-2.2 5.38 5.38 0 0 0-.4-2.2 5.52 5.52 0 0 0-3-3m-4.1.7a4.71 4.71 0 0 1 3.8 0 5.6 5.6 0 0 1 1.5 1 4 4 0 0 1 1 1.5 5.85 5.85 0 0 1 .4 1.9 4.06 4.06 0 0 1-.4 1.9 4 4 0 0 1-1 1.5 4 4 0 0 1-1.5 1 4.71 4.71 0 0 1-3.8 0 5.6 5.6 0 0 1-1.5-1 4 4 0 0 1-1-1.5 5.85 5.85 0 0 1-.4-1.9 4.06 4.06 0 0 1 .4-1.9 4 4 0 0 1 1-1.5 5.6 5.6 0 0 1 1.5-1m.7 7.8V8.3h1.3l1.8 2.9h.9l-1.9-2.9a1.42 1.42 0 0 0 .6-.2 2.19 2.19 0 0 0 .5-.3 1 1 0 0 0 .4-.5 1.7 1.7 0 0 0 .1-.7 1.73 1.73 0 0 0-.5-1.3 2.35 2.35 0 0 0-1.6-.5h-2.5v6.5h.9v-.1zm1.7-3.6H277V5.3h2.1c.2 0 .3.1.5.2s.3.2.3.3.1.3.1.6a.85.85 0 0 1-.2.6.54.54 0 0 1-.4.3c-.1.2-.3.2-.6.3" fill="#6d6e71"/><path d="M0 33.9c0 18.8 15.2 33.5 35.2 33.5s35.4-15 35.4-33.7v-.2C70.6 14.8 55.3 0 35.4 0S0 15 0 33.7v.2m48.8 0c0 7.6-5.2 14.4-13.4 14.4s-13.6-6.9-13.6-14.6v-.2c0-7.6 5.2-14.4 13.4-14.4S48.8 26 48.8 33.7v.2" fill="#d53847"/></symbol></svg>