<?xml version="1.0" encoding="utf-8"?>
<!-- Generator: Adobe Illustrator 21.0.2, SVG Export Plug-In . SVG Version: 6.00 Build 0)  -->
<svg version="1.1" id="aoaLogo" xmlns="http://www.w3.org/2000/svg" xmlns:xlink="http://www.w3.org/1999/xlink" x="0px" y="0px"
	 viewBox="0 0 199.33 96.67" enable-background="new 0 0 199.33 96.67" xml:space="preserve">
<g>
	<path fill="#FFFFFF" d="M111.5,82.76c3.18-1.43,6.54-2.8,9.78-5.35c6.88-5.42,11.83-14.31,13.7-21.42
		c0.92-3.53,1.34-8.6,0.69-13.51c-0.76-5.67-2.8-11.17-4.73-14.51c-2.22-3.83-5.98-8.58-9.96-11.46c-5.24-3.78-10.66-5.23-11.45-5.9
		c-1.39-1.19,4.73-2.86,15.87,5.09c4.99,3.57,9.31,8.89,11.89,14.01c3.18,6.29,4.06,12.12,4.06,12.12l12.94-30.3l2.37,6.79
		l-17.12,41.97c0,0-2.41,5.84-6.79,11.33c-3.67,4.61-8.47,8.97-12.88,10.98C109.94,87.11,109.23,83.79,111.5,82.76z"/>
	<path fill="#FFFFFF" d="M52.03,42.71c-4.76-11.51-6.61-14.82-10.2-24.38l2.52-6.27l12.9,30.88c0,0,1.6-11.57,8.87-19.81
		c1.78-2.02,5.51-5.74,8.6-8.05c3.85-2.88,12.31-6.63,12.9-4.85c0.42,1.26-3.66,2.1-8.46,5.13c-1.75,1.1-3.58,2.71-5.35,4.43
		c-1.71,1.66-5.48,5.71-8.1,11.35c-1.57,3.38-2.35,7.59-3.06,11.48c-1.27,6.93,0.72,14.07,1.88,17.61
		c2.7,8.27,11.71,16.71,12.53,17.34c5.78,4.38,11.94,5.21,10.34,7.09c-1.3,1.52-19.81-5.95-26.71-21.5
		C56.59,53.97,53.32,45.84,52.03,42.71z"/>
	<g>
		<polygon fill="#1C446C" points="107.24,69.89 107.24,69.89 107.24,69.89 		"/>
		<polygon fill="#1C446C" points="105.14,87.77 105.14,87.77 105.14,87.77 		"/>
		<path fill="#1C446C" d="M106.93,87.8c1.14-0.13,0.34-0.04,1.35-0.21c2.06-0.36,4.1-0.85,6.07-1.46c1.14-0.36,2.26-0.75,3.32-1.18
			c3.48-1.39,6.73-3.22,9.65-5.42c2.21-1.67,4.25-3.58,6.07-5.65c1.27-1.45,2.45-3.01,3.51-4.63c1.3-1.99,2.43-4.12,3.38-6.3
			c0.62,0,31.97,0,32.64,0c0.16,0.42,0.52,1.32,0.52,1.32c2.3,5.81,5.72,14.49,6.78,20.03c-2.26,0.35-11,1.73-11.42,1.8l-0.43,0.07
			v2.21h27.91V86.2l-0.4-0.09c-0.78-0.17-7.07-1.57-8.34-1.85c-2.25-3.89-4.6-8.79-6.46-13.49L155.9,6.69h-5.34
			c0,0-9.53,22.86-10.36,24.85c-6.79-15.62-22.19-25.29-40.53-25.29c-0.01,0-0.33,0.01-0.33,0.01c0,0-0.11,0-0.12,0c0,0-0.1,0-0.1,0
			c-0.01,0-0.32-0.01-0.32-0.01c-18.35,0-33.75,9.67-40.54,25.29c-0.83-2-10.36-24.85-10.36-24.85h-5.34L17.39,70.77
			c-1.86,4.69-4.2,9.59-6.45,13.49c-1.27,0.28-7.56,1.67-8.34,1.85L2.2,86.2v2.18h27.91v-2.21l-0.43-0.07
			c-0.42-0.07-9.17-1.45-11.42-1.8c1.06-5.54,4.48-14.22,6.78-20.03c0,0,0.33-0.84,0.52-1.32c0.67,0,32.02,0,32.64,0
			c0.95,2.19,2.08,4.31,3.38,6.3c1.06,1.62,2.24,3.18,3.51,4.63c1.82,2.07,3.86,3.98,6.07,5.65c2.92,2.21,6.17,4.03,9.65,5.42
			c1.06,0.42,2.17,0.82,3.32,1.18c1.97,0.61,4.02,1.1,6.07,1.46c1.01,0.18,2.1,0.33,3.24,0.46l0.49,0.05c0,0,2.39,0.4,6.51,0.2
			l-2.97-4.45l-0.62-0.05c-10.26-0.87-19.28-7.04-24.15-16.52c-0.69-1.35-1.31-2.76-1.82-4.19c-1.7-4.72-2.57-10.06-2.57-15.87
			c0-10.84,3.13-20.08,9.05-26.72c5.47-6.14,13.02-9.59,21.25-9.74l0.23-0.01c0,0,0.28-0.01,0.4-0.01c0.12,0,0.4,0.01,0.4,0.01
			l0.23,0.01c8.24,0.15,15.79,3.6,21.26,9.74c5.92,6.64,9.05,15.88,9.05,26.72c0,5.81-0.86,11.15-2.57,15.87
			c-0.51,1.43-1.13,2.84-1.82,4.19c-4.76,9.28-13.51,15.39-23.5,16.46C102.28,83.74,105.54,84.61,106.93,87.8z M42.04,58.72
			c-4.47,0-9.65-0.1-14.55-0.68c0.34-0.87,1.23-3.14,1.23-3.14c3.09-7.97,8.74-22.52,12.86-30.82C42.19,25.5,55.49,56.89,56,58.1
			C51.06,58.63,46.19,58.72,42.04,58.72z M85.93,11.29l0.03,0c-4.97,1.87-9.43,4.7-13.16,8.44c-6.01,6.01-9.77,13.85-10.88,22.69
			c-0.25,1.98-0.37,3.73-0.37,5.36c0,12.35,6.33,24.37,16.53,31.35c2.63,1.8,5.46,3.25,8.47,4.34c0.23,0.14,0.43,0.33,0.37,0.56
			c-0.06,0.27-0.55,0.21-1,0.1c-0.26-0.08-0.51-0.16-0.76-0.25c-0.01,0-0.02-0.01-0.02-0.01v0c-1.85-0.62-3.65-1.37-5.41-2.26
			c-3.6-1.83-6.91-4.18-9.83-7c-4.01-3.87-7.22-8.55-9.27-13.52l-4.92-11.8c0,0-13-31.19-13.05-31.31c0.04-0.11,1.35-3.46,1.6-4.09
			c0.31,0.74,11.57,27.77,11.57,27.77l1.78,4.28l0.32-0.06c0.14-3.25,0.72-6.48,1.72-9.6c2.45-7.61,7.43-14.56,14.02-19.57
			c3.81-2.89,7.97-5.03,12.34-6.39c0.42-0.1,0.85-0.13,0.91,0.12C87.04,10.97,85.93,11.29,85.93,11.29z M137.85,61.1
			c-2.06,4.97-5.26,9.64-9.28,13.52c-2.92,2.82-6.22,5.18-9.83,7c-2.02,1.02-4.1,1.87-6.25,2.53c-0.43,0.1-0.87,0.14-0.93-0.11
			c-0.05-0.24,0.15-0.43,0.39-0.57c3-1.09,5.82-2.53,8.44-4.33c10.2-6.99,16.53-19,16.53-31.35c0-1.62-0.12-3.38-0.37-5.36
			c-1.11-8.84-4.88-16.69-10.88-22.69c-3.73-3.74-8.19-6.58-13.17-8.44l0.05,0.01c0,0-1.12-0.32-1-0.83
			c0.06-0.24,0.46-0.22,0.87-0.13c4.38,1.35,8.55,3.5,12.37,6.39c6.59,5.01,11.57,11.95,14.02,19.57c1,3.12,1.58,6.35,1.72,9.6
			l0.32,0.06l1.78-4.28c0,0,11.26-27.03,11.57-27.77c0.25,0.63,1.55,3.98,1.6,4.09c-0.05,0.12-13.05,31.31-13.05,31.31L137.85,61.1z
			 M156.43,58.72c-4.14,0-9.01-0.09-13.96-0.63c0.51-1.21,13.82-32.59,14.42-34.02c4.12,8.3,9.77,22.85,12.86,30.82
			c0,0,0.81,2.08,1.23,3.15C166.09,58.63,160.9,58.72,156.43,58.72z"/>
	</g>
	<g>
		<path fill="#1C446C" d="M82.04,29.32c3.12,0,5.61,1.91,5.61,5.09c0,4.62-3.42,5.7-6.42,5.7H75.6v-0.59
			c0.75-0.02,1.26-0.16,1.33-0.38c0.06-0.17,0.06-0.43,0.06-0.67v-7.5c0-0.25,0-0.51-0.06-0.68c-0.06-0.21-0.58-0.35-1.33-0.38
			v-0.59H82.04z M80.24,37.89c0,1.34-0.04,1.25,0.71,1.25c1.8,0,3.44-0.85,3.44-4.73c0-2.93-1.31-4.13-3.88-4.13h-0.28V37.89z"/>
		<path fill="#1C446C" d="M112.26,34.34c0-2.81,2.46-5.46,5.98-5.46c2.88,0,5.44,2.14,5.44,5.39c0,4.03-3.47,5.76-6,5.76
			C115.86,40.04,112.26,38.92,112.26,34.34z M120.34,34.61c0-3.48-1.37-4.71-2.65-4.71c-1.03,0-2.08,0.64-2.08,4.01
			c0,3.5,1.09,5.13,2.45,5.13C119.02,39.04,120.34,38.75,120.34,34.61z"/>
		<path fill="#1C446C" enable-background="new    " d="M104.41,93.86c0.19-0.39,0.52-1.39,0.52-2.62c0-0.77-0.12-1.49-0.38-2.15v0
			c-0.63-1.7-2.03-3.01-4.15-3.89c0,0-1.16-0.42-1.14-0.41c-0.4-0.12-0.77-0.28-1.14-0.5c-1.3-0.76-2.12-2.03-2.2-3.4L95.9,80.1
			c0-1.07,0.31-4.17,0.77-5.22c-0.05-0.09-0.18-0.21-0.41-0.23c-0.35-0.02-1.31,0.16-2.69,2.45c-0.78,1.29-2.48,4.62-1.34,7.69
			c0.73,1.97,2.5,3.42,5.27,4.33c0,0,1.31,0.44,1.34,0.45c0,0,1.62,0.7,1.64,0.71c2.77,1.4,3.07,3.43,3.07,3.43
			S103.87,94.4,104.41,93.86z"/>
		<path fill="#1C446C" enable-background="new    " d="M106.65,71.2L106.65,71.2c-0.63-1.83-2.48-3.22-5.51-4.12
			c0,0-1.75-0.45-1.74-0.45c-0.96-0.21-1.73-0.45-2.34-0.73c-1.44-0.67-2.18-1.71-2.26-3.18l-0.01-0.46c0-1.96,0.65-4.81,0.91-5.64
			c-0.06-0.22-0.15-0.26-0.19-0.27c-0.57-0.12-2,0.96-3.07,2.58c-1.35,2.02-2.42,5.08-1.37,7.65c0.87,2.15,3.05,3.61,6.5,4.34
			c0,0,0.09,0.02,0.09,0.02c0.03,0.01,0.09,0.02,0.15,0.03c0.18,2.65,0.74,10.86,0.75,11.08c0.04,0.02,0.09,0.06,0.09,0.06
			c0.15,0.09,0.31,0.18,0.48,0.27l0.38,0.17l0.29,0.08c0,0,0.26,0.09,0.5,0.17c0.03-0.55,0.46-8.52,0.58-10.78
			c0.1,0.05,0.21,0.1,0.31,0.16c1.38,0.76,2.08,1.69,2.08,2.75c0,0.12-0.01,0.24-0.03,0.36c-0.23,1.59-0.94,5.03-1.19,5.9
			c0.03,0.11,0.05,0.19,0.06,0.2c0.42-0.05,1.76-1.92,2.41-2.83c1.58-2.2,2.37-4.17,2.37-5.85
			C106.89,72.16,106.81,71.67,106.65,71.2z"/>
		<path fill="#1C446C" enable-background="new    " d="M107.73,52.22c-0.75-1.93-2.73-3.31-5.89-4.1c-0.78-0.19-1.56-0.34-2.41-0.44
			c-1.4-0.29-2.51-0.56-3.42-0.93c-1.54-0.64-2.31-1.56-2.37-2.79l-0.01-0.46c0-1.5,0.54-4.64,0.92-5.63
			c-0.06-0.24-0.16-0.27-0.2-0.28c-0.56-0.11-2,0.97-3.07,2.59c-0.79,1.18-1.9,3.22-1.9,5.34c0,0.65,0.11,1.3,0.35,1.95
			c0.83,2.15,3.15,3.72,6.89,4.67c0,0,0.03,0.01,0.08,0.02c0.17,2.48,0.7,10.27,0.71,10.53c0.32,0.15,0.7,0.3,1.12,0.44l0.69,0.19
			c0.07,0.01,0.12,0.03,0.19,0.05l0.61,0.12c0,0,0.56,0.13,0.91,0.21c0.02-0.5,0.39-8.16,0.5-10.45c0.14,0.05,0.27,0.1,0.39,0.15
			c1.45,0.61,2.15,1.55,2.22,2.93c0,0.09,0.01,0.19,0.01,0.29c0,1.86-0.79,4.88-1.24,5.81c0.06,0.22,0.14,0.26,0.17,0.27
			c0.44,0.08,1.73-0.79,2.92-2.59c0.64-0.96,2.15-3.48,2.15-5.97C108.08,53.46,107.96,52.81,107.73,52.22z"/>
		<path fill="#1C446C" enable-background="new    " d="M116.43,24.67c-0.56-1.81-1.42-3.59-2.44-5.02c-0.95-1.33-1.96-2.27-3-2.81
			c-1.22-0.63-3.09-1.04-5.26-1.14l-0.15-0.01l-0.07,0l-0.08-0.07c-2.61-2.42-7.2-3.5-11.16-2.63c-4.81,1.05-7.55,4.57-7.55,9.66
			v0.16c0.08,6.63,4.51,8.6,8.82,9.64l0.08,0.02c0.17,2.56,0.73,10.74,0.75,11.01c0.63,0.28,1.16,0.46,1.61,0.6l1,0.25l0.68,0.12
			c0.68,0.1,1.48,0.23,2.1,0.4c0.02-0.54,0.25-8.52,0.31-10.87c0.17,0.06,0.34,0.13,0.49,0.2c1.45,0.64,2.16,1.5,2.23,2.72
			c0.01,0.11,0.01,0.22,0.01,0.33c0,2.09-0.91,4.98-1.24,5.79c0.06,0.19,0.14,0.24,0.19,0.25c0.56,0.11,2-0.97,3.07-2.58
			c1-1.51,2.54-4.46,1.59-7.16c-0.71-2-2.69-3.52-5.87-4.5c-1-0.32-2.15-0.58-3.41-0.79c-1.68-0.27-3.15-0.77-4.26-1.44
			c-1.74-1.05-2.62-2.49-2.62-4.29c0-1.68,0.78-3.13,2.14-3.98c0.15-0.09,0.32-0.18,0.48-0.26c0.12,1.4,0.42,5.1,0.44,5.33
			c0.66,0.39,1.34,0.69,2.06,0.93l1.33,0.35c0.12,0.02,0.24,0.06,0.36,0.08c0.95,0.15,2.27,0.4,3.38,0.72
			c0.03-0.56,0.26-4.77,0.27-4.88c0-0.21,0-0.47-0.13-0.75c-0.05-0.09-0.1-0.19-0.15-0.28c0.03,0.03,0.07,0.05,0.11,0.08
			c0,0,0.73,0.84,0.74,0.85c0.49,0.63,0.82,1.2,1.13,1.73c0.25,0.43,0.47,0.81,0.7,1.06c2.57,2.43,6.51,2.24,11.02,1.75
			c0.15-0.14,0.33-0.35,0.33-0.52C116.43,24.71,116.43,24.69,116.43,24.67z"/>
		<path fill="#1C446C" enable-background="new    " d="M98.47,10.65c1.94,0,2.63-0.02,4.47,0.3l0.25-6.09
			c0-2.24-2.72-2.76-4.34-2.86c-1.92-0.12-3.26,0.27-3.98,1.16c-0.42,0.52-0.63,1.2-0.63,2.06c0,0,0.24,5.3,0.27,5.89
			C96.11,10.78,98.47,10.65,98.47,10.65z"/>
	</g>
	<path fill="#1C446C" d="M176.31,24.4c-4.85,0-8.78-3.93-8.78-8.78c0-4.83,3.93-8.75,8.78-8.75s8.78,3.93,8.78,8.75
		C185.08,20.47,181.15,24.4,176.31,24.4z M176.31,8.49c-3.88,0-7.03,3.2-7.03,7.13c0,3.95,3.15,7.15,7.03,7.15
		c3.88,0,7.03-3.2,7.03-7.15C183.34,11.69,180.19,8.49,176.31,8.49z M180.74,20.25h-2.08l-1.75-3.37h-2.35v3.35h-1.82v-9.65h4.63
		c2.04,0,3.32,1.24,3.32,3.15c0,1.38-0.8,2.5-2.01,2.93L180.74,20.25z M177.4,15.21c0.75,0,1.5-0.39,1.5-1.48s-0.58-1.48-1.5-1.48
		h-2.84v2.96C175.58,15.21,177.4,15.21,177.4,15.21z"/>
</g>
<g>
</g>
<g>
</g>
<g>
</g>
<g>
</g>
<g>
</g>
<g>
</g>
<g>
</g>
<g>
</g>
<g>
</g>
<g>
</g>
<g>
</g>
<g>
</g>
</svg>
