<svg id="1b7cd5c9-ddf1-4680-a1a1-9397e8468cde" data-name="bubble" xmlns="http://www.w3.org/2000/svg" viewBox="0 0 54 46"><title>iconBubble</title><path d="M49,13H43V5a4,4,0,0,0-4-4H5A4,4,0,0,0,1,5V27a4,4,0,0,0,4,4H7v9a1,1,0,0,0,1.71.71L18.41,31H21v2a4,4,0,0,0,4,4H37.58l7.71,7.71A1,1,0,0,0,47,44V37h2a4,4,0,0,0,4-4V17A4,4,0,0,0,49,13ZM18,29a1,1,0,0,0-.71.29L9,37.58V30a1,1,0,0,0-1-1H5a2,2,0,0,1-2-2V5A2,2,0,0,1,5,3H39a2,2,0,0,1,2,2V27a2,2,0,0,1-2,2Zm33,4a2,2,0,0,1-2,2H46a1,1,0,0,0-1,1v5.59l-6.29-6.29A1,1,0,0,0,38,35H25a2,2,0,0,1-2-2V31H39a4,4,0,0,0,4-4V15h6a2,2,0,0,1,2,2ZM30,13H25V8a1,1,0,0,0-1-1H20a1,1,0,0,0-1,1v5H14a1,1,0,0,0-1,1v4a1,1,0,0,0,1,1h5v5a1,1,0,0,0,.29.71A1,1,0,0,0,20,25h4a1,1,0,0,0,1-1V19h5a1,1,0,0,0,1-1V14a1,1,0,0,0-.29-.71A1,1,0,0,0,30,13Zm-1,4H24a1,1,0,0,0-1,1v5H21V18a1,1,0,0,0-1-1H15V15h5a1,1,0,0,0,1-1V9h2v5a1,1,0,0,0,1,1h5Z"/></svg>