<?xml version="1.0" encoding="utf-8"?>
<!-- Generator: Adobe Illustrator 21.1.0, SVG Export Plug-In . SVG Version: 6.00 Build 0)  -->
<svg version="1.1" id="microscope" xmlns="http://www.w3.org/2000/svg" xmlns:xlink="http://www.w3.org/1999/xlink" x="0px" y="0px"
	 viewBox="0 0 42 54" style="enable-background:new 0 0 42 54;" xml:space="preserve">
<title>iconMicroscope</title>
<path d="M34,45h-1v-4c0-0.7-0.1-1.3-0.3-1.9c1.5-2.8,2.3-5.9,2.3-9.1c0-7.6-4.4-14-10.5-16.2c-0.7-1.4-2-2.4-3.5-2.7V8
	c0-0.6-0.4-1-1-1h-1V2c0-0.6-0.4-1-1-1h-6c-0.6,0-1,0.4-1,1v5h-1C9.4,7,9,7.4,9,8v20c0,0.6,0.4,1,1,1h1v5c0,0.6,0.4,1,1,1h6
	c0.6,0,1-0.4,1-1v-5h1c0.6,0,1-0.4,1-1v-7.1c0.8-0.2,1.6-0.6,2.3-1.1C26.5,21.3,29,25.3,29,30c0,1.7-0.3,3.5-1,5.1
	c-2.9-0.5-5.7,1.2-6.6,3.9H9c-0.6,0-1,0.4-1,1s0.4,1,1,1h12v4H6c-2.8,0-5,2.2-5,5v2c0,0.3,0.1,0.5,0.3,0.7C1.5,52.9,1.7,53,2,53h38
	c0.6,0,1-0.4,1-1C41,48.1,37.9,45,34,45z M13,3h4v4h-4V3z M17,33h-4v-4h4V33z M19,27h-8V9h8v2.1c-2.7,0.5-4.5,3.2-3.9,5.9
	c0.4,2,1.9,3.5,3.9,3.9V27z M20,19c-1.7,0-3-1.3-3-3s1.3-3,3-3s3,1.3,3,3S21.7,19,20,19z M24.5,18.1c0.3-0.6,0.5-1.3,0.5-2
	c4.6,2.2,8,7.5,8,13.8c0,2.4-0.5,4.8-1.5,7c-0.5-0.5-1-1-1.6-1.3C30.6,33.9,31,32,31,30C31,24.8,28.4,20.2,24.5,18.1z M3,51v-1
	c0-1.7,1.3-3,3-3h16c0.6,0,1-0.4,1-1v-5c0-2.2,1.8-4,4-4s4,1.8,4,4v5c0,0.6,0.4,1,1,1h2c2.4,0,4.4,1.7,4.9,4H3z M27,39
	c-1.1,0-2,0.9-2,2s0.9,2,2,2s2-0.9,2-2S28.1,39,27,39z"/>
</svg>
