<?xml version="1.0" encoding="utf-8"?>
<!-- Generator: Adobe Illustrator 21.1.0, SVG Export Plug-In . SVG Version: 6.00 Build 0)  -->
<svg version="1.1" id="bubble" xmlns="http://www.w3.org/2000/svg" xmlns:xlink="http://www.w3.org/1999/xlink" x="0px" y="0px"
	 viewBox="0 0 54 46" style="enable-background:new 0 0 54 46;" xml:space="preserve">
<title>iconBubble</title>
<path d="M49,13h-6V5c0-2.2-1.8-4-4-4H5C2.8,1,1,2.8,1,5v22c0,2.2,1.8,4,4,4h2v9c0,0.6,0.4,1,1,1c0.3,0,0.5-0.1,0.7-0.3l9.7-9.7H21v2
	c0,2.2,1.8,4,4,4h12.6l7.7,7.7c0.4,0.4,1,0.4,1.4,0c0.2-0.2,0.3-0.4,0.3-0.7v-7h2c2.2,0,4-1.8,4-4V17C53,14.8,51.2,13,49,13z M18,29
	c-0.3,0-0.5,0.1-0.7,0.3L9,37.6V30c0-0.6-0.4-1-1-1H5c-1.1,0-2-0.9-2-2V5c0-1.1,0.9-2,2-2h34c1.1,0,2,0.9,2,2v22c0,1.1-0.9,2-2,2H18
	z M51,33c0,1.1-0.9,2-2,2h-3c-0.6,0-1,0.4-1,1v5.6l-6.3-6.3C38.5,35.1,38.3,35,38,35H25c-1.1,0-2-0.9-2-2v-2h16c2.2,0,4-1.8,4-4V15
	h6c1.1,0,2,0.9,2,2V33z M30,13h-5V8c0-0.6-0.4-1-1-1h-4c-0.6,0-1,0.4-1,1v5h-5c-0.6,0-1,0.4-1,1v4c0,0.6,0.4,1,1,1h5v5
	c0,0.3,0.1,0.5,0.3,0.7c0.2,0.2,0.4,0.3,0.7,0.3h4c0.6,0,1-0.4,1-1v-5h5c0.6,0,1-0.4,1-1v-4c0-0.3-0.1-0.5-0.3-0.7
	C30.5,13.1,30.3,13,30,13z M29,17h-5c-0.6,0-1,0.4-1,1v5h-2v-5c0-0.6-0.4-1-1-1h-5v-2h5c0.6,0,1-0.4,1-1V9h2v5c0,0.6,0.4,1,1,1h5V17
	z"/>
</svg>
