<?xml version="1.0" encoding="utf-8"?>
<!-- Generator: Adobe Illustrator 21.1.0, SVG Export Plug-In . SVG Version: 6.00 Build 0)  -->
<svg version="1.1" id="bulb" xmlns="http://www.w3.org/2000/svg" xmlns:xlink="http://www.w3.org/1999/xlink" x="0px" y="0px"
	 viewBox="0 0 88 92.2" style="enable-background:new 0 0 88 92.2;" xml:space="preserve">
<title>iconBulb</title>
<path d="M44.2,15.1c1.1,0,2-0.9,2-2V4c0-1.1-0.9-2-2-2s-2,0.9-2,2v9.1C42.2,14.2,43.1,15.1,44.2,15.1C44.2,15.1,44.2,15.1,44.2,15.1
	z"/>
<path d="M28.4,19.4c1.1,0,2-0.9,2-2c0-0.4-0.1-0.7-0.3-1l-4.5-7.9c-0.6-0.9-1.8-1.2-2.8-0.6c-0.9,0.6-1.2,1.7-0.7,2.6l4.5,7.9
	C27,19,27.7,19.4,28.4,19.4z"/>
<path d="M17.8,27.2l-7.9-4.5c-1-0.5-2.2-0.1-2.7,0.8c-0.5,0.9-0.2,2.1,0.7,2.6l7.9,4.5c0.3,0.2,0.6,0.3,1,0.3c1.1,0,2-0.9,2-2
	C18.8,28.3,18.4,27.6,17.8,27.2z"/>
<path d="M79.6,67.2c1.1,0,2-0.9,2-2c0-0.7-0.4-1.4-1-1.7L72.7,59c-1-0.5-2.2-0.1-2.7,0.8c-0.5,0.9-0.2,2.1,0.7,2.6l7.9,4.5
	C78.9,67.2,79.2,67.2,79.6,67.2z"/>
<path d="M3.5,46.8h9.1c1.1,0,2-0.9,2-2s-0.9-2-2-2H3.5c-1.1,0-2,0.9-2,2S2.3,46.8,3.5,46.8z"/>
<path d="M85.1,42.8H76c-1.1,0-2,0.9-2,2s0.9,2,2,2h9.1c1.1,0,2-0.9,2-2S86.2,42.8,85.1,42.8L85.1,42.8z"/>
<path d="M7.2,66.2c0.5,1,1.8,1.3,2.7,0.8c0,0,0,0,0,0l7.9-4.5c0.9-0.6,1.2-1.8,0.6-2.8c-0.6-0.9-1.7-1.2-2.6-0.7l-7.9,4.5
	C7,64.1,6.6,65.3,7.2,66.2z"/>
<path d="M81.3,23.4c-0.6-1-1.8-1.3-2.7-0.7l-7.9,4.5c-1,0.5-1.4,1.7-0.8,2.7c0.5,1,1.7,1.4,2.7,0.8c0,0,0.1-0.1,0.1-0.1l7.9-4.5
	C81.5,25.6,81.9,24.4,81.3,23.4z"/>
<path d="M60.1,19.4c0.7,0,1.4-0.4,1.7-1l4.5-7.9c0.5-1,0.1-2.2-0.8-2.7c-0.9-0.5-2.1-0.2-2.6,0.7l-4.5,7.9c-0.6,1-0.2,2.2,0.7,2.7
	C59.4,19.3,59.8,19.4,60.1,19.4z"/>
<path d="M29.5,66.3c0.9,0.6,1.4,1.6,1.4,2.7v3.4c0,1.6,0.5,3.1,1.4,4.4c-0.9,0.8-1.4,2-1.4,3.2v3.8c0,3.9,3.1,7.1,7,7.2
	c0,0,0.1,0,0.1,0h12.5c3.9,0,7.1-3.2,7.1-7.1V80c0-1.2-0.5-2.4-1.4-3.2c0.9-1.3,1.4-2.8,1.4-4.4v-3c0-1.3,0.6-2.5,1.7-3.2
	c11.3-8.3,13.8-24.3,5.4-35.6c-0.9-1.2-1.9-2.4-3.1-3.5c-10.3-9.7-26.4-9.2-36,1.1s-9.2,26.4,1.1,36C27.6,65,28.5,65.7,29.5,66.3
	L29.5,66.3z M53.6,83.8c0,1.7-1.4,3.1-3.1,3.1c0,0,0,0,0,0H38c-1.7,0-3.1-1.4-3.1-3.1l0,0V80c0-0.2,0.2-0.4,0.4-0.4h18
	c0.2,0,0.4,0.2,0.4,0.4L53.6,83.8z M38.7,49.5h-1.8c-0.9-0.1-1.7-0.9-1.6-1.8c0.1-0.9,0.9-1.7,1.8-1.6c0.9,0.1,1.6,0.8,1.6,1.7l0,0
	V49.5z M41.7,75.7V52.5h5v23.1H41.7z M22.7,44.2c0.7-10.8,9.2-19.4,20-20.1c0.5,0,1,0,1.4,0c11.9,0,21.5,9.6,21.5,21.5
	c0,6.8-3.2,13.2-8.6,17.3c-2.1,1.5-3.3,3.9-3.3,6.4v3.1c0,1.4-0.9,2.7-2.2,3.2h-1.8V52.5h1.8c2.6-0.1,4.7-2.2,4.6-4.8
	c-0.1-2.6-2.2-4.7-4.8-4.6c-2.4,0.1-4.5,2-4.6,4.4c0,0.1,0,0.2,0,0.3v1.7h-5v-1.6c0,0,0,0,0-0.1c0.1-2.7-2-4.9-4.7-4.9
	c-2.7-0.1-4.9,2-4.9,4.7s2,4.9,4.7,4.9c0,0,0.1,0,0.1,0h1.8v23.1H37c-1.3-0.6-2.2-1.8-2.2-3.2V69c0-2.4-1.1-4.6-3-5.9
	C25.7,58.8,22.3,51.6,22.7,44.2L22.7,44.2z M49.7,49.6v-1.7l0,0c-0.1-1,0.7-1.9,1.7-2c1-0.1,1.9,0.7,2,1.7c0.1,1-0.7,1.9-1.7,2
	c0,0-0.1,0-0.1,0L49.7,49.6L49.7,49.6z"/>
</svg>
