<svg id="03300f64-046c-4278-9420-0f6015c9d33f" data-name="bulb" xmlns="http://www.w3.org/2000/svg" viewBox="0 0 88 92.25"><title>iconBulb</title><path d="M44.25,15.12a2,2,0,0,0,2-2V4a2,2,0,0,0-4,0v9.08A2,2,0,0,0,44.25,15.12Z"/><path d="M28.38,19.36a2,2,0,0,0,1.73-3L25.58,8.51a2,2,0,0,0-3.46,2l4.53,7.86A2,2,0,0,0,28.38,19.36Z"/><path d="M17.77,27.25,9.91,22.71a2,2,0,0,0-2,3.46l7.86,4.54a2,2,0,0,0,1,.27,2,2,0,0,0,1-3.73Z"/><path d="M79.59,67.24a2,2,0,0,0,1-3.73L72.73,59a2,2,0,0,0-2,3.46L78.59,67A2,2,0,0,0,79.59,67.24Z"/><path d="M3.45,46.85h9.07a2,2,0,0,0,0-4H3.45a2,2,0,1,0,0,4Z"/><path d="M85.05,42.85H76a2,2,0,0,0,0,4h9.07a2,2,0,1,0,0-4Z"/><path d="M7.18,66.24A2,2,0,0,0,9.91,67l7.86-4.53a2,2,0,0,0-2-3.46L7.91,63.51A2,2,0,0,0,7.18,66.24Z"/><path d="M81.32,23.44a2,2,0,0,0-2.73-.73l-7.86,4.54a2,2,0,1,0,2,3.46l7.86-4.54A2,2,0,0,0,81.32,23.44Z"/><path d="M60.12,19.36a2,2,0,0,0,1.73-1l4.53-7.86a2,2,0,0,0-3.46-2l-4.53,7.86a2,2,0,0,0,1.73,3Z"/><path d="M29.49,66.35A3.29,3.29,0,0,1,30.86,69V72.4a7.49,7.49,0,0,0,1.44,4.41A4.35,4.35,0,0,0,30.86,80v3.82A7.11,7.11,0,0,0,38,91H50.53a7.11,7.11,0,0,0,7.1-7.11V80a4.35,4.35,0,0,0-1.44-3.22,7.49,7.49,0,0,0,1.44-4.41V69.34a4,4,0,0,1,1.69-3.22A25.5,25.5,0,0,0,61.69,27a25.5,25.5,0,1,0-32.2,39.39Zm24.14,17.5A3.11,3.11,0,0,1,50.53,87H38a3.11,3.11,0,0,1-3.11-3.11V80a.38.38,0,0,1,.38-.37h18a.38.38,0,0,1,.37.38ZM38.74,49.55H36.91a1.71,1.71,0,1,1,1.83-1.74s0,0,0,0Zm3,26.1V52.55h5v23.1h-5Zm-19-31.43a21.48,21.48,0,0,1,20-20.13q.72,0,1.42,0a21.5,21.5,0,0,1,21.48,21.5A21.59,21.59,0,0,1,57,62.89a8.05,8.05,0,0,0-3.32,6.44V72.4a3.54,3.54,0,0,1-2.16,3.25H49.74V52.55h1.83a4.71,4.71,0,1,0-4.8-5,1.53,1.53,0,0,0,0,.31v1.7h-5V47.92s0,0,0-.07a4.82,4.82,0,1,0-4.82,4.7h1.81v23.1H37a3.54,3.54,0,0,1-2.16-3.25V69a7.29,7.29,0,0,0-3.05-5.94A21.43,21.43,0,0,1,22.79,44.23Zm27,5.33V47.86h0a1.83,1.83,0,1,1,1.84,1.7H49.74Z"/></svg>