<svg id="6aad6d6f-b8a0-41c1-b309-36590255130b" data-name="microscope" xmlns="http://www.w3.org/2000/svg" viewBox="0 0 42 54"><title>iconMicroscope</title><path d="M34,45H33V41a6,6,0,0,0-.33-1.94A18.53,18.53,0,0,0,35,30c0-7.57-4.37-14-10.53-16.2A5,5,0,0,0,21,11.1V8a1,1,0,0,0-1-1H19V2a1,1,0,0,0-1-1H12a1,1,0,0,0-1,1V7H10A1,1,0,0,0,9,8V28a1,1,0,0,0,1,1h1v5a1,1,0,0,0,1,1h6a1,1,0,0,0,1-1V29h1a1,1,0,0,0,1-1V20.9a5,5,0,0,0,2.27-1.14C26.55,21.33,29,25.29,29,30a12.79,12.79,0,0,1-1,5.08A5.94,5.94,0,0,0,21.35,39H9a1,1,0,0,0,0,2H21v4H6a5,5,0,0,0-5,5v2a1,1,0,0,0,.29.71A1,1,0,0,0,2,53H40a1,1,0,0,0,1-1A7,7,0,0,0,34,45ZM13,3h4V7H13Zm4,30H13V29h4Zm2-6H11V9h8v2.1a5,5,0,0,0,0,9.8Zm1-8a3,3,0,1,1,3-3A3,3,0,0,1,20,19Zm4.5-.85a5,5,0,0,0,.49-2c4.65,2.23,8,7.54,8,13.83a16.67,16.67,0,0,1-1.53,7,6,6,0,0,0-1.62-1.29A14.83,14.83,0,0,0,31,30C31,24.78,28.39,20.22,24.5,18.15ZM3,51V50a3,3,0,0,1,3-3H22a1,1,0,0,0,1-1V41a4,4,0,0,1,8,0v5a1,1,0,0,0,1,1h2a5,5,0,0,1,4.9,4ZM27,39a2,2,0,1,0,2,2A2,2,0,0,0,27,39Z"/></svg>