<?xml version="1.0" encoding="utf-8"?>
<!-- Generator: Adobe Illustrator 21.1.0, SVG Export Plug-In . SVG Version: 6.00 Build 0)  -->
<svg version="1.1" id="marker" xmlns="http://www.w3.org/2000/svg" xmlns:xlink="http://www.w3.org/1999/xlink" x="0px" y="0px"
	 viewBox="0 0 169.7 212.3" enable-background="new 0 0 169.7 212.3" xml:space="preserve">
<g>
	<g id="pin">
		<radialGradient id="SVGID_1_" cx="161.1821" cy="0.7348" r="95.8902" gradientUnits="userSpaceOnUse">
			<stop  offset="0" style="stop-color:#F1F2F2"/>
			<stop  offset="1" style="stop-color:#A7A9AC"/>
		</radialGradient>
		<path fill="url(#SVGID_1_)" d="M150.2,64C150.2,63.9,150.2,63.9,150.2,64c0-0.1,0-0.2,0-0.2c0-32.3-24.7-59-56.6-63.2
			c-0.2,0-0.3,0-0.5-0.1c-0.1,0-0.2,0-0.3,0c-0.8-0.1-1.6-0.2-2.4-0.2c-0.2,0-0.3,0-0.5-0.1c0,0,0,0,0,0c-0.2,0-0.4,0-0.7,0
			c-0.6,0-1.2-0.1-1.8-0.1c-0.3,0-0.5,0-0.8,0c-0.6,0-1.2,0-1.7,0c0,0,0,0,0,0c0,0,0,0,0,0c0,0,0,0,0,0c-0.6,0-1.2,0-1.7,0
			c-0.3,0-0.5,0-0.8,0c-0.6,0-1.2,0.1-1.8,0.1c-0.2,0-0.5,0-0.7,0c0,0,0,0,0,0c-0.2,0-0.4,0-0.5,0.1c-0.8,0.1-1.6,0.1-2.3,0.2
			c-0.1,0-0.2,0-0.3,0c-0.1,0-0.2,0-0.3,0C44.3,4.6,19.5,31.4,19.5,63.8c0,0,0,0.1,0,0.1c0,0,0,0,0,0.1h0c0,0.1,0,0.2,0,0.3
			c0,0.4,0,0.7,0,1.1c0,1.5,0.1,3,0.3,4.6c0.8,7.5,6,21.2,6,21.2s5.8,13.5,9.4,20.6l0,0c15.8,31.1,39,64.7,46.8,75.9
			c1.3,1.9,4.1,1.9,5.5,0c7.9-11.2,31-44.8,46.9-75.9l0,0c3.6-7.1,9.4-20.6,9.4-20.6s5.3-13.7,6-21.2c0.2-1.6,0.3-3.2,0.3-4.6
			c0-0.4,0-0.7,0-1.1C150.2,64.2,150.2,64.1,150.2,64L150.2,64z M84.8,87C72,87,61.5,76.6,61.5,63.8c0-12.9,10.4-23.3,23.3-23.3
			s23.3,10.4,23.3,23.3C108.1,76.6,97.7,87,84.8,87z"/>
		<radialGradient id="SVGID_2_" cx="62.6729" cy="112.4267" r="64.4597" gradientUnits="userSpaceOnUse">
			<stop  offset="0" style="stop-color:#E6E7E8"/>
			<stop  offset="1" style="stop-color:#8A8C8E"/>
		</radialGradient>
		<path fill="url(#SVGID_2_)" d="M84.8,33.2c-16.8,0-30.5,13.7-30.5,30.5S68,94.3,84.8,94.3c16.8,0,30.5-13.7,30.5-30.5
			S101.7,33.2,84.8,33.2z M84.8,87C72,87,61.5,76.6,61.5,63.8c0-12.9,10.4-23.3,23.3-23.3s23.3,10.4,23.3,23.3
			C108.1,76.6,97.7,87,84.8,87z"/>
	</g>
	<g id="landing">
		<path fill="#D53847" d="M104.1,173.7c-2.2,3.2-4.2,6.2-6,8.9c18.2,0.9,31.4,3.7,31.4,7c0,4.1-20,7.4-44.6,7.4s-44.6-3.3-44.6-7.4
			c0-3.7,16.5-6.8,38.1-7.3c-1.8-2.5-3.8-5.5-6.1-8.9C31.3,174.8,0,182.9,0,192.7c0,10.8,38,19.6,84.8,19.6s84.8-8.8,84.8-19.6
			C169.7,183.5,141.6,175.7,104.1,173.7z"/>
		<linearGradient id="SVGID_3_" gradientUnits="userSpaceOnUse" x1="36.1462" y1="191.1658" x2="61.7931" y2="153.3564">
			<stop  offset="0" style="stop-color:#D53847"/>
			<stop  offset="1" style="stop-color:#831924"/>
		</linearGradient>
		<path fill="url(#SVGID_3_)" d="M40.2,189.6c0-3.7,16.5-6.8,38.1-7.3c-1.8-2.5-3.8-5.5-6.1-8.9C31.3,174.8,0,182.9,0,192.7
			c0,6,11.9,11.5,30.6,15c6.8-4.8,14.2-10,19.4-13.6C43.9,192.9,40.2,191.3,40.2,189.6z"/>
	</g>
</g>
<g>
</g>
<g>
</g>
<g>
</g>
<g>
</g>
<g>
</g>
<g>
</g>
</svg>
