<?xml version="1.0" encoding="utf-8"?>
<!-- Generator: Adobe Illustrator 21.1.0, SVG Export Plug-In . SVG Version: 6.00 Build 0)  -->
<svg version="1.1" xmlns="http://www.w3.org/2000/svg" xmlns:xlink="http://www.w3.org/1999/xlink" x="0px" y="0px"
	 viewBox="0 0 331.3 152" style="enable-background:new 0 0 331.3 152;" xml:space="preserve">
<style type="text/css">
	.st0{display:none;}
	.st1{display:inline;}
	.st2{fill:#E2231A;}
	.st3{fill:#414042;}
	.st4{fill:#BCBEC0;}
	.st5{fill:#1E22AA;}
</style>
<g id="old-version" class="st0">
	<g>
		<g class="st1">
			<g>
				<polygon class="st2" points="91.7,40.5 105.7,40.5 114.3,54.5 122.8,40.5 136.8,40.5 136.8,80.5 123.5,80.5 123.5,60.6 
					114.3,74.9 114,74.9 104.8,60.6 104.8,80.5 91.7,80.5 				"/>
				<g>
					<path class="st2" d="M176.4,40.5h15.3c15.9,0,23.8,7.8,23.8,19.7v0.1c0,11.8-8.1,20.2-24.3,20.2h-14.9V40.5z M192,68.8
						c6.1,0,10.1-2.5,10.1-8.3v-0.1c0-5.8-3.9-8.3-10.1-8.3h-2.2v16.7H192z"/>
					<path class="st2" d="M46,60.1V60c0-11.6,9.5-20.9,21.9-20.9c12.3,0,21.8,9.1,21.8,20.7V60c0,11.6-9.5,20.9-21.9,20.9
						S46,71.7,46,60.1 M76.2,60.1V60c0-4.7-3.3-9-8.4-9c-5.1,0-8.3,4.2-8.3,8.9V60c0,4.7,3.3,9,8.4,9C73,69,76.2,64.8,76.2,60.1"/>
				</g>
				<polygon class="st2" points="173.7,51.4 173.7,40.5 139.6,40.5 139.6,80.5 173.7,80.5 173.7,69.5 150.6,69.5 150.6,65.2 
					170.3,65.2 170.3,55.5 150.6,55.5 150.6,51.4 				"/>
				<g>
					<path class="st2" d="M221.7,38.6c0.5,0.2,1,0.5,1.4,0.9c0.4,0.4,0.7,0.9,0.9,1.4c0.2,0.5,0.3,1.1,0.3,1.7
						c0,0.6-0.1,1.2-0.3,1.7c-0.2,0.5-0.5,1-0.9,1.4c-0.4,0.4-0.9,0.7-1.4,0.9c-0.5,0.2-1.1,0.3-1.7,0.3c-0.6,0-1.2-0.1-1.7-0.3
						c-0.5-0.2-1-0.5-1.4-0.9c-0.4-0.4-0.7-0.9-0.9-1.4c-0.2-0.5-0.3-1.1-0.3-1.7c0-0.6,0.1-1.2,0.3-1.7c0.2-0.5,0.5-1,0.9-1.4
						c0.4-0.4,0.9-0.7,1.4-0.9c0.5-0.2,1.1-0.3,1.7-0.3C220.6,38.3,221.1,38.4,221.7,38.6 M218.5,39.2c-0.5,0.2-0.9,0.5-1.2,0.8
						c-0.3,0.3-0.6,0.7-0.8,1.2c-0.2,0.5-0.3,1-0.3,1.5c0,0.5,0.1,1,0.3,1.5c0.2,0.5,0.4,0.9,0.8,1.2c0.3,0.3,0.7,0.6,1.2,0.8
						c0.5,0.2,0.9,0.3,1.5,0.3c0.5,0,1-0.1,1.5-0.3c0.5-0.2,0.9-0.5,1.2-0.8c0.3-0.3,0.6-0.7,0.8-1.2c0.2-0.5,0.3-1,0.3-1.5
						c0-0.5-0.1-1-0.3-1.5c-0.2-0.5-0.5-0.9-0.8-1.2c-0.3-0.3-0.7-0.6-1.2-0.8c-0.5-0.2-0.9-0.3-1.5-0.3
						C219.4,38.9,218.9,39,218.5,39.2 M218.3,45.3v-5.1h2c0.6,0,1,0.1,1.3,0.4c0.3,0.2,0.4,0.6,0.4,1c0,0.2,0,0.4-0.1,0.6
						c-0.1,0.2-0.2,0.3-0.3,0.4c-0.1,0.1-0.3,0.2-0.4,0.3c-0.2,0.1-0.3,0.1-0.5,0.1l1.5,2.3h-0.7L220,43H219v2.3H218.3z M220.4,42.4
						c0.2,0,0.4,0,0.5-0.1c0.1-0.1,0.3-0.1,0.3-0.3c0.1-0.1,0.1-0.3,0.1-0.5c0-0.2,0-0.3-0.1-0.4c-0.1-0.1-0.2-0.2-0.3-0.3
						c-0.1-0.1-0.2-0.1-0.4-0.1c-0.1,0-0.3,0-0.5,0H219v1.8h0.8C220,42.5,220.2,42.5,220.4,42.4"/>
				</g>
				<polygon class="st2" points="239.3,50.8 232.7,52.3 230.6,43.9 242.1,40.6 250.1,40.6 250.1,80.3 239.3,80.3 				"/>
			</g>
			<g>
				<path class="st2" d="M270.6,51.6h-18.1V40.7H285v10l-17.2,29.7h-14.4L270.6,51.6z"/>
			</g>
		</g>
		<g class="st1">
			<g>
				<path class="st3" d="M46,107.6L46,107.6c0-2.5,1.9-4.7,4.6-4.7c2.8,0,4.6,2.2,4.6,4.7v0c0,2.5-1.9,4.7-4.6,4.7
					S46,110.1,46,107.6z M54.2,107.6L54.2,107.6c0-2.1-1.5-3.8-3.6-3.8s-3.5,1.7-3.5,3.7v0c0,2.1,1.5,3.7,3.6,3.7
					S54.2,109.7,54.2,107.6z"/>
				<path class="st3" d="M57.2,107.6L57.2,107.6c0-2.6,1.9-4.7,4.6-4.7c1.6,0,2.6,0.6,3.5,1.4l-0.7,0.7c-0.8-0.7-1.6-1.2-2.8-1.2
					c-2,0-3.5,1.6-3.5,3.7v0c0,2.1,1.5,3.7,3.5,3.7c1.2,0,2.1-0.5,2.9-1.3l0.7,0.7c-0.9,1-2,1.6-3.6,1.6
					C59.2,112.3,57.2,110.2,57.2,107.6z"/>
				<path class="st3" d="M69.8,104h-3v-0.9h7.1v0.9h-3v8.1h-1V104z"/>
				<path class="st3" d="M75.1,107.6L75.1,107.6c0-2.5,1.9-4.7,4.6-4.7s4.6,2.2,4.6,4.7v0c0,2.5-1.9,4.7-4.6,4.7
					S75.1,110.1,75.1,107.6z M83.2,107.6L83.2,107.6c0-2.1-1.5-3.8-3.6-3.8c-2.1,0-3.5,1.7-3.5,3.7v0c0,2.1,1.5,3.7,3.6,3.7
					C81.8,111.4,83.2,109.7,83.2,107.6z"/>
				<path class="st3" d="M86.7,103.1h3.9c1,0,1.8,0.3,2.4,0.8c0.4,0.4,0.6,0.9,0.6,1.4v0c0,1.2-0.7,1.8-1.4,2.1
					c1.1,0.3,1.9,0.9,1.9,2.2v0c0,1.6-1.3,2.5-3.3,2.5h-4V103.1z M90.4,107.1c1.2,0,2.1-0.6,2.1-1.6v0c0-0.9-0.7-1.5-2-1.5h-2.8v3.1
					H90.4z M90.8,111.2c1.4,0,2.2-0.6,2.2-1.6v0c0-1-0.8-1.6-2.4-1.6h-2.9v3.2H90.8z"/>
				<path class="st3" d="M96.3,103.1h6.5v0.9h-5.5v3.1h4.9v0.9h-4.9v3.2h5.6v0.9h-6.6V103.1z"/>
				<path class="st3" d="M105.2,103.1h3.9c1.1,0,2,0.3,2.6,0.9c0.4,0.4,0.7,1.1,0.7,1.8v0c0,1.5-1,2.4-2.5,2.6l2.8,3.7h-1.3
					l-2.6-3.5h-2.6v3.5h-1V103.1z M109,107.7c1.4,0,2.3-0.7,2.3-1.9v0c0-1.1-0.9-1.8-2.3-1.8h-2.8v3.7H109z"/>
				<path class="st3" d="M123.5,104h-5v-0.9h6.1v0.8l-4.1,8.3h-1.1L123.5,104z"/>
				<path class="st3" d="M126.1,107.8h5.1v1h-5.1V107.8z"/>
				<path class="st3" d="M134.3,104.1l-1.7,0.5l-0.2-0.8l2.2-0.8h0.8v9.1h-1V104.1z"/>
				<path class="st3" d="M139.2,104.1l-1.7,0.5l-0.2-0.8l2.2-0.8h0.8v9.1h-1V104.1z"/>
			</g>
			<g>
				<path class="st3" d="M158.5,103.1h3.4c2,0,3.4,1.1,3.4,2.9v0c0,2-1.6,3-3.6,3h-2.2v3.2h-1V103.1z M161.8,108
					c1.5,0,2.5-0.8,2.5-2v0c0-1.3-1-2-2.4-2h-2.3v4H161.8z"/>
				<path class="st3" d="M167.4,103.1h1v4h5.2v-4h1v9.1h-1v-4.1h-5.2v4.1h-1V103.1z"/>
				<path class="st3" d="M177.6,103.1h1v9.1h-1V103.1z"/>
				<path class="st3" d="M181.5,103.1h1v8.1h5.1v0.9h-6.1V103.1z"/>
				<path class="st3" d="M193.2,103h1l4.1,9.1h-1.1l-1.1-2.4h-4.9l-1.1,2.4h-1L193.2,103z M195.7,108.8l-2.1-4.6l-2.1,4.6H195.7z"/>
				<path class="st3" d="M200.3,103.1h3.1c2.8,0,4.8,2,4.8,4.5v0c0,2.5-2,4.5-4.8,4.5h-3.1V103.1z M203.4,111.2
					c2.3,0,3.8-1.6,3.8-3.6v0c0-2-1.5-3.6-3.8-3.6h-2.1v7.2H203.4z"/>
				<path class="st3" d="M210.7,103.1h6.5v0.9h-5.5v3.1h4.9v0.9h-4.9v3.2h5.6v0.9h-6.6V103.1z"/>
				<path class="st3" d="M219.6,103.1h1v8.1h5.1v0.9h-6.1V103.1z"/>
				<path class="st3" d="M227.8,103.1h3.4c2,0,3.4,1.1,3.4,2.9v0c0,2-1.6,3-3.6,3h-2.2v3.2h-1V103.1z M231.1,108
					c1.5,0,2.5-0.8,2.5-2v0c0-1.3-1-2-2.4-2h-2.3v4H231.1z"/>
				<path class="st3" d="M236.7,103.1h1v4h5.2v-4h1v9.1h-1v-4.1h-5.2v4.1h-1V103.1z"/>
				<path class="st3" d="M246.9,103.1h1v9.1h-1V103.1z"/>
				<path class="st3" d="M254.2,103h1l4.1,9.1h-1.1l-1.1-2.4h-4.9l-1.1,2.4h-1L254.2,103z M256.7,108.8l-2.1-4.6l-2.1,4.6H256.7z"/>
				<path class="st3" d="M260.6,113.3c0.6-0.2,0.9-0.6,0.9-1.1H261v-1.4h1.2v1.2c0,1-0.5,1.6-1.4,1.8L260.6,113.3z"/>
				<path class="st3" d="M268.9,103.1h3.4c2,0,3.4,1.1,3.4,2.9v0c0,2-1.6,3-3.6,3h-2.2v3.2h-1V103.1z M272.1,108
					c1.5,0,2.5-0.8,2.5-2v0c0-1.3-1-2-2.4-2h-2.3v4H272.1z"/>
				<path class="st3" d="M280.2,103h1l4.1,9.1h-1.1l-1.1-2.4h-4.9l-1.1,2.4h-1L280.2,103z M282.7,108.8l-2.1-4.6l-2.1,4.6H282.7z"/>
			</g>
			<rect x="148.9" y="101.6" class="st4" width="0.8" height="12"/>
		</g>
	</g>
</g>
<g id="sub">
	<g>
		<path class="st3" d="M45.9,109.6L45.9,109.6c0-3.2,2.4-6,5.9-6c3.5,0,5.9,2.8,5.9,6v0c0,3.2-2.4,6-5.9,6
			C48.2,115.6,45.9,112.8,45.9,109.6z M56.3,109.6L56.3,109.6c0-2.7-1.9-4.8-4.6-4.8s-4.5,2.1-4.5,4.8v0c0,2.6,1.9,4.8,4.6,4.8
			S56.3,112.2,56.3,109.6z"/>
		<path class="st3" d="M60.2,109.6L60.2,109.6c0-3.3,2.5-6,5.9-6c2.1,0,3.4,0.7,4.5,1.8l-0.9,1c-1-0.9-2.1-1.6-3.6-1.6
			c-2.6,0-4.5,2.1-4.5,4.8v0c0,2.7,1.9,4.8,4.5,4.8c1.6,0,2.6-0.6,3.7-1.7l0.9,0.8c-1.2,1.2-2.5,2-4.6,2
			C62.7,115.6,60.2,112.9,60.2,109.6z"/>
		<path class="st3" d="M76.3,105h-3.9v-1.2h9.1v1.2h-3.9v10.4h-1.3V105z"/>
		<path class="st3" d="M83,109.6L83,109.6c0-3.2,2.4-6,5.9-6c3.5,0,5.9,2.8,5.9,6v0c0,3.2-2.4,6-5.9,6C85.3,115.6,83,112.8,83,109.6
			z M93.4,109.6L93.4,109.6c0-2.7-1.9-4.8-4.6-4.8s-4.5,2.1-4.5,4.8v0c0,2.6,1.9,4.8,4.6,4.8S93.4,112.2,93.4,109.6z"/>
		<path class="st3" d="M97.8,103.7h4.9c1.3,0,2.4,0.4,3,1c0.5,0.5,0.7,1.1,0.7,1.9v0c0,1.5-0.9,2.3-1.8,2.7c1.4,0.4,2.5,1.2,2.5,2.8
			v0c0,2-1.7,3.2-4.2,3.2h-5.2V103.7z M105.2,106.8c0-1.1-0.9-1.9-2.6-1.9h-3.5v4h3.4C104.1,108.9,105.2,108.2,105.2,106.8
			L105.2,106.8z M102.8,110.1h-3.7v4.1h3.9c1.8,0,2.9-0.8,2.9-2.1v0C105.9,110.8,104.8,110.1,102.8,110.1z"/>
		<path class="st3" d="M110.1,103.7h8.4v1.2h-7.1v4h6.3v1.2h-6.3v4.1h7.2v1.2h-8.5V103.7z"/>
		<path class="st3" d="M121.5,103.7h5c1.4,0,2.6,0.4,3.3,1.2c0.6,0.6,0.9,1.4,0.9,2.3v0c0,1.9-1.3,3.1-3.2,3.4l3.6,4.7h-1.6
			l-3.4-4.5h-3.3v4.5h-1.3V103.7z M126.3,109.7c1.7,0,3-0.9,3-2.4v0c0-1.4-1.1-2.3-3-2.3h-3.6v4.7H126.3z"/>
		<path class="st3" d="M139.8,114.4c-0.9-0.9-1.5-2.1-1.5-4.5v0c0-3.5,1.8-6.3,4.8-6.3c1.4,0,2.4,0.5,3.4,1.3l-0.8,1
			c-0.9-0.7-1.7-1.1-2.7-1.1c-2.2,0-3.4,2.4-3.4,5v0.2c0.8-1.1,1.8-1.8,3.3-1.8c2.2,0,4,1.4,4,3.6v0c0,2.2-1.8,3.9-4.2,3.9
			C141.6,115.6,140.5,115.1,139.8,114.4z M145.7,111.7L145.7,111.7c0-1.5-1.2-2.5-2.8-2.5c-1.7,0-2.9,1.2-2.9,2.5v0
			c0,1.5,1.2,2.6,2.9,2.6C144.6,114.4,145.7,113.2,145.7,111.7z"/>
		<path class="st3" d="M149.4,109.7h6.6v1.3h-6.6V109.7z"/>
		<path class="st3" d="M165.7,109.5v-0.2c-0.7,1.1-1.8,1.8-3.3,1.8c-2.4,0-4-1.5-4-3.6v0c0-2.2,1.7-3.9,4.2-3.9
			c1.3,0,2.3,0.4,3.1,1.2c0.9,0.9,1.4,2.2,1.4,4.5v0c0,3.7-2,6.3-4.8,6.3c-1.5,0-2.6-0.6-3.6-1.4l0.8-1c0.9,0.8,1.8,1.2,2.9,1.2
			C164.5,114.4,165.7,112,165.7,109.5z M165.5,107.4L165.5,107.4c0-1.5-1.2-2.7-3-2.7c-1.7,0-2.8,1.3-2.8,2.7v0
			c0,1.5,1.2,2.5,2.9,2.5C164.4,110,165.5,108.7,165.5,107.4z"/>
		<path class="st4" d="M177.9,102.1h1.1v15.4h-1.1V102.1z"/>
		<path class="st3" d="M189.3,113.7l0.8-1c1.2,1.1,2.4,1.6,4,1.6c1.6,0,2.6-0.8,2.6-2v0c0-1.1-0.6-1.7-3-2.2
			c-2.7-0.6-3.9-1.4-3.9-3.4v0c0-1.8,1.6-3.2,3.8-3.2c1.7,0,2.9,0.5,4.1,1.4l-0.8,1c-1.1-0.9-2.2-1.3-3.4-1.3
			c-1.5,0-2.5,0.8-2.5,1.9v0c0,1.1,0.6,1.7,3.2,2.3c2.6,0.6,3.8,1.5,3.8,3.3v0c0,2-1.7,3.3-4,3.3
			C192.2,115.5,190.7,114.9,189.3,113.7z"/>
		<path class="st3" d="M205,103.7h1.2l5.3,11.7h-1.4l-1.4-3.1h-6.3l-1.4,3.1h-1.3L205,103.7z M208.3,111.1l-2.6-5.9l-2.7,5.9H208.3z
			"/>
		<path class="st3" d="M214.1,103.7h1.2l7.3,9.3v-9.3h1.3v11.6h-1l-7.5-9.5v9.5h-1.3V103.7z"/>
		<path class="st3" d="M232.7,103.7h4c3.6,0,6.2,2.5,6.2,5.8v0c0,3.3-2.5,5.8-6.2,5.8h-4V103.7z M234,105v9.2h2.7
			c2.9,0,4.8-2,4.8-4.6v0c0-2.6-1.9-4.6-4.8-4.6H234z"/>
		<path class="st3" d="M246.1,103.7h1.3v11.6h-1.3V103.7z"/>
		<path class="st3" d="M251.1,103.7h8.4v1.2h-7.1v4h6.3v1.2h-6.3v4.1h7.2v1.2h-8.5V103.7z"/>
		<path class="st3" d="M261.9,109.6L261.9,109.6c0-3.2,2.3-6,5.8-6c2,0,3.2,0.6,4.3,1.5l-0.8,1c-0.9-0.8-1.9-1.3-3.5-1.3
			c-2.6,0-4.4,2.2-4.4,4.8v0c0,2.8,1.8,4.8,4.6,4.8c1.3,0,2.6-0.5,3.4-1.2v-2.9h-3.5v-1.2h4.8v4.6c-1.1,1-2.7,1.8-4.7,1.8
			C264.2,115.6,261.9,112.9,261.9,109.6z"/>
		<path class="st3" d="M275.2,109.6L275.2,109.6c0-3.2,2.4-6,5.9-6c3.5,0,5.9,2.8,5.9,6v0c0,3.2-2.4,6-5.9,6
			C277.6,115.6,275.2,112.8,275.2,109.6z M285.7,109.6L285.7,109.6c0-2.7-1.9-4.8-4.6-4.8s-4.5,2.1-4.5,4.8v0c0,2.6,1.9,4.8,4.6,4.8
			S285.7,112.2,285.7,109.6z"/>
	</g>
</g>
<g id="logo">
	<g>
		<path class="st5" d="M45.9,59.7c0,11.6,9.4,20.8,21.8,20.8s21.9-9.3,21.9-20.9v-0.1c0-11.6-9.4-20.8-21.8-20.8
			c-12.4,0-21.9,9.3-21.9,20.9V59.7 M76.1,59.7c0,4.7-3.2,8.9-8.3,8.9c-5.2,0-8.4-4.3-8.4-9v-0.1c0-4.7,3.2-8.9,8.3-8.9
			c5.1,0,8.4,4.3,8.4,9V59.7"/>
		<g>
			<path class="st5" d="M239.8,50.6l-6.7,1.6l-2.1-8.5l11.6-3.3h8v40h-10.8V50.6z"/>
		</g>
		<g>
			<path class="st5" d="M91.7,40.1h14l8.6,14.1l8.6-14.1h14v40.1h-13.3V60.3l-9.2,14.3H114l-9.2-14.3v19.9H91.7V40.1z M176.4,80.1
				h14.9c16.2,0,24.3-8.4,24.3-20.3v-0.1c0-11.8-8-19.7-23.9-19.7h-15.3V80.1z M189.8,68.4V51.7h2.2c6.1,0,10.1,2.5,10.1,8.3v0.1
				c0,5.8-3.9,8.3-10.1,8.3H189.8z M173.8,51.1v-11h-34.2v40.1h34.2v-11h-23.2v-4.3h19.8v-9.7h-19.8v-4.1H173.8z"/>
		</g>
		<path class="st5" d="M252.9,68.6v-0.1c0-4.8,2.8-7.8,7.2-9.6c-3-1.5-5.8-4.3-5.8-8.6v-0.1c0-6.5,6.5-11.1,16-11.1
			c9.4,0,16,4.6,16,11.1v0.1c0,4.4-2.8,7.1-5.8,8.6c4,1.6,7.2,4.5,7.2,9.6v0.1c0,6.9-7.1,11.7-17.3,11.7
			C260,80.3,252.9,75.5,252.9,68.6z M274.9,67.1V67c0-2.2-1.8-3.9-4.6-3.9c-2.8,0-4.6,1.7-4.6,3.9v0.1c0,2,1.5,4,4.6,4
			C273.3,71.1,274.9,69.1,274.9,67.1z M274.4,51.9v-0.1c0-2-1.6-3.8-4.2-3.8c-2.5,0-4.2,1.8-4.2,3.8v0.1c0,2.2,1.7,3.9,4.2,3.9
			C272.7,55.8,274.4,54.2,274.4,51.9z"/>
		<g>
			<path class="st5" d="M221.7,38.6c0.5,0.2,1,0.5,1.4,0.9c0.4,0.4,0.7,0.9,0.9,1.4c0.2,0.5,0.3,1.1,0.3,1.7c0,0.6-0.1,1.2-0.3,1.7
				c-0.2,0.5-0.5,1-0.9,1.4c-0.4,0.4-0.9,0.7-1.4,0.9c-0.5,0.2-1.1,0.3-1.7,0.3c-0.6,0-1.2-0.1-1.7-0.3c-0.5-0.2-1-0.5-1.4-0.9
				c-0.4-0.4-0.7-0.9-0.9-1.4c-0.2-0.5-0.3-1.1-0.3-1.7c0-0.6,0.1-1.2,0.3-1.7c0.2-0.5,0.5-1,0.9-1.4c0.4-0.4,0.9-0.7,1.4-0.9
				c0.5-0.2,1.1-0.3,1.7-0.3C220.6,38.3,221.1,38.4,221.7,38.6 M218.5,39.2c-0.5,0.2-0.9,0.5-1.2,0.8c-0.3,0.3-0.6,0.7-0.8,1.2
				c-0.2,0.5-0.3,1-0.3,1.5c0,0.5,0.1,1,0.3,1.5c0.2,0.5,0.4,0.9,0.8,1.2c0.3,0.3,0.7,0.6,1.2,0.8c0.5,0.2,0.9,0.3,1.5,0.3
				c0.5,0,1-0.1,1.5-0.3c0.5-0.2,0.9-0.5,1.2-0.8c0.3-0.3,0.6-0.7,0.8-1.2c0.2-0.5,0.3-1,0.3-1.5c0-0.5-0.1-1-0.3-1.5
				c-0.2-0.5-0.5-0.9-0.8-1.2c-0.3-0.3-0.7-0.6-1.2-0.8c-0.5-0.2-0.9-0.3-1.5-0.3C219.4,38.9,218.9,39,218.5,39.2 M218.3,45.3v-5.1
				h2c0.6,0,1,0.1,1.3,0.4c0.3,0.2,0.4,0.6,0.4,1c0,0.2,0,0.4-0.1,0.6c-0.1,0.2-0.2,0.3-0.3,0.4c-0.1,0.1-0.3,0.2-0.4,0.3
				c-0.2,0.1-0.3,0.1-0.5,0.1l1.5,2.3h-0.7L220,43H219v2.3H218.3z M220.4,42.4c0.2,0,0.4,0,0.5-0.1c0.1-0.1,0.3-0.1,0.3-0.3
				c0.1-0.1,0.1-0.3,0.1-0.5c0-0.2,0-0.3-0.1-0.4c-0.1-0.1-0.2-0.2-0.3-0.3c-0.1-0.1-0.2-0.1-0.4-0.1c-0.1,0-0.3,0-0.5,0H219v1.8
				h0.8C220,42.5,220.2,42.5,220.4,42.4"/>
		</g>
	</g>
	<g>
	</g>
	<g>
	</g>
	<g>
	</g>
	<g>
	</g>
	<g>
	</g>
	<g>
	</g>
</g>
</svg>
