<?xml version="1.0" encoding="utf-8"?>
<!-- Generator: Adobe Illustrator 21.0.2, SVG Export Plug-In . SVG Version: 6.00 Build 0)  -->
<svg version="1.1" id="omedLogoPlain" xmlns="http://www.w3.org/2000/svg" xmlns:xlink="http://www.w3.org/1999/xlink" x="0px"
	 y="0px" viewBox="0 0 386.8 67.4" enable-background="new 0 0 386.8 67.4" xml:space="preserve">
<g>
	<g>
		<g>
			<path fill="#6D6E71" d="M306.5,20.5L296,22.8l-3.9-15.9l19.2-5.3h16.3v64.9h-21.2v-46H306.5z"/>
			<path fill="#6D6E71" d="M363.3,19.8H334V2h52.9v16.2l-28,48.3h-23.4L363.3,19.8z"/>
		</g>
		<path fill="#6D6E71" d="M74,2.2h22.5l13.9,22.7l13.9-22.7h22.5v64.7h-21.5V34.8l-14.9,23H110l-14.9-23v32.1H74V2.2z M210.8,66.9
			h24c26.1,0,39.3-13.6,39.3-32.7V34c0-19.1-12.8-31.8-38.5-31.8h-24.8V66.9z M232.4,48V21h3.6c9.9,0,16.3,4.1,16.3,13.4v0.2
			c0,9.3-6.4,13.4-16.3,13.4H232.4z M206.5,20V2.2h-55.1v64.7h55.1V49.1h-37.4v-7H201V26.5h-31.9V20H206.5z M280.5,2.7
			c-0.7-0.3-1.4-0.4-2.2-0.4c-0.8,0-1.5,0.1-2.2,0.4s-1.3,0.7-1.8,1.2s-0.9,1.1-1.2,1.8c-0.3,0.7-0.4,1.4-0.4,2.2s0.1,1.5,0.4,2.2
			s0.7,1.3,1.2,1.8s1.1,0.9,1.8,1.2c0.7,0.3,1.4,0.4,2.2,0.4c0.8,0,1.5-0.1,2.2-0.4c0.7-0.3,1.3-0.7,1.8-1.2s0.9-1.1,1.2-1.8
			c0.3-0.7,0.4-1.4,0.4-2.2s-0.1-1.5-0.4-2.2s-0.7-1.3-1.2-1.8S281.2,3,280.5,2.7 M276.4,3.4c0.6-0.3,1.2-0.4,1.9-0.4
			c0.7,0,1.3,0.1,1.9,0.4s1.1,0.6,1.5,1s0.8,0.9,1,1.5s0.4,1.2,0.4,1.9s-0.1,1.3-0.4,1.9c-0.2,0.6-0.6,1.1-1,1.5s-0.9,0.8-1.5,1
			c-0.6,0.3-1.2,0.4-1.9,0.4c-0.7,0-1.3-0.1-1.9-0.4c-0.6-0.3-1.1-0.6-1.5-1s-0.8-0.9-1-1.5s-0.4-1.2-0.4-1.9s0.1-1.3,0.4-1.9
			c0.2-0.6,0.6-1.1,1-1.5C275.3,4,275.8,3.7,276.4,3.4 M277.1,11.2V8.3h1.3l1.8,2.9h0.9l-1.9-2.9c0.2,0,0.4-0.1,0.6-0.2
			c0.2-0.1,0.4-0.2,0.5-0.3c0.2-0.1,0.3-0.3,0.4-0.5s0.1-0.5,0.1-0.7c0-0.6-0.2-1-0.5-1.3s-0.9-0.5-1.6-0.5h-2.5v6.5h0.9L277.1,11.2
			L277.1,11.2z M278.8,7.6c-0.2,0-0.5,0-0.7,0H277V5.3h1.5c0.2,0,0.4,0,0.6,0s0.3,0.1,0.5,0.2c0.1,0.1,0.3,0.2,0.3,0.3
			c0.1,0.1,0.1,0.3,0.1,0.6c0,0.3-0.1,0.5-0.2,0.6c-0.1,0.2-0.3,0.3-0.4,0.3C279.3,7.5,279.1,7.5,278.8,7.6"/>
	</g>
	<path fill="#D53847" d="M0,33.9c0,18.8,15.2,33.5,35.2,33.5s35.4-15,35.4-33.7v-0.2C70.6,14.8,55.3,0,35.4,0C15.4,0,0,15,0,33.7
		V33.9 M48.8,33.9c0,7.6-5.2,14.4-13.4,14.4c-8.3,0-13.6-6.9-13.6-14.6v-0.2c0-7.6,5.2-14.4,13.4-14.4c8.3,0,13.6,6.9,13.6,14.6
		L48.8,33.9"/>
</g>
</svg>
