<?xml version="1.0" encoding="utf-8"?>
<!-- Generator: Adobe Illustrator 21.1.0, SVG Export Plug-In . SVG Version: 6.00 Build 0)  -->
<svg version="1.1" id="omedLogoFull" xmlns="http://www.w3.org/2000/svg" xmlns:xlink="http://www.w3.org/1999/xlink" x="0px"
	 y="0px" viewBox="0 0 516.74 212.31" enable-background="new 0 0 516.74 212.31" xml:space="preserve">
<g id="marker">
	<radialGradient id="SVGID_1_" cx="508.1984" cy="0.7348" r="95.8888" gradientUnits="userSpaceOnUse">
		<stop  offset="0" style="stop-color:#F1F2F2"/>
		<stop  offset="1" style="stop-color:#A7A9AC"/>
	</radialGradient>
	<path fill="url(#SVGID_1_)" d="M497.24,63.96c0-0.02,0-0.05,0-0.07c0-0.04,0-0.08,0-0.12c0-32.33-24.66-59.02-56.62-63.18
		c-0.17-0.02-0.33-0.05-0.5-0.07c-0.1-0.01-0.2-0.02-0.31-0.03c-0.79-0.09-1.59-0.17-2.39-0.24c-0.17-0.01-0.34-0.04-0.51-0.05
		c-0.02-0.01-0.03-0.01-0.05-0.01c-0.22-0.02-0.44-0.02-0.66-0.03c-0.6-0.04-1.2-0.07-1.81-0.09c-0.25-0.01-0.5-0.03-0.76-0.04
		C433.07,0.01,432.49,0,431.91,0c0,0,0,0,0,0c0,0,0,0,0,0c0,0,0,0-0.01,0c-0.58,0-1.16,0.01-1.74,0.02
		c-0.26,0.01-0.51,0.03-0.76,0.04c-0.6,0.02-1.19,0.05-1.78,0.09c-0.22,0.01-0.45,0.02-0.68,0.03c-0.02,0-0.03,0-0.05,0.01
		c-0.18,0.01-0.35,0.04-0.53,0.05c-0.79,0.06-1.57,0.14-2.34,0.23c-0.11,0.01-0.22,0.02-0.34,0.03c-0.09,0.01-0.17,0.03-0.26,0.04
		c-29.32,3.72-52.53,26.38-56.3,55h25.35v23.35l-14.18,24.43c1.39,3.05,2.84,6.13,4.04,8.49l-0.01,0.01
		c15.83,31.13,38.96,64.72,46.83,75.89c1.34,1.9,4.15,1.9,5.48,0c7.88-11.17,31.02-44.76,46.85-75.89l-0.01-0.01
		c3.61-7.09,9.4-20.6,9.4-20.6s5.3-13.7,6.05-21.24c0.21-1.63,0.32-3.18,0.32-4.65c0-0.36-0.01-0.71-0.01-1.07
		C497.23,64.17,497.24,64.07,497.24,63.96L497.24,63.96z M431.9,87.05c-12.87,0-23.29-10.43-23.29-23.29
		c0-12.87,10.43-23.29,23.29-23.29s23.29,10.43,23.29,23.29C455.19,76.62,444.76,87.05,431.9,87.05z"/>
	<g>
		<radialGradient id="SVGID_2_" cx="409.7357" cy="112.4267" r="64.4597" gradientUnits="userSpaceOnUse">
			<stop  offset="0" style="stop-color:#E6E7E8"/>
			<stop  offset="1" style="stop-color:#8A8C8E"/>
		</radialGradient>
		<path fill="url(#SVGID_2_)" d="M431.9,33.22c-16.84,0-30.54,13.7-30.54,30.54s13.7,30.54,30.54,30.54
			c16.84,0,30.53-13.7,30.53-30.54S448.74,33.22,431.9,33.22z M431.9,87.05c-12.87,0-23.29-10.43-23.29-23.29
			c0-12.87,10.43-23.29,23.29-23.29s23.29,10.43,23.29,23.29C455.19,76.62,444.76,87.05,431.9,87.05z"/>
		<g>
			<path fill="#D53847" d="M451.12,173.67c-2.17,3.24-4.18,6.21-6.01,8.87c18.2,0.93,31.42,3.73,31.42,7.03
				c0,4.07-19.98,7.36-44.63,7.36s-44.63-3.3-44.63-7.36c0-3.7,16.54-6.76,38.08-7.28c-1.76-2.55-3.81-5.55-6.08-8.92
				c-40.87,1.41-72.21,9.54-72.21,19.36c0,10.81,37.98,19.58,84.84,19.58s84.84-8.76,84.84-19.58
				C516.74,183.45,488.71,175.68,451.12,173.67z"/>
			<linearGradient id="SVGID_3_" gradientUnits="userSpaceOnUse" x1="383.2089" y1="191.1658" x2="408.8558" y2="153.3564">
				<stop  offset="0" style="stop-color:#D53847"/>
				<stop  offset="1" style="stop-color:#831924"/>
			</linearGradient>
			<path fill="url(#SVGID_3_)" d="M387.27,189.58c0-3.7,16.54-6.76,38.08-7.28c-1.76-2.55-3.81-5.55-6.08-8.92
				c-40.87,1.41-72.21,9.54-72.21,19.36c0,6.05,11.89,11.45,30.57,15.04c6.84-4.81,14.24-10.01,19.37-13.62
				C390.92,192.9,387.27,191.31,387.27,189.58z"/>
		</g>
	</g>
</g>
<g id="tagline">
	<path fill="#8A8C8E" d="M19.23,158.09L8.22,142.56h2.39l9.62,13.8l9.66-13.8h2.28l-11.01,15.49v10.21h-1.91V158.09z"/>
	<path fill="#8A8C8E" d="M31.06,158.97v-0.07c0-5.25,4.08-9.8,9.66-9.8c5.54,0,9.58,4.48,9.58,9.73v0.07c0,5.25-4.08,9.8-9.66,9.8
		C35.09,168.7,31.06,164.22,31.06,158.97z M48.35,158.97v-0.07c0-4.52-3.38-8.11-7.71-8.11c-4.44,0-7.64,3.63-7.64,8.04v0.07
		c0,4.52,3.38,8.11,7.71,8.11C45.15,167.01,48.35,163.38,48.35,158.97z"/>
	<path fill="#8A8C8E" d="M55.47,160.99v-11.45h1.8v11.12c0,3.85,2.17,6.39,5.95,6.39c3.67,0,6.5-2.79,6.5-6.68v-10.83h1.8v18.72
		h-1.8v-3.49c-1.25,2.2-3.34,3.93-6.75,3.93C58.23,168.7,55.47,165.47,55.47,160.99z"/>
	<path fill="#8A8C8E" d="M91.16,164.22v4.04h-1.8v-26.8h1.8v12.26c1.62-2.46,4-4.63,7.71-4.63c4.52,0,9.1,3.63,9.1,9.73v0.07
		c0,6.09-4.59,9.8-9.1,9.8C95.13,168.7,92.7,166.57,91.16,164.22z M106.03,158.97v-0.07c0-4.92-3.41-8.08-7.34-8.08
		c-3.89,0-7.64,3.27-7.64,8.04v0.07c0,4.81,3.74,8.04,7.64,8.04C102.76,166.98,106.03,164,106.03,158.97z"/>
	<path fill="#8A8C8E" d="M112.31,158.94v-0.07c0-5.43,3.82-9.77,8.88-9.77c5.25,0,8.59,4.26,8.59,9.8c0,0.33,0,0.44-0.04,0.73
		h-15.53c0.33,4.66,3.67,7.38,7.34,7.38c2.9,0,4.88-1.29,6.42-2.94l1.25,1.1c-1.91,2.06-4.15,3.52-7.75,3.52
		C116.57,168.7,112.31,164.77,112.31,158.94z M127.84,158.02c-0.26-3.78-2.42-7.27-6.72-7.27c-3.71,0-6.57,3.12-6.9,7.27H127.84z"/>
	<path fill="#8A8C8E" d="M135.41,141.46h1.8v26.8h-1.8V141.46z"/>
	<path fill="#8A8C8E" d="M142.86,158.97v-0.07c0-5.25,4.08-9.8,9.66-9.8c5.54,0,9.58,4.48,9.58,9.73v0.07c0,5.25-4.08,9.8-9.66,9.8
		C146.9,168.7,142.86,164.22,142.86,158.97z M160.15,158.97v-0.07c0-4.52-3.38-8.11-7.71-8.11c-4.44,0-7.64,3.63-7.64,8.04v0.07
		c0,4.52,3.38,8.11,7.71,8.11C156.96,167.01,160.15,163.38,160.15,158.97z"/>
	<path fill="#8A8C8E" d="M167.54,149.54h1.8v3.49c1.25-2.2,3.34-3.93,6.76-3.93c4.74,0,7.49,3.23,7.49,7.71v11.45h-1.8v-11.12
		c0-3.85-2.17-6.39-5.95-6.39c-3.67,0-6.5,2.79-6.5,6.68v10.83h-1.8V149.54z"/>
	<path fill="#8A8C8E" d="M189.68,171.35l1.07-1.47c2.24,1.73,4.81,2.64,7.56,2.64c4.29,0,7.34-2.46,7.34-7.27v-2.72
		c-1.62,2.31-4.11,4.33-7.82,4.33c-4.52,0-8.99-3.45-8.99-8.81v-0.07c0-5.4,4.48-8.88,8.99-8.88c3.75,0,6.28,1.98,7.82,4.19v-3.75
		h1.8v15.82c0,2.72-0.88,4.85-2.39,6.35c-1.62,1.62-4.04,2.5-6.79,2.5C195.15,174.21,192.25,173.26,189.68,171.35z M205.76,158.02
		v-0.07c0-4.33-3.85-7.12-7.75-7.12c-3.93,0-7.23,2.72-7.23,7.09v0.07c0,4.22,3.38,7.16,7.23,7.16
		C201.9,165.14,205.76,162.28,205.76,158.02z"/>
	<path fill="#8A8C8E" d="M213.51,165.14h2.42v3.12h-2.42V165.14z"/>
	<path fill="#8A8C8E" d="M230.1,142.56h1.91v11.9h16.45v-11.9h1.91v25.7h-1.91v-12.04h-16.45v12.04h-1.91V142.56z"/>
	<path fill="#8A8C8E" d="M256.32,158.94v-0.07c0-5.43,3.82-9.77,8.89-9.77c5.25,0,8.59,4.26,8.59,9.8c0,0.33,0,0.44-0.04,0.73
		h-15.53c0.33,4.66,3.67,7.38,7.34,7.38c2.9,0,4.88-1.29,6.42-2.94l1.25,1.1c-1.91,2.06-4.15,3.52-7.75,3.52
		C260.58,168.7,256.32,164.77,256.32,158.94z M271.85,158.02c-0.26-3.78-2.42-7.27-6.72-7.27c-3.71,0-6.57,3.12-6.9,7.27H271.85z"/>
	<path fill="#8A8C8E" d="M279.05,149.54h1.8v5.32c1.47-3.34,4.59-5.76,8.3-5.62v1.98h-0.18c-4.33,0-8.11,3.27-8.11,9.36v7.67h-1.8
		V149.54z"/>
	<path fill="#8A8C8E" d="M291.64,158.94v-0.07c0-5.43,3.82-9.77,8.88-9.77c5.25,0,8.59,4.26,8.59,9.8c0,0.33,0,0.44-0.04,0.73
		h-15.53c0.33,4.66,3.67,7.38,7.34,7.38c2.9,0,4.88-1.29,6.42-2.94l1.25,1.1c-1.91,2.06-4.15,3.52-7.75,3.52
		C295.9,168.7,291.64,164.77,291.64,158.94z M307.18,158.02c-0.26-3.78-2.42-7.27-6.72-7.27c-3.71,0-6.57,3.12-6.9,7.27H307.18z"/>
	<path fill="#8A8C8E" d="M313.49,165.14h2.42v3.12h-2.42V165.14z"/>
</g>
<g id="logo">
	<g>
		<g>
			<path fill="#6D6E71" d="M306.51,79.6l-10.5,2.3l-3.87-15.93l19.24-5.25h16.3v64.93h-21.18V79.6z"/>
			<path fill="#6D6E71" d="M363.35,78.96h-29.38V61.18h52.86v16.21l-28,48.26h-23.39L363.35,78.96z"/>
		</g>
		<path fill="#6D6E71" d="M73.96,61.35H96.5l13.86,22.72l13.85-22.72h22.54v64.66h-21.53V93.96l-14.87,23h-0.37l-14.87-23v32.06
			H73.96V61.35z M210.77,126.01h24.02c26.14,0,39.26-13.58,39.26-32.7v-0.19c0-19.12-12.84-31.78-38.52-31.78h-24.76V126.01z
			 M232.39,107.17V80.19h3.6c9.88,0,16.26,4.07,16.26,13.4v0.19c0,9.33-6.37,13.39-16.26,13.39H232.39z M206.51,79.09V61.35h-55.15
			v64.66h55.15v-17.74h-37.4v-7.02h31.88V85.65H169.1v-6.56H206.51z M280.53,61.81c-0.69-0.29-1.44-0.43-2.23-0.43
			c-0.8,0-1.54,0.14-2.23,0.43c-0.69,0.29-1.29,0.69-1.79,1.2c-0.51,0.51-0.9,1.11-1.19,1.8c-0.29,0.69-0.43,1.43-0.43,2.22
			c0,0.8,0.14,1.54,0.43,2.22c0.29,0.68,0.68,1.28,1.19,1.78c0.5,0.51,1.1,0.9,1.79,1.19c0.69,0.29,1.43,0.43,2.23,0.43
			c0.8,0,1.54-0.14,2.23-0.43c0.69-0.29,1.28-0.69,1.79-1.19c0.5-0.5,0.91-1.1,1.19-1.78c0.29-0.68,0.43-1.42,0.43-2.22
			c0-0.79-0.14-1.53-0.43-2.22c-0.28-0.69-0.69-1.29-1.19-1.8C281.82,62.5,281.22,62.1,280.53,61.81 M276.4,62.57
			c0.58-0.25,1.21-0.38,1.9-0.38c0.68,0,1.31,0.13,1.89,0.38s1.09,0.6,1.51,1.03c0.43,0.44,0.76,0.94,1,1.53
			c0.24,0.59,0.36,1.22,0.36,1.9c0,0.68-0.12,1.31-0.36,1.9c-0.24,0.59-0.58,1.1-1,1.53c-0.42,0.44-0.93,0.78-1.51,1.03
			c-0.58,0.25-1.21,0.38-1.89,0.38c-0.69,0-1.33-0.13-1.9-0.38c-0.58-0.25-1.09-0.59-1.51-1.03c-0.43-0.44-0.76-0.95-1-1.53
			c-0.24-0.59-0.36-1.22-0.36-1.9c0-0.68,0.12-1.31,0.36-1.9c0.24-0.59,0.57-1.09,1-1.53C275.31,63.16,275.81,62.82,276.4,62.57
			 M277.06,70.29v-2.9h1.35l1.84,2.9h0.94l-1.94-2.9c0.22-0.04,0.43-0.1,0.63-0.19c0.2-0.08,0.37-0.2,0.52-0.35
			c0.15-0.15,0.27-0.33,0.36-0.54c0.08-0.21,0.13-0.46,0.13-0.74c0-0.59-0.17-1.04-0.51-1.34c-0.34-0.31-0.88-0.47-1.61-0.47h-2.5
			v6.53H277.06z M278.84,66.69c-0.24,0.01-0.48,0.02-0.72,0.02h-1.06v-2.26h1.47c0.2,0,0.39,0.02,0.58,0.04
			c0.19,0.03,0.35,0.09,0.49,0.18c0.15,0.09,0.27,0.2,0.35,0.34c0.09,0.14,0.13,0.33,0.13,0.56c0,0.27-0.05,0.49-0.17,0.65
			c-0.11,0.15-0.26,0.27-0.44,0.34C279.29,66.63,279.08,66.67,278.84,66.69"/>
	</g>
	<path fill="#D53847" d="M0,93.03c0,18.75,15.24,33.53,35.19,33.53s35.38-14.96,35.38-33.71v-0.19c0-18.75-15.24-33.52-35.19-33.52
		C15.43,59.14,0,74.1,0,92.85V93.03 M48.77,93.03c0,7.57-5.17,14.41-13.39,14.41c-8.31,0-13.58-6.93-13.58-14.59v-0.19
		c0-7.57,5.17-14.4,13.39-14.4c8.31,0,13.58,6.92,13.58,14.59V93.03"/>
</g>
<g>
</g>
<g>
</g>
<g>
</g>
<g>
</g>
<g>
</g>
<g>
</g>
</svg>
