<?xml version="1.0" encoding="utf-8"?>
<!-- Generator: Adobe Illustrator 21.1.0, SVG Export Plug-In . SVG Version: 6.00 Build 0)  -->
<svg version="1.1" id="omed2018LogoTagline" xmlns="http://www.w3.org/2000/svg" xmlns:xlink="http://www.w3.org/1999/xlink"
	 x="0px" y="0px" viewBox="0 0 241.8 78.7" style="enable-background:new 0 0 241.8 78.7;" xml:space="preserve">
<style type="text/css">
	.st0{fill:#414042;}
	.st1{fill:#BCBEC0;}
	.st2{fill:#1E22AA;}
</style>
<g id="tagline">
	<g>
		<path class="st0" d="M0,71L0,71c-0.1-3.1,2.4-5.8,5.6-5.8c0.1,0,0.1,0,0.2,0c3.1,0,5.7,2.5,5.7,5.6c0,0.1,0,0.2,0,0.2l0,0
			c0.1,3.1-2.5,5.7-5.6,5.8c-0.1,0-0.1,0-0.2,0c-3.1,0-5.7-2.4-5.7-5.6C0,71.2,0,71.1,0,71z M10.1,71L10.1,71
			c0.1-2.5-1.8-4.5-4.3-4.6c0,0-0.1,0-0.1,0c-2.4,0-4.4,2-4.4,4.4c0,0.1,0,0.1,0,0.2l0,0c-0.1,2.5,1.8,4.5,4.3,4.6c0,0,0.1,0,0.1,0
			c2.4,0,4.4-2,4.4-4.4C10.2,71.1,10.2,71.1,10.1,71L10.1,71z"/>
		<path class="st0" d="M13.9,71L13.9,71c-0.1-3.1,2.4-5.7,5.5-5.8c0.1,0,0.1,0,0.2,0c1.7,0,3.3,0.6,4.4,1.8l-0.9,0.9
			c-0.9-1-2.2-1.5-3.5-1.5c-2.4,0-4.4,2-4.4,4.5c0,0.1,0,0.1,0,0.2l0,0c-0.1,2.4,1.8,4.5,4.2,4.6c0,0,0.1,0,0.1,0
			c1.4,0,2.7-0.6,3.6-1.6l0.8,0.8c-1.1,1.3-2.8,2-4.5,2c-3.1,0-5.6-2.5-5.7-5.6C13.9,71.2,13.9,71.1,13.9,71z"/>
		<path class="st0" d="M29.5,66.5h-3.8v-1.2h8.8v1.2h-3.8v10.1h-1.3V66.5z"/>
		<path class="st0" d="M35.9,71L35.9,71c-0.1-3.2,2.3-5.8,5.5-6c3.2-0.1,5.8,2.3,6,5.5c0,0.2,0,0.3,0,0.5l0,0c0.1,3.2-2.3,5.8-5.5,6
			c-3.2,0.1-5.8-2.3-6-5.5C35.9,71.3,35.9,71.2,35.9,71z M46.1,71L46.1,71c0.1-2.5-1.8-4.5-4.3-4.6c0,0-0.1,0-0.1,0
			c-2.4,0-4.4,2-4.4,4.4c0,0.1,0,0.1,0,0.2l0,0c-0.1,2.5,1.8,4.5,4.3,4.6c0,0,0.1,0,0.1,0c2.4,0,4.4-2,4.4-4.4
			C46.1,71.1,46.1,71.1,46.1,71L46.1,71z"/>
		<path class="st0" d="M50.3,65.4h4.8c1.1-0.1,2.1,0.3,2.9,1c0.5,0.5,0.7,1.1,0.7,1.8l0,0c0,1.2-0.7,2.2-1.8,2.6
			c1.3,0.4,2.4,1.2,2.4,2.7l0,0c0,1.9-1.6,3.1-4.1,3.1h-5V65.4z M57.5,68.4c0-1.1-0.9-1.8-2.5-1.8h-3.4v3.9h3.3
			C56.4,70.4,57.5,69.7,57.5,68.4L57.5,68.4z M55.1,71.5h-3.5v4h3.8c1.7,0,2.8-0.8,2.8-2l0,0C58.1,72.2,57.1,71.5,55.1,71.5z"/>
		<path class="st0" d="M62.2,65.4h8.1v1.2h-6.9v3.8h6.1v1.2h-6.1v3.9h6.9v1.2h-8.2V65.4z"/>
		<path class="st0" d="M73.2,65.4h4.8c1.2-0.1,2.3,0.3,3.2,1.1c0.6,0.6,0.9,1.4,0.9,2.2l0,0c0,1.7-1.3,3.2-3.1,3.3l3.4,4.6h-1.6
			l-3.3-4.4h-3.2v4.4h-1.3V65.4z M77.9,71.1c1.7,0,2.9-0.9,2.9-2.3l0,0c0-1.4-1.1-2.2-2.9-2.2h-3.4v4.5H77.9z"/>
		<path class="st0" d="M91,75.7c-0.9-0.9-1.4-2.1-1.4-4.3l0,0c0-3.4,1.7-6.1,4.7-6.1c1.2,0,2.4,0.5,3.3,1.3l-0.7,1
			c-0.7-0.7-1.7-1.1-2.7-1.1c-2.2,0-3.3,2.3-3.3,4.8v0.2c0.7-1.1,1.9-1.8,3.2-1.7c2-0.1,3.7,1.4,3.8,3.3c0,0,0,0,0,0l0,0
			c0,2.1-1.8,3.8-3.9,3.7c0,0-0.1,0-0.1,0C92.8,76.8,91.8,76.4,91,75.7z M96.7,73.1L96.7,73.1c0-1.4-1.2-2.5-2.5-2.5
			c-0.1,0-0.1,0-0.2,0c-1.5-0.1-2.7,1-2.8,2.5c0,0,0,0,0,0l0,0c0,1.4,1.2,2.6,2.7,2.6c0,0,0.1,0,0.1,0c1.4,0.1,2.6-0.9,2.7-2.4
			C96.6,73.3,96.7,73.2,96.7,73.1z"/>
		<path class="st0" d="M100.3,71.2h6.4v1.2h-6.4V71.2z"/>
		<path class="st0" d="M110.4,66.6l-2.1,0.7l-0.3-1l2.8-0.9h0.9v11.3h-1.2V66.6z"/>
		<path class="st0" d="M114.5,71L114.5,71c0-3.2,1.9-5.8,4.8-5.8s4.7,2.6,4.7,5.8l0,0c0,3.2-1.9,5.8-4.8,5.8S114.5,74.2,114.5,71z
			 M122.7,71L122.7,71c0-2.5-1.3-4.7-3.4-4.7s-3.4,2.2-3.4,4.6l0,0c0,2.5,1.3,4.7,3.4,4.7S122.7,73.5,122.7,71z"/>
		<path class="st1" d="M134.5,63.8h1v14.9h-1V63.8z"/>
		<path class="st0" d="M145.5,75l0.8-0.9c1,1,2.4,1.6,3.9,1.6c1.5,0,2.5-0.8,2.5-1.9l0,0c0-1-0.6-1.6-2.9-2.1
			c-2.6-0.6-3.8-1.4-3.8-3.2l0,0c0-1.8,1.6-3.1,3.7-3.1c1.5-0.1,2.9,0.4,4,1.4l-0.7,1c-0.9-0.8-2.1-1.2-3.2-1.2
			c-1.5,0-2.4,0.8-2.4,1.8l0,0c0,1.1,0.6,1.7,3.1,2.2s3.7,1.5,3.7,3.2l0,0c0,1.9-1.6,3.2-3.8,3.2C148.5,76.8,146.8,76.2,145.5,75z"
			/>
		<path class="st0" d="M160.7,65.3h1.2l5.1,11.3h-1.4l-1.3-3h-6.1l-1.3,3h-1.3L160.7,65.3z M163.9,72.5l-2.6-5.7l-2.6,5.7H163.9z"/>
		<path class="st0" d="M169.5,65.4h1.2l7.1,9v-9h1.2v11.2h-1l-7.3-9.2v9.2h-1.2L169.5,65.4z"/>
		<path class="st0" d="M187.6,65.4h3.9c3.5,0,6,2.4,6,5.6l0,0c0,3.1-2.5,5.6-5.6,5.6c-0.1,0-0.2,0-0.4,0h-3.9V65.4z M188.8,66.5v8.9
			h2.6c2.4,0.2,4.5-1.6,4.6-4c0-0.1,0-0.3,0-0.4l0,0c0-2.4-1.9-4.4-4.3-4.5c-0.1,0-0.2,0-0.4,0L188.8,66.5z"/>
		<path class="st0" d="M200.5,65.4h1.3v11.2h-1.3V65.4z"/>
		<path class="st0" d="M205.3,65.4h8.1v1.2h-6.9v3.8h6.1v1.2h-6.1v3.9h6.9v1.2h-8.2V65.4z"/>
		<path class="st0" d="M215.8,71L215.8,71c-0.1-3.1,2.3-5.7,5.5-5.8c0.1,0,0.1,0,0.2,0c1.5-0.1,3,0.5,4.2,1.5l-0.8,1
			c-0.9-0.9-2.2-1.3-3.4-1.3c-2.4,0.1-4.3,2.1-4.3,4.5c0,0,0,0.1,0,0.1l0,0c-0.2,2.4,1.6,4.5,4,4.7c0.1,0,0.3,0,0.4,0
			c1.2,0,2.3-0.4,3.2-1.1v-2.8h-3.4v-1.2h4.6v4.5c-1.2,1.1-2.9,1.7-4.5,1.7c-3,0.1-5.6-2.3-5.7-5.3C215.8,71.3,215.8,71.2,215.8,71z
			"/>
		<path class="st0" d="M228.7,71L228.7,71c-0.1-3.2,2.3-5.8,5.5-6c3.2-0.1,5.8,2.3,6,5.5c0,0.2,0,0.3,0,0.5l0,0
			c0.1,3.2-2.3,5.8-5.5,6c-3.2,0.1-5.8-2.3-6-5.5C228.7,71.3,228.7,71.2,228.7,71z M238.8,71L238.8,71c0.1-2.5-1.8-4.5-4.3-4.6
			c0,0-0.1,0-0.1,0c-2.4,0-4.4,2-4.4,4.4c0,0.1,0,0.1,0,0.2l0,0c-0.1,2.5,1.8,4.5,4.3,4.6c0,0,0.1,0,0.1,0c2.4,0,4.4-2,4.4-4.4
			C238.8,71.1,238.8,71.1,238.8,71L238.8,71z"/>
	</g>
</g>
<g id="logo">
	<g>
		<path class="st2" d="M0,21.4C0,33,9.5,42.2,21.8,42.2s21.9-9.3,21.9-20.9v-0.1C43.8,9.6,34.3,0.4,22,0.4S0,9.7,0,21.3V21.4
			 M30.3,21.4c0,4.7-3.2,8.9-8.3,8.9s-8.4-4.3-8.4-9v-0.1c0-4.7,3.2-8.9,8.3-8.9s8.4,4.3,8.4,9V21.4"/>
		<path class="st2" d="M194,12.3l-6.7,1.6l-2.1-8.5l11.6-3.3h8V42H194V12.3z"/>
		<path class="st2" d="M45.9,1.8h14l8.5,14.1L77,1.8h13.9v40.1H77.6V22l-9.2,14.2h-0.2L59,22v19.8H45.9V1.8z M130.7,41.8h14.9
			c16.2,0,24.3-8.4,24.3-20.3v-0.1c0-11.9-8-19.7-23.9-19.7h-15.4L130.7,41.8z M144,30.1V13.4h2.2c6.1,0,10.1,2.5,10.1,8.3v0.1
			c0,5.8-3.9,8.3-10.1,8.3L144,30.1z M128,12.8v-11H93.8v40.1H128v-11h-23.2v-4.3h19.8v-9.7h-19.8v-4.1H128z"/>
		<path class="st2" d="M207.1,30.3v-0.1c0-4.8,2.8-7.8,7.2-9.6c-3-1.5-5.8-4.3-5.8-8.6v-0.1c0-6.5,6.5-11.1,16-11.1s16,4.6,16,11.1
			V12c0,4.4-2.8,7.1-5.8,8.6c4,1.6,7.2,4.5,7.2,9.6v0.1c0,6.9-7.1,11.7-17.4,11.7S207.1,37.2,207.1,30.3z M229.1,28.8v-0.1
			c0-2.2-1.8-3.9-4.6-3.9s-4.6,1.7-4.6,3.9v0.1c0,2,1.5,4,4.6,4S229.1,30.8,229.1,28.8L229.1,28.8z M228.7,13.6v-0.1
			c-0.2-2.3-2.3-4-4.6-3.7c-2,0.2-3.5,1.8-3.7,3.7v0.1c0.2,2.3,2.1,4,4.4,3.9C226.9,17.4,228.5,15.7,228.7,13.6z"/>
		<path class="st2" d="M175.9,0.3c0.5,0.2,1,0.5,1.4,0.9c0.8,0.8,1.3,2,1.3,3.1c0,0.6-0.1,1.2-0.3,1.7c-0.2,0.5-0.5,1-0.9,1.4
			c-0.4,0.4-0.9,0.7-1.4,0.9c-1.1,0.4-2.4,0.4-3.5,0c-1.1-0.4-1.9-1.3-2.3-2.3c-0.2-0.6-0.3-1.1-0.3-1.7c0-0.6,0.1-1.2,0.3-1.7
			c0.2-0.5,0.5-1,0.9-1.4c0.4-0.4,0.9-0.7,1.4-0.9C173.5-0.1,174.8-0.1,175.9,0.3 M172.7,0.9c-0.9,0.4-1.6,1.1-2,2
			c-0.2,0.5-0.3,1-0.3,1.5c0,0.5,0.1,1,0.3,1.5c0.8,1.9,3,2.8,4.9,2c0.5-0.2,0.9-0.5,1.2-0.8c0.3-0.3,0.6-0.8,0.8-1.2
			c0.2-0.5,0.3-1,0.3-1.5c0-0.5-0.1-1-0.3-1.5c-0.2-0.4-0.5-0.9-0.8-1.2C175.7,0.6,174.1,0.3,172.7,0.9 M172.5,6.9V1.9h2
			c0.5,0,0.9,0.1,1.3,0.4c0.3,0.3,0.4,0.6,0.4,1c0,0.2,0,0.4-0.1,0.6c-0.1,0.2-0.2,0.3-0.3,0.4c-0.1,0.1-0.3,0.2-0.4,0.3
			c-0.2,0.1-0.3,0.1-0.5,0.2l1.5,2.4h-0.7l-1.4-2.3h-1.1V7L172.5,6.9z M174.5,4.1c0.2,0,0.3,0,0.5-0.1c0.1,0,0.3-0.1,0.4-0.3
			c0.1-0.2,0.1-0.3,0.1-0.5c0-0.2,0-0.3-0.1-0.4c-0.1-0.1-0.2-0.2-0.3-0.3c-0.1-0.1-0.3-0.1-0.4-0.1c-0.1,0-0.3,0-0.4,0h-1.1v1.8
			h0.8L174.5,4.1"/>
	</g>
</g>
</svg>
