<svg id="e9e5e7ae-395e-41e4-8a4f-587977c30170" data-name="aoaLogoNoFill" xmlns="http://www.w3.org/2000/svg" viewBox="0 0 199.33 96.67"><title>aoaLogoNoFill</title><g id="449e8401-aaae-4d39-87c7-4fa591b6e7c6" data-name="logo"><g id="5ad6065d-668f-46bb-8ea4-a479bd015bb9" data-name="aoa"><path d="M28.72,54.9,27.49,58A126.48,126.48,0,0,0,42,58.72a131.48,131.48,0,0,0,14-.62c-.51-1.21-13.81-32.6-14.42-34C37.46,32.38,31.81,46.93,28.72,54.9Z" fill="none"/><path d="M86,10.32a40.74,40.74,0,0,0-26.36,26,36.63,36.63,0,0,0-1.72,9.6l-.32.06-1.78-4.28L44.26,13.89,42.66,18l13,31.31,4.92,11.8A40.53,40.53,0,0,0,85.14,83.87h0l.76.25c.45.11.94.17,1-.1s-.14-.42-.37-.56a37.65,37.65,0,0,1-8.47-4.34A38.48,38.48,0,0,1,61.55,47.78a42.64,42.64,0,0,1,.37-5.36A38.46,38.46,0,0,1,72.8,19.73,36.74,36.74,0,0,1,86,11.29h0s1.11-.32,1-.85C86.86,10.19,86.43,10.22,86,10.32Z" fill="none"/><path d="M156.89,24.07c-.6,1.43-13.91,32.81-14.42,34a129.25,129.25,0,0,0,14,.63A124.16,124.16,0,0,0,171,58l-1.23-3.15C166.66,46.92,161,32.37,156.89,24.07Z" fill="none"/><path d="M195.88,86.11l-8.34-1.85a106.33,106.33,0,0,1-6.46-13.49L155.9,6.69h-5.34L140.2,31.54C133.41,15.92,118,6.25,99.67,6.25H98.8C80.45,6.25,65,15.92,58.26,31.54L47.9,6.69H42.56L17.39,70.77a107.65,107.65,0,0,1-6.45,13.49L2.6,86.11l-.4.09v2.18H30.11V86.17l-.43-.07L18.26,84.3c1.06-5.54,4.48-14.22,6.78-20l.52-1.32H58.2a42.36,42.36,0,0,0,3.38,6.3,41.72,41.72,0,0,0,3.51,4.63A40.81,40.81,0,0,0,80.81,84.95c1.06.42,2.17.82,3.32,1.18a49.68,49.68,0,0,0,6.07,1.46c1,.18,2.1.33,3.24.46l.49,0a33.7,33.7,0,0,0,6.51.2l-3-4.45-.62,0A30,30,0,0,1,72.7,67.28a35.35,35.35,0,0,1-1.82-4.19,46.79,46.79,0,0,1-2.57-15.87c0-10.84,3.13-20.08,9-26.72a28.85,28.85,0,0,1,21.25-9.74h1.26a28.86,28.86,0,0,1,21.26,9.74c5.92,6.64,9,15.88,9,26.72a46.55,46.55,0,0,1-2.57,15.87,35.34,35.34,0,0,1-1.82,4.19,30,30,0,0,1-23.5,16.46,7.68,7.68,0,0,1,4.64,4.06,10.41,10.41,0,0,0,1.35-.21,49.24,49.24,0,0,0,6.07-1.46c1.14-.36,2.26-.75,3.32-1.18a41.83,41.83,0,0,0,9.65-5.42,41.14,41.14,0,0,0,6.07-5.65,41.72,41.72,0,0,0,3.51-4.63,42.86,42.86,0,0,0,3.38-6.3h32.64c.16.42.52,1.32.52,1.32,2.3,5.81,5.72,14.49,6.78,20L168.8,86.1l-.43.07v2.21h27.91V86.2ZM42,58.72A126.48,126.48,0,0,1,27.49,58l1.23-3.14c3.09-8,8.74-22.52,12.86-30.82.61,1.42,13.91,32.81,14.42,34A131.48,131.48,0,0,1,42,58.72ZM85.93,11.29h0A36.74,36.74,0,0,0,72.8,19.73,38.46,38.46,0,0,0,61.92,42.42a42.64,42.64,0,0,0-.37,5.36A38.48,38.48,0,0,0,78.08,79.13a37.65,37.65,0,0,0,8.47,4.34c.23.14.43.33.37.56s-.55.21-1,.1l-.76-.25h0A40.69,40.69,0,0,1,60.63,61.09l-4.92-11.8L42.66,18l1.6-4.09L55.83,41.66l1.78,4.28.32-.06a36.63,36.63,0,0,1,1.72-9.6A40.74,40.74,0,0,1,86,10.32c.42-.1.85-.13.91.12C87,11,85.93,11.29,85.93,11.29Zm53.61,49a52.73,52.73,0,0,1-6.79,11.33c-3.67,4.61-8.47,9-12.88,11-9.93,4.51-10.64,1.19-8.37.16a43.55,43.55,0,0,0,9.78-5.35C128.16,72,133.11,63.1,135,56a37.35,37.35,0,0,0,.69-13.51A42.32,42.32,0,0,0,130.94,28a39.72,39.72,0,0,0-10-11.46c-5.24-3.78-10.66-5.23-11.45-5.9-1.39-1.19,4.73-2.86,15.87,5.09a40.15,40.15,0,0,1,11.89,14,44.83,44.83,0,0,1,4.06,12.12l12.94-30.3,2.37,6.79Zm16.89-1.57a129.25,129.25,0,0,1-14-.63c.51-1.21,13.82-32.59,14.42-34,4.12,8.3,9.77,22.85,12.86,30.82L171,58A124.16,124.16,0,0,1,156.43,58.72Z"/><path d="M154.29,11.53l-12.94,30.3a44.83,44.83,0,0,0-4.06-12.12,40.15,40.15,0,0,0-11.89-14c-11.14-8-17.26-6.28-15.87-5.09.79.67,6.21,2.12,11.45,5.9a39.72,39.72,0,0,1,10,11.46,42.32,42.32,0,0,1,4.73,14.51A37.35,37.35,0,0,1,135,56c-1.87,7.11-6.82,16-13.7,21.42a43.55,43.55,0,0,1-9.78,5.35c-2.27,1-1.56,4.35,8.37-.16,4.41-2,9.21-6.37,12.88-11a52.73,52.73,0,0,0,6.79-11.33l17.12-42ZM137.85,61.1a40.84,40.84,0,0,1-19.11,20.52,39.69,39.69,0,0,1-6.25,2.53c-.43.1-.87.14-.93-.11s.15-.43.39-.57a37.4,37.4,0,0,0,8.44-4.33,38.5,38.5,0,0,0,16.53-31.35,42.76,42.76,0,0,0-.37-5.36,38.49,38.49,0,0,0-10.88-22.69A36.56,36.56,0,0,0,112.5,11.3h.05s-1.12-.32-1-.83c.06-.24.46-.22.87-.13a40.68,40.68,0,0,1,26.39,26,36.63,36.63,0,0,1,1.72,9.6l.32.06,1.78-4.28L154.2,13.92c.25.63,1.55,4,1.6,4.09l-13,31.31Z"/></g><g id="abb372bc-0ead-48b2-b916-ff1652ea69a5" data-name="staff"><path d="M82,29.32c3.12,0,5.61,1.91,5.61,5.09,0,4.62-3.42,5.7-6.42,5.7H75.6v-.59c.75,0,1.26-.16,1.33-.38a2.29,2.29,0,0,0,.06-.67V31a2.32,2.32,0,0,0-.06-.68c-.06-.21-.58-.35-1.33-.38v-.59Zm-1.8,8.57c0,1.34,0,1.25.71,1.25,1.8,0,3.44-.85,3.44-4.73,0-2.93-1.31-4.13-3.88-4.13h-.28v7.61Z"/><path d="M112.26,34.34a5.73,5.73,0,0,1,6-5.46,5.32,5.32,0,0,1,5.44,5.39,5.8,5.8,0,0,1-6,5.76A5.31,5.31,0,0,1,112.26,34.34Zm8.08.27c0-3.48-1.37-4.71-2.65-4.71-1,0-2.08.64-2.08,4S116.7,39,118.06,39C119,39,120.34,38.75,120.34,34.61Z"/><path d="M104.41,93.86a6.54,6.54,0,0,0,.52-2.62,5.82,5.82,0,0,0-.38-2.15h0a6.94,6.94,0,0,0-4.15-3.89l-1.14-.41a5,5,0,0,1-1.14-.5,4.28,4.28,0,0,1-2.2-3.4l0-.79a20.35,20.35,0,0,1,.77-5.22.51.51,0,0,0-.41-.23c-.35,0-1.31.16-2.69,2.45-.78,1.29-2.48,4.62-1.34,7.69.73,2,2.5,3.42,5.27,4.33l1.34.45,1.64.71c2.77,1.4,3.07,3.43,3.07,3.43A.49.49,0,0,0,104.41,93.86Z"/><path d="M106.65,71.2h0c-.63-1.83-2.48-3.22-5.51-4.12l-1.74-.45a11.63,11.63,0,0,1-2.34-.73,3.52,3.52,0,0,1-2.26-3.18v-.46a24.5,24.5,0,0,1,.91-5.64c-.06-.22-.15-.26-.19-.27-.57-.12-2,1-3.07,2.58-1.35,2-2.42,5.08-1.37,7.65.87,2.15,3.05,3.61,6.5,4.34l.09,0,.15,0c.18,2.65.74,10.86.75,11.08l.09.06.48.27.38.17.29.08.5.17c0-.55.46-8.52.58-10.78l.31.16c1.38.76,2.08,1.69,2.08,2.75a2.19,2.19,0,0,1,0,.36c-.23,1.59-.94,5-1.19,5.9a1.32,1.32,0,0,0,.06.2c.42-.05,1.76-1.92,2.41-2.83a10.54,10.54,0,0,0,2.37-5.85A4.6,4.6,0,0,0,106.65,71.2Z"/><path d="M107.73,52.22c-.75-1.93-2.73-3.31-5.89-4.1a19.8,19.8,0,0,0-2.41-.44A20.2,20.2,0,0,1,96,46.75c-1.54-.64-2.31-1.56-2.37-2.79V43.5a23.73,23.73,0,0,1,.92-5.63c-.06-.24-.16-.27-.2-.28-.56-.11-2,1-3.07,2.59a10.24,10.24,0,0,0-1.9,5.34,5.58,5.58,0,0,0,.35,2c.83,2.15,3.15,3.72,6.89,4.67l.08,0c.17,2.48.7,10.27.71,10.53a10.5,10.5,0,0,0,1.12.44l.69.19.19,0,.61.12.91.21c0-.5.39-8.16.5-10.45l.39.15A3.17,3.17,0,0,1,104,56.33c0,.09,0,.19,0,.29a18.48,18.48,0,0,1-1.24,5.81c.06.22.14.26.17.27.44.08,1.73-.79,2.92-2.59a12,12,0,0,0,2.15-6A4.71,4.71,0,0,0,107.73,52.22Z"/><path d="M116.43,24.67a18,18,0,0,0-2.44-5,8.88,8.88,0,0,0-3-2.81,13.39,13.39,0,0,0-5.26-1.14h-.22l-.08-.07c-2.61-2.42-7.2-3.5-11.16-2.63-4.81,1.05-7.55,4.57-7.55,9.66v.16c.08,6.63,4.51,8.6,8.82,9.64l.08,0c.17,2.56.73,10.74.75,11a14.28,14.28,0,0,0,1.61.6l1,.25.68.12a19.05,19.05,0,0,1,2.1.4c0-.54.25-8.52.31-10.87l.49.2a3.12,3.12,0,0,1,2.23,2.72c0,.11,0,.22,0,.33A19.46,19.46,0,0,1,103.56,43c.06.19.14.24.19.25.56.11,2-1,3.07-2.58s2.54-4.46,1.59-7.16c-.71-2-2.69-3.52-5.87-4.5a24.6,24.6,0,0,0-3.41-.79,12.05,12.05,0,0,1-4.26-1.44,4.84,4.84,0,0,1-2.62-4.29,4.58,4.58,0,0,1,2.14-4l.48-.26c.12,1.4.42,5.1.44,5.33a10.58,10.58,0,0,0,2.06.93l1.33.35.36.08a29.92,29.92,0,0,1,3.38.72c0-.56.26-4.77.27-4.88a1.67,1.67,0,0,0-.13-.75l-.15-.28.11.08.74.85a14.78,14.78,0,0,1,1.13,1.73,6.48,6.48,0,0,0,.7,1.06c2.57,2.43,6.51,2.24,11,1.75a.91.91,0,0,0,.33-.52S116.43,24.69,116.43,24.67Z"/><path d="M98.47,10.65a20.58,20.58,0,0,1,4.47.3l.25-6.09c0-2.24-2.72-2.76-4.34-2.86-1.92-.12-3.26.27-4,1.16a3.17,3.17,0,0,0-.63,2.06s.24,5.3.27,5.89A33.57,33.57,0,0,1,98.47,10.65Z"/></g><path id="afd651e7-5375-4607-a2ca-5fbb623564da" data-name="copyright" d="M176.31,24.4a8.77,8.77,0,1,1,8.78-8.78A8.78,8.78,0,0,1,176.31,24.4Zm0-15.91a7.14,7.14,0,1,0,7,7.13A7.09,7.09,0,0,0,176.31,8.49Zm4.43,11.76h-2.08l-1.75-3.37h-2.35v3.35h-1.82V10.58h4.63a3,3,0,0,1,3.32,3.15,3,3,0,0,1-2,2.93Zm-3.34-5a1.38,1.38,0,0,0,1.5-1.48,1.31,1.31,0,0,0-1.5-1.48h-2.84v3Z"/></g></svg>