<svg id="79bc62c4-4a96-4c11-8bbb-72210d2524c8" data-name="omedLogoPlain" xmlns="http://www.w3.org/2000/svg" viewBox="0 0 386.8 67.4"><title>omedLogoPlain</title><path d="M306.5,20.5,296,22.8,292.1,6.9l19.2-5.3h16.3V66.5H306.4v-46Z" fill="#6d6e71"/><path d="M363.3,19.8H334V2h52.9V18.2l-28,48.3H335.5Z" fill="#6d6e71"/><path d="M74,2.2H96.5l13.9,22.7L124.3,2.2h22.5V66.9H125.3V34.8l-14.9,23H110l-14.9-23V66.9H74ZM210.8,66.9h24c26.1,0,39.3-13.6,39.3-32.7V34c0-19.1-12.8-31.8-38.5-31.8H210.8ZM232.4,48V21H236c9.9,0,16.3,4.1,16.3,13.4v.2c0,9.3-6.4,13.4-16.3,13.4ZM206.5,20V2.2H151.4V66.9h55.1V49.1H169.1v-7H201V26.5H169.1V20Zm74-17.3a6.25,6.25,0,0,0-4.4,0,5.52,5.52,0,0,0-3,3,5.38,5.38,0,0,0-.4,2.2,5.38,5.38,0,0,0,.4,2.2,5.52,5.52,0,0,0,3,3,6.25,6.25,0,0,0,4.4,0,5.52,5.52,0,0,0,3-3,5.38,5.38,0,0,0,.4-2.2,5.38,5.38,0,0,0-.4-2.2,5.52,5.52,0,0,0-3-3m-4.1.7a4.71,4.71,0,0,1,3.8,0,5.6,5.6,0,0,1,1.5,1,4,4,0,0,1,1,1.5,5.85,5.85,0,0,1,.4,1.9,4.06,4.06,0,0,1-.4,1.9,4,4,0,0,1-1,1.5,4,4,0,0,1-1.5,1,4.71,4.71,0,0,1-3.8,0,5.6,5.6,0,0,1-1.5-1,4,4,0,0,1-1-1.5,5.85,5.85,0,0,1-.4-1.9,4.06,4.06,0,0,1,.4-1.9,4,4,0,0,1,1-1.5,5.6,5.6,0,0,1,1.5-1m.7,7.8V8.3h1.3l1.8,2.9h.9l-1.9-2.9a1.42,1.42,0,0,0,.6-.2,2.19,2.19,0,0,0,.5-.3,1,1,0,0,0,.4-.5,1.7,1.7,0,0,0,.1-.7,1.73,1.73,0,0,0-.5-1.3,2.35,2.35,0,0,0-1.6-.5h-2.5v6.5h.9v-.1Zm1.7-3.6H277V5.3h2.1c.2,0,.3.1.5.2s.3.2.3.3.1.3.1.6a.85.85,0,0,1-.2.6.54.54,0,0,1-.4.3c-.1.2-.3.2-.6.3" fill="#6d6e71"/><path d="M0,33.9C0,52.7,15.2,67.4,35.2,67.4s35.4-15,35.4-33.7v-.2C70.6,14.8,55.3,0,35.4,0S0,15,0,33.7v.2m48.8,0c0,7.6-5.2,14.4-13.4,14.4S21.8,41.4,21.8,33.7v-.2c0-7.6,5.2-14.4,13.4-14.4S48.8,26,48.8,33.7v.2" fill="#d53847"/></svg>