<?xml version="1.0" encoding="utf-8"?>
<svg version="1.1" xmlns="http://www.w3.org/2000/svg" xmlns:xlink="http://www.w3.org/1999/xlink" x="0px" y="0px"
	 viewBox="0 0 243.13 81.11" enable-background="new 0 0 243.13 81.11" xml:space="preserve">
<g id="sub">
	<g>
		<path fill="#414042" d="M1.13,71.29v-0.03c0-3.2,2.4-6,5.94-6c3.53,0,5.9,2.77,5.9,5.97v0.03c0,3.2-2.41,6-5.94,6
			C3.5,77.26,1.13,74.49,1.13,71.29z M11.61,71.29v-0.03c0-2.64-1.92-4.79-4.58-4.79s-4.54,2.12-4.54,4.76v0.03
			c0,2.64,1.92,4.79,4.58,4.79S11.61,73.93,11.61,71.29z"/>
		<path fill="#414042" d="M15.5,71.29v-0.03c0-3.28,2.45-6,5.87-6c2.11,0,3.37,0.75,4.53,1.84L25,68.05
			c-0.98-0.93-2.07-1.59-3.65-1.59c-2.57,0-4.5,2.09-4.5,4.76v0.03c0,2.69,1.94,4.79,4.5,4.79c1.59,0,2.64-0.61,3.75-1.67l0.86,0.85
			c-1.21,1.23-2.54,2.04-4.64,2.04C17.97,77.26,15.5,74.62,15.5,71.29z"/>
		<path fill="#414042" d="M31.59,66.66h-3.9v-1.21h9.12v1.21h-3.9v10.4h-1.33V66.66z"/>
		<path fill="#414042" d="M38.23,71.29v-0.03c0-3.2,2.4-6,5.94-6c3.53,0,5.9,2.77,5.9,5.97v0.03c0,3.2-2.41,6-5.94,6
			C40.6,77.26,38.23,74.49,38.23,71.29z M48.71,71.29v-0.03c0-2.64-1.92-4.79-4.58-4.79s-4.54,2.12-4.54,4.76v0.03
			c0,2.64,1.92,4.79,4.58,4.79S48.71,73.93,48.71,71.29z"/>
		<path fill="#414042" d="M53.11,65.45h4.94c1.33,0,2.37,0.38,3.04,1.03c0.48,0.5,0.75,1.11,0.75,1.86v0.03
			c0,1.51-0.93,2.29-1.84,2.69c1.38,0.41,2.49,1.21,2.49,2.8v0.03c0,1.99-1.68,3.17-4.21,3.17h-5.16V65.45z M60.51,68.52
			c0-1.14-0.91-1.89-2.57-1.89h-3.53v4h3.43c1.58,0,2.67-0.71,2.67-2.07V68.52z M58.07,71.79h-3.67v4.1h3.9
			c1.76,0,2.85-0.78,2.85-2.07v-0.03C61.16,72.52,60.1,71.79,58.07,71.79z"/>
		<path fill="#414042" d="M65.36,65.45h8.39v1.19h-7.08v3.96H73v1.19h-6.34v4.06h7.17v1.19h-8.48V65.45z"/>
		<path fill="#414042" d="M76.74,65.45h4.99c1.43,0,2.57,0.43,3.3,1.16c0.56,0.56,0.9,1.38,0.9,2.29v0.03
			c0,1.92-1.33,3.05-3.15,3.38l3.57,4.74h-1.61l-3.37-4.51h-3.32v4.51h-1.31V65.45z M81.62,71.37c1.74,0,2.99-0.9,2.99-2.39v-0.03
			c0-1.43-1.09-2.29-2.97-2.29h-3.58v4.71H81.62z"/>
		<path fill="#414042" d="M93.48,75.42l0.86-0.95c1.01,0.98,2.12,1.59,3.3,1.59c1.66,0,2.8-1.11,2.8-2.57v-0.03
			c0-1.44-1.19-2.44-2.89-2.44c-0.98,0-1.76,0.3-2.44,0.66l-0.88-0.58l0.33-5.66h6.68v1.21h-5.54l-0.25,3.71
			c0.68-0.3,1.33-0.51,2.29-0.51c2.26,0,4.01,1.33,4.01,3.55v0.03c0,2.27-1.73,3.82-4.15,3.82C95.97,77.26,94.53,76.46,93.48,75.42z
			"/>
		<path fill="#414042" d="M104.1,71.44h6.6v1.28h-6.6V71.44z"/>
		<path fill="#414042" d="M120.43,71.22v-0.23c-0.73,1.13-1.79,1.84-3.28,1.84c-2.39,0-4.05-1.51-4.05-3.6V69.2
			c0-2.21,1.71-3.95,4.18-3.95c1.33,0,2.31,0.45,3.05,1.19c0.88,0.88,1.44,2.17,1.44,4.5v0.03c0,3.68-1.96,6.29-4.83,6.29
			c-1.51,0-2.6-0.61-3.58-1.43l0.76-1.01c0.95,0.83,1.82,1.24,2.85,1.24C119.22,76.07,120.43,73.73,120.43,71.22z M120.18,69.08
			v-0.03c0-1.48-1.21-2.64-2.95-2.64c-1.74,0-2.79,1.28-2.79,2.72v0.03c0,1.48,1.16,2.54,2.85,2.54
			C119.07,71.7,120.18,70.41,120.18,69.08z"/>
		<path fill="#BCBEC0" d="M132.59,63.82h1.08v15.36h-1.08V63.82z"/>
		<path fill="#414042" d="M144.02,75.37l0.81-0.96c1.21,1.09,2.37,1.64,3.98,1.64c1.56,0,2.59-0.83,2.59-1.97v-0.03
			c0-1.08-0.58-1.69-3.02-2.21c-2.67-0.58-3.9-1.44-3.9-3.35v-0.03c0-1.82,1.61-3.17,3.81-3.17c1.69,0,2.9,0.48,4.08,1.43
			l-0.76,1.01c-1.08-0.88-2.16-1.26-3.35-1.26c-1.51,0-2.47,0.83-2.47,1.87v0.03c0,1.09,0.6,1.71,3.15,2.26
			c2.59,0.56,3.78,1.51,3.78,3.28v0.03c0,1.99-1.66,3.28-3.96,3.28C146.93,77.23,145.42,76.61,144.02,75.37z"/>
		<path fill="#414042" d="M159.72,65.37h1.23l5.29,11.69h-1.41l-1.36-3.07h-6.32l-1.38,3.07h-1.34L159.72,65.37z M162.95,72.8
			l-2.64-5.9l-2.65,5.9H162.95z"/>
		<path fill="#414042" d="M168.8,65.45h1.23l7.31,9.3v-9.3h1.28v11.61h-1.04l-7.5-9.52v9.52h-1.28V65.45z"/>
		<path fill="#414042" d="M187.41,65.45h4.03c3.65,0,6.17,2.5,6.17,5.77v0.03c0,3.27-2.52,5.81-6.17,5.81h-4.03V65.45z
			 M188.72,66.66v9.19h2.72c2.94,0,4.81-1.99,4.81-4.56v-0.03c0-2.57-1.87-4.59-4.81-4.59H188.72z"/>
		<path fill="#414042" d="M200.77,65.45h1.31v11.61h-1.31V65.45z"/>
		<path fill="#414042" d="M205.75,65.45h8.39v1.19h-7.08v3.96h6.34v1.19h-6.34v4.06h7.17v1.19h-8.48V65.45z"/>
		<path fill="#414042" d="M216.62,71.29v-0.03c0-3.18,2.34-6,5.82-6c1.96,0,3.17,0.56,4.33,1.54l-0.85,1
			c-0.9-0.78-1.89-1.33-3.53-1.33c-2.57,0-4.41,2.17-4.41,4.76v0.03c0,2.77,1.77,4.83,4.59,4.83c1.33,0,2.55-0.51,3.35-1.16v-2.89
			h-3.53v-1.18h4.79v4.63c-1.08,0.96-2.7,1.78-4.66,1.78C218.87,77.26,216.62,74.61,216.62,71.29z"/>
		<path fill="#414042" d="M229.89,71.29v-0.03c0-3.2,2.4-6,5.94-6c3.53,0,5.9,2.77,5.9,5.97v0.03c0,3.2-2.41,6-5.94,6
			C232.26,77.26,229.89,74.49,229.89,71.29z M240.37,71.29v-0.03c0-2.64-1.92-4.79-4.58-4.79s-4.54,2.12-4.54,4.76v0.03
			c0,2.64,1.92,4.79,4.58,4.79S240.37,73.93,240.37,71.29z"/>
	</g>
</g>
<g id="omed2018LogoTagline">
	<g>
		<path fill="#1E22AA" d="M0.89,21.4c0,11.62,9.44,20.77,21.8,20.77S44.6,32.9,44.6,21.29v-0.12C44.6,9.55,35.16,0.4,22.8,0.4
			C10.44,0.4,0.89,9.67,0.89,21.29V21.4 M31.1,21.4c0,4.69-3.2,8.93-8.3,8.93c-5.15,0-8.41-4.29-8.41-9.04v-0.12
			c0-4.69,3.2-8.92,8.3-8.92c5.15,0,8.41,4.29,8.41,9.04V21.4"/>
		<g>
			<path fill="#1E22AA" d="M194.86,12.27l-6.69,1.59l-2.1-8.51l11.62-3.29h7.99v39.97h-10.83V12.27z"/>
		</g>
		<g>
			<path fill="#1E22AA" d="M46.7,1.77h13.96l8.58,14.08l8.58-14.08h13.96v40.06H78.46V21.97l-9.21,14.25h-0.23l-9.21-14.25v19.86
				H46.7V1.77z M131.46,41.83h14.88c16.19,0,24.32-8.41,24.32-20.26v-0.12c0-11.85-7.95-19.69-23.86-19.69h-15.34V41.83z
				 M144.85,30.15V13.44h2.23c6.12,0,10.07,2.52,10.07,8.3v0.12c0,5.78-3.95,8.3-10.07,8.3H144.85z M128.82,12.76V1.77H94.65v40.06
				h34.16V30.84h-23.17v-4.35h19.75v-9.67h-19.75v-4.06H128.82z"/>
		</g>
		<path fill="#1E22AA" d="M207.94,30.31V30.2c0-4.83,2.84-7.79,7.17-9.56c-3.01-1.54-5.8-4.27-5.8-8.65v-0.11
			c0-6.54,6.54-11.15,15.98-11.15c9.44,0,15.98,4.61,15.98,11.15V12c0,4.38-2.79,7.11-5.8,8.65c4.04,1.65,7.17,4.49,7.17,9.56v0.11
			c0,6.94-7.05,11.72-17.35,11.72C214.99,42.03,207.94,37.2,207.94,30.31z M229.89,28.83v-0.11c0-2.16-1.82-3.87-4.61-3.87
			c-2.79,0-4.61,1.71-4.61,3.87v0.11c0,1.99,1.54,3.98,4.61,3.98C228.36,32.82,229.89,30.77,229.89,28.83z M229.44,13.65v-0.11
			c0-1.99-1.65-3.75-4.15-3.75c-2.5,0-4.15,1.76-4.15,3.75v0.11c0,2.22,1.71,3.87,4.15,3.87C227.73,17.52,229.44,15.87,229.44,13.65
			z"/>
		<g>
			<path fill="#1E22AA" d="M176.71,0.34c0.54,0.23,1,0.54,1.4,0.94c0.39,0.4,0.71,0.87,0.93,1.41c0.23,0.54,0.34,1.12,0.34,1.73
				c0,0.63-0.11,1.21-0.34,1.74c-0.22,0.54-0.54,1-0.93,1.39c-0.4,0.4-0.86,0.71-1.4,0.93c-0.54,0.22-1.12,0.34-1.75,0.34
				c-0.63,0-1.21-0.11-1.74-0.34c-0.54-0.23-1.01-0.54-1.4-0.93c-0.4-0.39-0.71-0.86-0.93-1.39c-0.22-0.53-0.34-1.11-0.34-1.74
				c0-0.62,0.11-1.2,0.34-1.73c0.23-0.54,0.54-1.01,0.93-1.41c0.39-0.4,0.86-0.71,1.4-0.94c0.54-0.23,1.12-0.34,1.74-0.34
				C175.59,0,176.17,0.11,176.71,0.34 M173.48,0.93c-0.46,0.2-0.85,0.47-1.18,0.81c-0.33,0.34-0.59,0.74-0.78,1.2
				c-0.19,0.46-0.28,0.95-0.28,1.49c0,0.53,0.09,1.03,0.28,1.48c0.19,0.46,0.44,0.86,0.78,1.2c0.33,0.34,0.73,0.61,1.18,0.81
				c0.45,0.2,0.95,0.3,1.49,0.3c0.53,0,1.02-0.1,1.48-0.3c0.45-0.2,0.85-0.46,1.18-0.81c0.34-0.34,0.6-0.74,0.79-1.2
				c0.19-0.46,0.28-0.95,0.28-1.48c0-0.53-0.1-1.02-0.28-1.49c-0.19-0.46-0.45-0.86-0.79-1.2c-0.33-0.34-0.73-0.61-1.18-0.81
				c-0.45-0.2-0.95-0.3-1.48-0.3C174.42,0.63,173.93,0.73,173.48,0.93 M173.36,6.97v-5.1h1.95c0.58,0,1,0.12,1.26,0.36
				c0.27,0.24,0.4,0.59,0.4,1.05c0,0.22-0.03,0.41-0.1,0.58c-0.07,0.17-0.16,0.31-0.28,0.42c-0.12,0.12-0.25,0.21-0.41,0.27
				c-0.16,0.07-0.32,0.12-0.49,0.15l1.52,2.27h-0.74l-1.44-2.27h-1.05v2.27H173.36z M175.39,4.15c0.19-0.01,0.35-0.05,0.49-0.1
				c0.15-0.05,0.26-0.15,0.35-0.26c0.09-0.12,0.13-0.29,0.13-0.51c0-0.18-0.03-0.33-0.1-0.44c-0.07-0.11-0.16-0.2-0.27-0.27
				c-0.11-0.07-0.24-0.11-0.39-0.14c-0.14-0.02-0.29-0.03-0.45-0.03h-1.15v1.77h0.83C175.01,4.17,175.2,4.16,175.39,4.15"/>
		</g>
	</g>
</g>
</svg>
