<svg id="2bc9d974-7243-4604-b162-1ce33a4dca3c" data-name="omed2018LogoPlain" xmlns="http://www.w3.org/2000/svg" viewBox="0 0 241.75 42.17">
  <title>omed-logo-2018</title>
  <g>
    <path d="M0,21.89C0,33.51,9.44,42.66,21.8,42.66s21.92-9.27,21.92-20.88v-.12C43.72,10,34.28.89,21.92.89S0,10.16,0,21.78v.11m30.21,0c0,4.69-3.2,8.93-8.3,8.93s-8.41-4.29-8.41-9v-.12c0-4.69,3.2-8.92,8.3-8.92s8.41,4.29,8.41,9v.11" transform="translate(0 -0.49)" fill="#1e22aa"/>
    <path d="M194,12.76l-6.69,1.59-2.1-8.51,11.62-3.29h8v40H194Z" transform="translate(0 -0.49)" fill="#1e22aa"/>
    <path d="M45.82,2.26h14l8.58,14.08L76.95,2.26h14V42.32H77.57V22.46L68.36,36.71h-.23L58.92,22.46V42.32H45.82Zm84.76,40.06h14.88c16.19,0,24.32-8.41,24.32-20.26v-.12c0-11.85-8-19.69-23.86-19.69H130.57ZM144,30.65V13.93h2.23c6.12,0,10.07,2.52,10.07,8.3v.12c0,5.78-3.95,8.3-10.07,8.3Zm-16-17.39v-11H93.77V42.32h34.16v-11H104.76V27h19.75V17.31H104.76V13.25Z" transform="translate(0 -0.49)" fill="#1e22aa"/>
    <path d="M207.05,30.81v-.11c0-4.83,2.84-7.79,7.17-9.56-3-1.54-5.8-4.27-5.8-8.65v-.11c0-6.54,6.54-11.15,16-11.15s16,4.61,16,11.15v.11c0,4.38-2.79,7.11-5.8,8.65,4,1.65,7.17,4.49,7.17,9.56v.11c0,6.94-7.05,11.72-17.35,11.72S207.05,37.69,207.05,30.81Zm22-1.48v-.11c0-2.16-1.82-3.87-4.61-3.87s-4.61,1.71-4.61,3.87v.11c0,2,1.54,4,4.61,4S229,31.26,229,29.33Zm-.45-15.19V14a4.17,4.17,0,0,0-8.3,0v.11a4.16,4.16,0,0,0,8.3,0Z" transform="translate(0 -0.49)" fill="#1e22aa"/>
    <path d="M175.82.83a4.27,4.27,0,0,1,1.4.94,4.43,4.43,0,0,1,1.27,3.14,4.4,4.4,0,0,1-.34,1.74A4.27,4.27,0,0,1,177.22,8a4.33,4.33,0,0,1-1.4.93,4.68,4.68,0,0,1-3.49,0A4.3,4.3,0,0,1,170,6.65a4.44,4.44,0,0,1-.34-1.74A4.46,4.46,0,0,1,170,3.18a4.38,4.38,0,0,1,.93-1.41,4.24,4.24,0,0,1,1.4-.94,4.68,4.68,0,0,1,3.49,0m-3.23.59a3.64,3.64,0,0,0-2,2,3.87,3.87,0,0,0-.28,1.49,3.85,3.85,0,0,0,.28,1.48,3.73,3.73,0,0,0,6.1,1.2,3.73,3.73,0,0,0,.79-1.2,4,4,0,0,0,0-3,3.71,3.71,0,0,0-.79-1.2,3.8,3.8,0,0,0-4.14-.81m-.11,6V2.36h2a1.82,1.82,0,0,1,1.26.36,1.34,1.34,0,0,1,.4,1,1.56,1.56,0,0,1-.1.58,1.21,1.21,0,0,1-.28.42,1.3,1.3,0,0,1-.41.27,2.24,2.24,0,0,1-.49.15l1.52,2.27h-.74l-1.44-2.27H173.1V7.46Zm2-2.82a1.52,1.52,0,0,0,.49-.1.73.73,0,0,0,.35-.26.87.87,0,0,0,.13-.51.84.84,0,0,0-.1-.44.76.76,0,0,0-.27-.27,1.15,1.15,0,0,0-.39-.14,3,3,0,0,0-.45,0H173.1V4.66h.83l.56,0" transform="translate(0 -0.49)" fill="#1e22aa"/>
  </g>
</svg>
